<svg width="16" height="16" viewBox="0 0 17 17" fill="none" xmlns="http://www.w3.org/2000/svg">
<path d="M14.9697 4.48568C12.7497 4.26568 10.5164 4.15234 8.28973 4.15234C6.96973 4.15234 5.64973 4.21901 4.32973 4.35234L2.96973 4.48568" stroke="#FF0000" stroke-linecap="round" stroke-linejoin="round"/>
<path d="M6.63641 3.81203L6.78308 2.9387C6.88975 2.30536 6.96975 1.83203 8.09641 1.83203H9.84308C10.9697 1.83203 11.0564 2.33203 11.1564 2.94536L11.3031 3.81203" stroke="#FF0000" stroke-linecap="round" stroke-linejoin="round"/>
<path d="M13.5367 6.59375L13.1033 13.3071C13.03 14.3537 12.97 15.1671 11.11 15.1671H6.82999C4.96999 15.1671 4.90999 14.3537 4.83665 13.3071L4.40332 6.59375" stroke="#FF0000" stroke-linecap="round" stroke-linejoin="round"/>
<path d="M7.85645 11.5H10.0764" stroke="#FF0000" stroke-linecap="round" stroke-linejoin="round"/>
<path d="M7.30304 8.83203H10.6364" stroke="#FF0000" stroke-linecap="round" stroke-linejoin="round"/>
</svg>
