<svg width="16" height="16" viewBox="0 0 17 17" fill="none" xmlns="http://www.w3.org/2000/svg">
<path d="M8.30304 1.83203H6.96971C3.63637 1.83203 2.30304 3.16536 2.30304 6.4987V10.4987C2.30304 13.832 3.63637 15.1654 6.96971 15.1654H10.9697C14.303 15.1654 15.6364 13.832 15.6364 10.4987V9.16536" stroke="#F9A319" stroke-linecap="round" stroke-linejoin="round"/>
<path d="M11.663 2.51155L6.40965 7.76488C6.20965 7.96488 6.00965 8.35822 5.96965 8.64488L5.68298 10.6515C5.57631 11.3782 6.08965 11.8849 6.81631 11.7849L8.82298 11.4982C9.10298 11.4582 9.49631 11.2582 9.70298 11.0582L14.9563 5.80488C15.863 4.89822 16.2896 3.84488 14.9563 2.51155C13.623 1.17822 12.5696 1.60488 11.663 2.51155Z" stroke="#F9A319" stroke-miterlimit="10" stroke-linecap="round" stroke-linejoin="round"/>
<path d="M10.9099 3.26562C11.3565 4.85896 12.6032 6.10562 14.2032 6.55896" stroke="#F9A319" stroke-miterlimit="10" stroke-linecap="round" stroke-linejoin="round"/>
</svg>
