<svg width="30" height="28" viewBox="0 0 30 28" fill="none" xmlns="http://www.w3.org/2000/svg">
<path fill-rule="evenodd" clip-rule="evenodd" d="M16.7486 23.8093C20.4637 23.8093 24.1788 23.8061 27.8937 23.8117C29.6381 23.8143 29.2277 22.7492 29.2277 19.6205L29.2288 5.71459C29.2343 4.57305 29.0793 4.19697 27.8938 4.19812C24.1789 4.20199 20.4637 4.20055 16.7486 4.20055C16.7486 3.51672 16.7466 2.83288 16.7498 2.14919C16.7594 0.124885 16.0326 0.558531 12.6926 1.21602L2.2626 3.16914C1.65824 3.28887 1.08855 3.26237 0.8216 3.78094C0.563962 4.28161 0.705455 12.9878 0.705455 14.005C0.705455 14.9765 0.59017 23.6944 0.792815 24.1697C1.03241 24.732 1.55871 24.7058 2.18655 24.8272C3.93116 25.1646 15.627 27.4436 16.0808 27.3306C17.0359 27.0928 16.7486 25.2726 16.7486 23.8093ZM16.7486 7.7661C18.3941 7.7661 20.3026 7.43342 20.3034 8.65702C20.3043 9.88263 18.3877 9.54766 16.7492 9.54766L16.7486 11.3315C18.3825 11.3315 20.3026 10.9967 20.3034 12.2224C20.3043 13.448 18.3877 13.1131 16.7492 13.1131L16.7486 14.8969C18.3825 14.8969 20.3026 14.5621 20.3034 15.7878C20.3043 17.0156 18.3764 16.6785 16.727 16.6785L16.7486 18.4623C18.3825 18.4623 20.3026 18.1275 20.3034 19.3532C20.3043 20.5788 18.3877 20.2439 16.7492 20.2439L16.7486 22.0277H27.5346L27.4461 5.98211H16.7492L16.7486 7.76596V7.7661ZM8.95719 12.3611L8.19272 11.5061C7.29836 10.4621 6.23501 8.88516 5.38619 9.86258C4.69076 10.6634 5.87011 11.543 6.21253 11.973C6.7278 12.62 7.31082 13.1914 7.79402 13.8267C6.96482 15.4108 4.55714 17.1021 5.34352 18.1C6.2585 19.2614 7.34891 17.3987 8.16981 16.2997C8.44606 15.9299 8.76098 15.6029 8.95303 15.2231C9.34715 15.3976 10.4841 16.8752 10.7794 17.2138C11.2943 17.8035 12.1673 19.0625 12.9598 18.148C13.3849 17.6575 13.1461 17.2235 12.8362 16.8499L10.1645 13.8159C10.3883 13.3581 12.1882 11.1226 12.731 10.4314C13.0034 10.0844 13.4519 9.59291 13.0022 9.01806C12.1111 7.87895 11.1278 9.60494 10.7586 10.0642C10.1322 10.8434 9.59305 11.6539 8.95704 12.3611H8.95719Z" fill="#57C9A7"/>
</svg>
