<svg width="13" height="14" viewBox="0 0 13 14" fill="none" xmlns="http://www.w3.org/2000/svg">
<path d="M1 13V12.25C1 11.5606 1.1358 10.8779 1.39963 10.2409C1.66347 9.60395 2.05018 9.0252 2.53769 8.53769C3.0252 8.05018 3.60395 7.66347 4.24091 7.39963C4.87787 7.1358 5.56056 7 6.25 7C6.93944 7 7.62213 7.1358 8.25909 7.39963C8.89605 7.66347 9.4748 8.05018 9.96231 8.53769C10.4498 9.0252 10.8365 9.60395 11.1004 10.2409C11.3642 10.8779 11.5 11.5606 11.5 12.25V13" stroke="#239674" stroke-width="1.5" stroke-linecap="round" stroke-linejoin="round"/>
<path d="M6.25 7C7.04565 7 7.80871 6.68393 8.37132 6.12132C8.93393 5.55871 9.25 4.79565 9.25 4C9.25 3.20435 8.93393 2.44129 8.37132 1.87868C7.80871 1.31607 7.04565 1 6.25 1C5.45435 1 4.69129 1.31607 4.12868 1.87868C3.56607 2.44129 3.25 3.20435 3.25 4C3.25 4.79565 3.56607 5.55871 4.12868 6.12132C4.69129 6.68393 5.45435 7 6.25 7V7Z" stroke="#239674" stroke-width="1.5" stroke-linecap="round" stroke-linejoin="round"/>
</svg>
