<svg width="30" height="30" viewBox="0 0 24 24" fill="none" xmlns="http://www.w3.org/2000/svg">
<path d="M14.4996 2.2998C13.4996 2.2998 12.5996 3.0998 12.5996 4.1998V8.7998C12.5996 9.7998 13.3996 10.6998 14.4996 10.6998C15.4996 10.6998 16.3996 9.8998 16.3996 8.7998V4.0998C16.3996 3.0998 15.5996 2.2998 14.4996 2.2998Z" stroke="#2D3648" stroke-width="0.7" stroke-miterlimit="10" stroke-linecap="round" stroke-linejoin="round"/>
<path d="M18.5996 10.6004H20.1996C21.0996 10.6004 21.7996 9.90039 21.7996 9.00039C21.7996 8.10039 21.0996 7.40039 20.1996 7.40039C19.2996 7.40039 18.5996 8.10039 18.5996 9.00039V10.6004Z" stroke="#2D3648" stroke-width="0.7" stroke-miterlimit="10" stroke-linecap="round" stroke-linejoin="round"/>
<path d="M2 9.1998C2 10.1998 2.8 11.0998 3.9 11.0998H8.5C9.5 11.0998 10.4 10.2998 10.4 9.1998C10.4 8.1998 9.6 7.2998 8.5 7.2998H3.9C2.8 7.3998 2 8.1998 2 9.1998Z" stroke="#2D3648" stroke-width="0.7" stroke-miterlimit="10" stroke-linecap="round" stroke-linejoin="round"/>
<path d="M10.4002 5.1V3.6C10.4002 2.7 9.7002 2 8.8002 2C7.9002 2 7.2002 2.7 7.2002 3.6C7.2002 4.5 7.9002 5.2 8.8002 5.2H10.4002V5.1Z" stroke="#2D3648" stroke-width="0.7" stroke-miterlimit="10" stroke-linecap="round" stroke-linejoin="round"/>
<path d="M9.4 21.8004C10.4 21.8004 11.3 21.0004 11.3 19.9004V15.3004C11.3 14.3004 10.5 13.4004 9.4 13.4004C8.4 13.4004 7.5 14.2004 7.5 15.3004V19.9004C7.6 20.9004 8.4 21.8004 9.4 21.8004Z" stroke="#2D3648" stroke-width="0.7" stroke-miterlimit="10" stroke-linecap="round" stroke-linejoin="round"/>
<path d="M5.4002 13.4004H3.8002C2.9002 13.4004 2.2002 14.1004 2.2002 15.0004C2.2002 15.9004 2.9002 16.6004 3.8002 16.6004C4.7002 16.6004 5.4002 15.9004 5.4002 15.0004V13.4004Z" stroke="#2D3648" stroke-width="0.7" stroke-miterlimit="10" stroke-linecap="round" stroke-linejoin="round"/>
<path d="M21.9996 14.8004C21.9996 13.8004 21.1996 12.9004 20.0996 12.9004H15.4996C14.4996 12.9004 13.5996 13.7004 13.5996 14.8004C13.5996 15.8004 14.3996 16.7004 15.4996 16.7004H20.0996C21.0996 16.7004 21.9996 15.8004 21.9996 14.8004Z" stroke="#2D3648" stroke-width="0.7" stroke-miterlimit="10" stroke-linecap="round" stroke-linejoin="round"/>
<path d="M13.5996 18.7998V20.3998C13.5996 21.2998 14.2996 21.9998 15.1996 21.9998C16.0996 21.9998 16.7996 21.2998 16.7996 20.3998C16.7996 19.4998 16.0996 18.7998 15.1996 18.7998H13.5996Z" stroke="#2D3648" stroke-width="0.7" stroke-miterlimit="10" stroke-linecap="round" stroke-linejoin="round"/>
</svg>
