<svg width="30" height="30" viewBox="0 0 40 40" fill="none" xmlns="http://www.w3.org/2000/svg">
<circle cx="20" cy="20" r="20" transform="matrix(1 0 0 -1 0 40)" fill="#57C9A7"/>
<g clip-path="url(#clip0_1007_1126)">
<path d="M21.753 10.752C20.7942 10.752 20.0146 11.6422 20.0146 12.7373V16.8684C20.0146 17.9635 20.7942 18.8538 21.753 18.8538C22.7118 18.8538 23.4913 17.9635 23.4913 16.8684V12.7373C23.4913 11.6512 22.7118 10.752 21.753 10.752Z" fill="white"/>
<path d="M27.5427 16.5391C26.5864 16.5391 25.8088 17.0568 25.8088 17.6935V18.6277C25.8088 18.7527 25.9608 18.8539 26.1484 18.8539H27.5516C28.5079 18.8539 29.2855 18.3362 29.2855 17.6994C29.2855 17.0627 28.499 16.5391 27.5427 16.5391Z" fill="white"/>
<path d="M16.8679 15.3828H12.7316C11.6351 15.3828 10.7437 16.4209 10.7437 17.6976C10.7437 18.9744 11.6351 20.0124 12.7316 20.0124H16.8679C17.9643 20.0124 18.8558 18.9744 18.8558 17.6976C18.8558 16.4209 17.9643 15.3828 16.8679 15.3828Z" fill="white"/>
<path d="M17.113 10.752C16.1567 10.752 15.3792 11.5305 15.3792 12.4881C15.3792 13.4456 16.1567 14.2242 17.113 14.2242H18.5161C18.7038 14.2242 18.8558 14.072 18.8558 13.8841V12.4791C18.8468 11.5395 18.0693 10.752 17.113 10.752Z" fill="white"/>
<path d="M18.2761 21.1699C17.3173 21.1699 16.5378 22.0602 16.5378 23.1553V27.2864C16.5378 28.3815 17.3173 29.2718 18.2761 29.2718C19.2349 29.2718 20.0145 28.3815 20.0145 27.2864V23.1553C20.0145 22.0602 19.2349 21.1699 18.2761 21.1699Z" fill="white"/>
<path d="M13.8887 21.1699H12.482C11.5232 21.1699 10.7437 21.689 10.7437 22.3273C10.7437 22.9657 11.5232 23.4847 12.482 23.4847C13.4407 23.4847 14.2203 22.9657 14.2203 22.3273V21.3907C14.2203 21.2713 14.068 21.1699 13.8887 21.1699Z" fill="white"/>
<path d="M27.2975 20.0117H23.1613C22.0648 20.0117 21.1733 21.0497 21.1733 22.3265C21.1733 23.6033 22.0648 24.6413 23.1613 24.6413H27.2975C28.394 24.6413 29.2855 23.6033 29.2855 22.3265C29.2855 21.0497 28.394 20.0117 27.2975 20.0117Z" fill="white"/>
<path d="M22.9206 25.7988H21.5138C21.3257 25.7988 21.1733 25.9506 21.1733 26.138V27.5394C21.1733 28.4945 21.9529 29.2711 22.9116 29.2711C23.8703 29.2711 24.6499 28.4945 24.6499 27.5394C24.6588 26.5754 23.8793 25.7988 22.9206 25.7988Z" fill="white"/>
</g>
<defs>
<clipPath id="clip0_1007_1126">
<rect width="20" height="20.0031" fill="white" transform="translate(10 10)"/>
</clipPath>
</defs>
</svg>
