<svg width="30" height="30" viewBox="0 0 26 24" fill="none" xmlns="http://www.w3.org/2000/svg">
<path fill-rule="evenodd" clip-rule="evenodd" d="M21.8702 10.2684C23.6229 10.4163 25 11.8845 25 13.677C25 15.4923 23.583 16.9776 21.7962 17.0885C20.3906 20.7134 16.8682 23.2827 12.7482 23.2827C8.59692 23.2827 5.05738 20.6764 3.66888 17.0117C2.14096 16.6703 1 15.3045 1 13.6742C1 12.0723 2.10397 10.7265 3.59206 10.3566C4.92081 6.58087 8.51725 3.875 12.7482 3.875C16.945 3.875 20.5187 6.53819 21.873 10.2684H21.8702Z" stroke="#2D3648" stroke-width="0.7" stroke-miterlimit="22.9256" stroke-linecap="round" stroke-linejoin="round"/>
<path d="M9.57887 13.1607C10.165 13.1607 10.6402 12.6855 10.6402 12.0994C10.6402 11.5132 10.165 11.0381 9.57887 11.0381C8.99273 11.0381 8.51758 11.5132 8.51758 12.0994C8.51758 12.6855 8.99273 13.1607 9.57887 13.1607Z" fill="#2D3648"/>
<path d="M16.4412 13.1607C17.0273 13.1607 17.5025 12.6855 17.5025 12.0994C17.5025 11.5132 17.0273 11.0381 16.4412 11.0381C15.855 11.0381 15.3799 11.5132 15.3799 12.0994C15.3799 12.6855 15.855 13.1607 16.4412 13.1607Z" fill="#2D3648"/>
<path fill-rule="evenodd" clip-rule="evenodd" d="M13.0524 14.0967C15.0413 14.0967 16.6517 15.7071 16.6517 17.696C16.6517 19.6848 15.0413 21.2953 13.0524 21.2953C11.0636 21.2953 9.45312 19.6848 9.45312 17.696C9.45312 15.7071 11.0636 14.0967 13.0524 14.0967Z" stroke="#2D3648" stroke-width="0.7" stroke-miterlimit="22.9256" stroke-linecap="round" stroke-linejoin="round"/>
<path d="M3.99026 15.0812C3.37283 14.8365 2.9375 14.2674 2.9375 13.6016C2.9375 12.9358 3.36998 12.3668 3.99026 12.1221" stroke="#2D3648" stroke-width="0.7" stroke-miterlimit="22.9256" stroke-linecap="round" stroke-linejoin="round"/>
<path d="M21.9775 15.0812C22.595 14.8365 23.0303 14.2674 23.0303 13.6016C23.0303 12.9358 22.5978 12.3668 21.9775 12.1221" stroke="#2D3648" stroke-width="0.7" stroke-miterlimit="22.9256" stroke-linecap="round" stroke-linejoin="round"/>
<path d="M11.5283 3.96887C12.1457 3.72417 12.5811 3.15511 12.5811 2.48932C12.5811 1.82352 12.1486 1.25446 11.5283 1.00977" stroke="#2D3648" stroke-width="0.7" stroke-miterlimit="22.9256" stroke-linecap="round" stroke-linejoin="round"/>
<path d="M14.0059 3.9591C14.6233 3.7144 15.0586 3.14535 15.0586 2.47955C15.0586 1.81375 14.6261 1.24469 14.0059 1" stroke="#2D3648" stroke-width="0.7" stroke-miterlimit="22.9256" stroke-linecap="round" stroke-linejoin="round"/>
<path d="M11.5498 13.2764C11.7945 12.659 12.3636 12.2236 13.0294 12.2236C13.6952 12.2236 14.2642 12.6561 14.5089 13.2764" stroke="#2D3648" stroke-width="0.7" stroke-miterlimit="22.9256" stroke-linecap="round" stroke-linejoin="round"/>
<path d="M13.5229 16.4258C14.1574 16.6534 14.6155 17.322 14.6155 18.1073C14.6155 19.0833 13.9098 19.8743 13.0392 19.8743C12.1685 19.8743 11.4629 19.0833 11.4629 18.1073C11.4629 17.3363 11.9039 16.6819 12.5185 16.44" stroke="#2D3648" stroke-width="0.7" stroke-miterlimit="22.9256" stroke-linecap="round" stroke-linejoin="round"/>
</svg>
