<?xml version="1.0" encoding="UTF-8"?>
<svg version="1.1" viewBox="0 0 1216 1600" width="1280" height="1280" xmlns="http://www.w3.org/2000/svg">
<path transform="translate(905 362)" d="m0 0c1.16-0.00251 1.16-0.00251 2.35-0.00507 18.7-0.00239 37.3 1.29 55.6 5.26 0.722 0.15 1.44 0.299 2.19 0.453 20 4.15 38.8 10.1 57.2 18.9 3.04 1.44 6.11 2.83 9.19 4.19 15.7 7.12 30.7 16.1 44.4 26.5 1 0.736 2.01 1.47 3.04 2.23 12.8 9.51 24.1 20.8 35.4 32 1.24 1.22 1.24 1.22 2.51 2.47 5.46 5.45 10.3 11.2 15.1 17.3 1.01 1.26 1.01 1.26 2.05 2.55 12.6 15.7 22.7 32.6 32 50.4 0.461 0.859 0.923 1.72 1.4 2.6 3.62 6.89 6.22 14.1 8.88 21.4 1.45 3.95 2.98 7.87 4.5 11.8 0.851 2.2 1.7 4.41 2.54 6.62 2.54 6.71 2.54 6.71 5.37 13.3 1.35 3.35 2.07 6.54 2.78 10.1 0.529 2.45 0.529 2.45 2.03 5.62 1.58 3.76 2.31 7.23 2.97 11.2 0.42 2.32 0.42 2.32 1.5 4.2 1.08 2.25 1.57 4.21 2.03 6.66 0.165 0.858 0.33 1.72 0.5 2.6 0.165 0.889 0.33 1.78 0.5 2.69 1.1 5.83 2.28 11.5 4 17.2 1.6 5.64 2.36 10.9 2.75 16.8 0.00849 2.19 0.00849 2.19 1.25 3.22 0.209 1.62 0.368 3.25 0.5 4.88 0.243 2.97 0.55 5.28 1.5 8.12 0.181 2.71 0.324 5.41 0.438 8.12 0.265 5.45 0.751 10.5 2.15 15.8 0.789 3.98 0.562 8.03 0.41 12.1h1v58h-2c0.0954 0.797 0.191 1.59 0.289 2.41 0.111 1.06 0.222 2.12 0.336 3.21 0.116 1.04 0.232 2.09 0.352 3.16 0.0234 3.21 0.0234 3.21-0.891 5.92-1.55 4.7-1.73 9.37-2.09 14.3-0.875 11-1.91 21.9-4.5 32.7-0.836 3.83-1.37 7.71-1.94 11.6-0.562 2.7-0.562 2.7-1.54 4.58-1.78 3.67-2.14 7.76-2.79 11.8-0.975 5.61-2.54 10.9-4.23 16.4-0.491 1.65-0.98 3.31-1.46 4.96-2.6 8.78-5.26 17.5-8.54 26-0.469 1.26-0.936 2.53-1.4 3.79-3.81 10.3-7.66 20.6-12.7 30.4-0.846 1.69-1.59 3.42-2.33 5.16-3.42 7.94-7.55 15.5-11.6 23.2-0.415 0.791-0.83 1.58-1.26 2.4-3.91 7.43-7.84 14.8-12.4 21.9-1.95 3-3.78 5.95-5.31 9.19h-2c-0.268 0.969-0.536 1.94-0.812 2.94-0.588 1.52-0.588 1.52-1.19 3.06-0.99 0.33-1.98 0.66-3 1-1.17 2.93-1.17 2.93-2 6-0.33 0.66-0.66 1.32-1 2h-2c-0.25 0.713-0.5 1.43-0.758 2.16-1.37 3.13-3.07 5.55-5.12 8.28-3.28 4.4-3.28 4.4-6.38 8.94-1.79 2.68-3.62 5.21-5.75 7.62h-2c-0.186 0.681-0.371 1.36-0.562 2.06-1.68 3.43-3.76 5.42-6.49 8.04-2.01 1.96-3.89 3.99-5.76 6.09-0.563 0.633-1.13 1.27-1.71 1.92-1.48 1.89-2.42 3.75-3.48 5.89-1.64 1.69-3.31 3.35-5 5-0.906 1.1-1.8 2.2-2.69 3.31-0.763 0.887-1.53 1.77-2.31 2.69h-2c-0.186 0.681-0.371 1.36-0.562 2.06-1.71 3.49-3.9 5.51-6.69 8.16-1.63 1.66-2.83 3.25-4.06 5.22-0.557 0.846-1.11 1.69-1.69 2.56h-2c-0.33 0.99-0.66 1.98-1 3h-2c-0.262 0.568-0.523 1.14-0.793 1.72-3.28 6.19-8.22 11.4-13.2 16.3-0.557 0.763-1.11 1.53-1.69 2.31-0.433 0.557-0.866 1.11-1.31 1.69h-2c-0.369 0.849-0.369 0.849-0.746 1.71-1.47 2.68-3.23 4.62-5.32 6.85-3.27 3.56-6.4 7.18-9.44 10.9-3.62 4.48-7.42 8.76-11.3 13-2.94 3.33-5.67 6.81-8.41 10.3-2.1 2.57-4.44 4.84-6.79 7.19-0.495 0.825-0.99 1.65-1.5 2.5-1.8 2.99-4.01 5.06-6.5 7.5-0.906 1.1-1.8 2.2-2.69 3.31-0.763 0.887-1.53 1.77-2.31 2.69h-2c-0.244 0.552-0.487 1.1-0.738 1.67-1.53 2.82-3.4 5.11-5.45 7.58-0.81 0.976-1.62 1.95-2.45 2.96-2.45 2.9-4.94 5.76-7.46 8.6-1.53 1.76-3.01 3.54-4.48 5.35-0.451 0.551-0.901 1.1-1.37 1.67-0.896 1.1-1.79 2.2-2.67 3.31-1.08 1.32-2.22 2.6-3.38 3.86h-2c-0.268 0.804-0.536 1.61-0.812 2.44-0.392 0.846-0.784 1.69-1.19 2.56-0.99 0.33-1.98 0.66-3 1-0.704 1.31-1.36 2.65-2 4-2.9 3.86-6.13 7.45-9.32 11.1-1.38 1.6-2.7 3.26-3.99 4.94-0.557 0.66-1.11 1.32-1.69 2h-2c-0.227 0.722-0.454 1.44-0.688 2.19-1.59 3.4-3.6 5.22-6.31 7.81-1.58 1.86-3.13 3.74-4.67 5.64-0.44 0.447-0.879 0.895-1.33 1.36h-2l-0.781 1.7c-1.36 2.56-2.95 4.75-4.72 7.05-0.608 0.799-1.22 1.6-1.84 2.42-0.547 0.603-1.09 1.21-1.66 1.83h-2c-0.66 1.65-1.32 3.3-2 5h-2c-0.402 0.959-0.402 0.959-0.812 1.94-1.19 2.06-1.19 2.06-4.19 3.06-0.682 1.66-1.35 3.33-2 5-1.85 2.29-1.85 2.29-4.06 4.62-4.15 4.48-8.04 9.1-11.9 13.8-3.78 4.65-7.73 9.15-11.7 13.7-1.89 2.15-3.72 4.31-5.5 6.56-1.88 2.31-1.88 2.31-4.2 4.6-3.51 3.56-6.51 7.45-9.59 11.4-2.09 2.33-2.09 2.33-5.09 3.33-1.11 1.88-1.11 1.88-2 4-0.66 0.99-1.32 1.98-2 3h-2c-0.272 0.579-0.544 1.16-0.824 1.75-1.17 2.24-2.47 4.16-3.99 6.18-0.481 0.648-0.962 1.3-1.46 1.96-1.73 2.1-1.73 2.1-4.1 4.46-2.8 2.81-5.35 5.77-7.88 8.82-4.18 5-8.47 9.89-12.9 14.7-1.91 2.09-1.91 2.09-3.5 4.4-0.454 0.568-0.908 1.14-1.38 1.72h-2c-0.237 0.715-0.474 1.43-0.719 2.17-1.49 3.29-3.35 5.48-5.78 8.14-1.19 1.32-1.19 1.32-2.41 2.68-2.09 2.01-2.09 2.01-4.09 2.01-0.66 1.65-1.32 3.3-2 5h-2c-0.371 0.835-0.371 0.835-0.75 1.69-1.48 2.74-3.18 4.99-5.25 7.31h-2c-0.34 1.06-0.34 1.06-0.688 2.15-1.6 3.47-3.69 5.71-6.31 8.48-2.58 2.74-4.91 5.24-7 8.38h-2c-0.268 0.784-0.536 1.57-0.812 2.38-1.19 2.62-1.19 2.62-4.19 4.62-0.433 0.897-0.433 0.897-0.875 1.81-2.07 4.02-4.85 6.76-9.12 8.19-1.22 2.5-1.22 2.5-2 5h-2c-0.21 0.521-0.42 1.04-0.637 1.58-1.95 3.46-4.54 6.22-7.18 9.17-5.43 6.16-10.7 12.5-15.8 18.9-2.95 3.68-6.02 7.06-9.4 10.4-0.722 0.928-1.44 1.86-2.19 2.81-0.897 1.08-0.897 1.08-1.81 2.19h-2c-0.247 0.742-0.495 1.48-0.75 2.25-1.35 2.98-2.88 4.53-5.25 6.75-0.66 0.99-1.32 1.98-2 3h-2c-0.402 0.959-0.402 0.959-0.812 1.94-1.19 2.06-1.19 2.06-4.19 3.06-0.433 1.08-0.433 1.08-0.875 2.19-1.42 3.54-3.63 6.01-6.12 8.81-0.563 0.655-1.13 1.31-1.71 1.98-2.46 2.85-4.89 5.63-7.59 8.24-4.06 4.17-7.56 8.76-11.1 13.3-0.558 0.699-1.12 1.4-1.69 2.12-0.502 0.638-1 1.28-1.52 1.93-0.443 0.459-0.885 0.917-1.34 1.39h-2c-0.274 0.59-0.548 1.18-0.83 1.79-1.87 3.54-4.51 6.38-7.11 9.4-0.807 0.962-0.807 0.962-1.63 1.94-0.523 0.61-1.05 1.22-1.58 1.85-0.474 0.556-0.949 1.11-1.44 1.68-1.41 1.34-1.41 1.34-4.41 2.34-0.733 2.02-0.733 2.02-1 4-1.12-8.56-1.14-17.1-1.13-25.7-0.00115-1.59-0.00274-3.17-0.00473-4.76-0.00416-4.34-0.00212-8.67 9.86e-4 -13 0.00227-4.68-0.00123-9.37-0.00398-14.1-0.00444-9.17-0.00349-18.3-5.87e-4 -27.5 0.00226-7.45 0.00256-14.9 0.00148-22.3-1.53e-4 -1.06-3.06e-4 -2.12-4.64e-4 -3.21-3.2e-4 -2.15-6.44e-4 -4.31-9.73e-4 -6.46-0.00285-20.2 4.25e-4 -40.4 0.0058-60.6 0.00447-17.3 0.00369-34.7-9.19e-4 -52-0.00535-20.1-0.00746-40.3-0.00439-60.4 3.19e-4 -2.14 6.33e-4 -4.29 9.43e-4 -6.43 1.54e-4 -1.06 3.09e-4 -2.11 4.68e-4 -3.2 8.64e-4 -7.44-5.96e-4 -14.9-0.00295-22.3-0.0028-9.06-0.00205-18.1 0.00328-27.2 0.00263-4.63 0.00365-9.25 3.51e-4 -13.9-0.00297-4.23-0.00136-8.46 0.00398-12.7 0.00112-1.53 5.4e-4 -3.07-0.00188-4.6-0.00302-2.08 6.05e-5 -4.16 0.00472-6.24 1.62e-4 -1.16 3.25e-4 -2.31 4.92e-4 -3.5 0.107-2.52 0.458-4.53 1.13-6.94 0.0294-3.21-0.0652-6.41-0.16-9.61 0.177-3.74 1.13-6.79 2.16-10.4 0.573-4.09 0.874-8.21 1.21-12.3 0.0748-0.816 0.15-1.63 0.227-2.47 0.0606-0.736 0.121-1.47 0.184-2.23 0.379-1.97 0.379-1.97 2.38-4.97 0.499-2.46 0.927-4.9 1.31-7.38 1.14-6.73 2.96-12.6 5.6-19 0.913-2.25 1.52-4.33 2.09-6.67 1.24-3.37 2.64-6.68 4-10 0.349-0.875 0.699-1.75 1.06-2.65 5.34-13.2 11.2-26.4 18.9-38.3 0.495-0.817 0.99-1.63 1.5-2.48 11.2-18.3 25.3-35.4 40.5-50.5 0.598-0.784 1.2-1.57 1.81-2.38 3.04-3.65 6.56-6.56 10.2-9.62 1.02-0.882 2.04-1.76 3.06-2.65 6.4-5.52 12.9-10.7 19.9-15.4 0.701-0.476 1.4-0.951 2.12-1.44 2.28-1.54 4.58-3.05 6.88-4.56 0.969-0.656 1.94-1.31 2.94-1.99 17.8-11.8 36.9-21 57.1-28 2.38-0.854 4.75-1.71 7.12-2.56 2.29-0.821 4.58-1.63 6.88-2.44 0.664-0.246 1.33-0.492 2.01-0.745 6.2-2.21 12.4-3.35 18.9-4.38 2.05-0.333 4.1-0.669 6.15-1.01 0.896-0.143 1.79-0.286 2.71-0.434 2.23-0.338 2.23-0.338 4.2-1.43 1.37-0.217 2.75-0.389 4.13-0.535 1.21-0.131 1.21-0.131 2.44-0.264 1.26-0.131 1.26-0.131 2.55-0.264 0.849-0.0909 1.7-0.182 2.57-0.275 2.1-0.224 4.2-0.444 6.3-0.662-1.65-0.33-3.3-0.66-5-1v-1c-0.75-0.105-1.5-0.211-2.27-0.32-3.47-0.492-6.94-0.992-10.4-1.49-1.18-0.166-2.36-0.331-3.57-0.502-7.07-1.03-14-2.33-20.9-4.01-2.51-0.606-5.02-1.16-7.55-1.68-3.75-0.826-7.32-1.96-10.9-3.22-2.36-0.794-4.73-1.48-7.12-2.15-5.92-1.76-11.5-4.18-17.2-6.62-1.74-0.733-1.74-0.733-3.52-1.48-8.77-3.7-17.3-7.55-25.5-12.5-0.897-0.436-1.79-0.871-2.72-1.32-3.48-1.78-6.76-3.8-10-5.93-0.612-0.397-1.22-0.794-1.85-1.2-8.83-5.76-17.2-11.9-25.4-18.5-0.956-0.77-1.91-1.54-2.9-2.33-0.962-0.777-1.92-1.55-2.91-2.36-0.873-0.705-1.75-1.41-2.64-2.14-2.65-2.27-5.08-4.7-7.54-7.18-0.763-0.557-1.53-1.11-2.31-1.69-0.557-0.433-1.11-0.866-1.69-1.31v-2l-1.69-0.688c-2.97-1.69-4.96-3.84-7.31-6.31-0.761-0.746-1.52-1.49-2.3-2.26-2.93-2.98-5.67-6.06-8.38-9.24-0.522-0.611-1.04-1.22-1.58-1.85-10.6-12.4-20.1-25.6-28.7-39.5-0.378-0.606-0.756-1.21-1.14-1.84-2.43-4.05-3.81-7.75-4.92-12.3h-2c-0.688-1.58-0.688-1.58-1.39-3.18-1.87-4.27-3.74-8.55-5.61-12.8-0.412-0.942-0.825-1.88-1.25-2.86-1.37-3.1-2.75-6.14-4.31-9.14-3.44-7.18-5.36-15-7.5-22.7-0.51-1.82-1.02-3.63-1.54-5.45-0.362-1.28-0.362-1.28-0.731-2.59-0.516-1.75-1.11-3.47-1.73-5.19-1.47-4.83-2.15-9.79-2.94-14.8-0.333-2.07-0.666-4.13-1-6.2-0.164-1.03-0.327-2.05-0.496-3.11-0.471-2.81-1.01-5.6-1.57-8.4-2.12-11.6-2.14-23.5-2.12-35.3 2.72e-4 -0.707 5.44e-4 -1.41 8.24e-4 -2.14 0.0176-10 0.301-20 0.999-30 0.105-1.6 0.105-1.6 0.212-3.23 0.481-6.04 1.54-11.6 3.25-17.4 0.971-3.35 1.63-6.7 2.29-10.1l0.754-3.86c0.226-1.16 0.451-2.32 0.684-3.52 1.02-5.18 2.27-9.99 4.21-14.9 0.876-2.34 1.59-4.7 2.29-7.1 1.3-4.43 2.83-8.7 4.5-13 0.394-1.06 0.789-2.12 1.2-3.21 0.431-1.15 0.861-2.29 1.3-3.48 0.402-1.08 0.804-2.15 1.22-3.26 1.21-2.89 2.66-5.38 4.28-8.05 0.639-1.53 1.24-3.07 1.81-4.62 3.64-9.33 8.93-17.9 14.2-26.4 1.02-1.66 1.02-1.66 2.06-3.35 4.29-6.87 8.8-13.2 14.1-19.3 1.66-2.07 2.68-3.95 3.85-6.3 0.966-1.03 1.97-2.03 3-3 3.33-3.7 6.58-7.47 9.75-11.3 3.52-4.21 3.52-4.21 5.25-5.69h2c0.227-0.557 0.454-1.11 0.688-1.69 2.89-5.1 7.85-8.72 12.2-12.5 1.28-1.11 2.55-2.24 3.8-3.38 4.58-4.16 9.45-7.89 14.4-11.6 0.681-0.511 1.36-1.02 2.06-1.55 24.8-18.5 52.2-33.1 81.7-42.6 1.35-0.438 2.69-0.888 4.03-1.35 16.1-5.57 33-9.75 50-11.1 3.05-0.0875 3.05-0.0875 5.15-1.29 10.3-1.19 20.7-1.24 31.1-1.25zm-285 247 1 3zm265 331c-0.33 0.66-0.66 1.32-1 2h2c-0.33-0.66-0.66-1.32-1-2zm2 0v2c0.66-0.33 1.32-0.66 2-1-0.66-0.33-1.32-0.66-2-1zm-252 222 1 2zm-4 26v5h1v-5h-1zm-1 17 1 2z" fill="#51CBA4"/>
<path transform="translate(306 362)" d="m0 0c2.22 0.00534 4.45 2.58e-5 6.67-0.00635 7.59-0.00397 15.2 0.161 22.7 0.582 1.09 0.0581 1.09 0.0581 2.2 0.117 5.07 0.313 5.07 0.313 7.32 1.44 1.67 0.265 3.34 0.486 5.02 0.684 1 0.123 2.01 0.246 3.04 0.373 2.11 0.252 4.22 0.502 6.34 0.75 5.13 0.633 9.73 1.43 14.6 3.19 1.51 0.366 3.03 0.711 4.55 1.04 13.3 2.91 25.5 7.07 38 12.5 2.47 1.05 4.92 2.01 7.44 2.93 4.1 1.52 7.97 3.38 11.9 5.36 0.697 0.353 1.39 0.707 2.11 1.07 2.03 1.03 4.05 2.07 6.07 3.12 1.48 0.762 1.48 0.762 2.99 1.54 12.5 6.64 24 14.7 35.3 23.2 1.53 1.15 3.08 2.3 4.62 3.44 0.822 0.62 1.64 1.24 2.49 1.88 0.7 0.527 1.4 1.05 2.12 1.6 0.476 0.442 0.951 0.884 1.44 1.34v2c0.538 0.219 1.08 0.438 1.63 0.664 3.18 1.79 5.68 4.21 8.31 6.71 1.03 0.968 2.06 1.93 3.09 2.9 0.495 0.464 0.99 0.927 1.5 1.41 1.39 1.25 2.87 2.4 4.35 3.55 0.7 0.585 1.4 1.17 2.12 1.77v2h2v2c0.99 0.33 1.98 0.66 3 1 1.5 1.65 2.93 3.37 4.31 5.12 3.73 4.69 3.73 4.69 7.62 9.25 2.89 3.35 5.6 6.82 8.31 10.3 0.437 0.559 0.874 1.12 1.32 1.69 2.14 2.78 3.87 5.49 5.43 8.62 0.456 0.451 0.913 0.902 1.38 1.37 6.23 6.29 10.4 15.9 14.6 23.6 0.505 0.929 0.505 0.929 1.02 1.88 8.28 15.2 8.28 15.2 11.1 22.8 1 2.59 2.19 5.05 3.39 7.55 2.51 5.41 4.09 10.9 5.61 16.7 0.755 2.94 0.755 2.94 1.88 5.01 1.5 3.05 2.24 6.28 3.08 9.56 0.173 0.664 0.347 1.33 0.525 2.01 0.476 1.83 0.944 3.66 1.41 5.49 0.165 0.607 0.33 1.21 0.5 1.84 0.633 2.73 1.01 5.47 1.4 8.25 0.252 1.77 0.252 1.77 0.51 3.57 0.349 2.47 0.695 4.94 1.04 7.41 0.17 1.18 0.339 2.36 0.514 3.58 0.151 1.07 0.301 2.15 0.457 3.26 0.491 3.09 0.491 3.09 1.6 5.91 1.01 3.28 1.23 5.84 1.22 9.25 0.00308 1.17 0.00615 2.35 0.00932 3.56-0.00719 1.25-0.0144 2.51-0.0218 3.8-6.87e-4 1.94-6.87e-4 1.94-0.00139 3.93-0.00156 2.73-0.0098 5.47-0.0233 8.2-0.0171 3.51-0.0208 7.01-0.0201 10.5-3.37e-4 3.35-0.00917 6.69-0.0178 10-0.00111 1.26-0.00223 2.52-0.00337 3.82-0.00638 1.16-0.0128 2.32-0.0193 3.52-0.00381 1.03-0.00762 2.05-0.0116 3.11-0.134 2.44-0.134 2.44-1.13 4.44-0.206 1.33-0.366 2.66-0.5 4-0.0819 0.801-0.164 1.6-0.248 2.43-0.125 1.27-0.125 1.27-0.252 2.57-0.0883 0.86-0.177 1.72-0.268 2.61-0.366 3.59-0.714 7.18-1.01 10.8-0.0722 0.866-0.144 1.73-0.219 2.62-0.0516 0.722-0.103 1.44-0.156 2.19-0.344 1.81-0.344 1.81-2.34 4.81-0.475 2.16-0.881 4.34-1.25 6.52-1.56 8.49-4.16 16.6-6.94 24.7-0.821 2.42-1.63 4.84-2.43 7.26-0.522 1.56-1.05 3.11-1.57 4.67-0.238 0.715-0.475 1.43-0.72 2.17-1.33 3.88-2.92 7.21-5.09 10.7-0.725 1.94-1.45 3.88-2.15 5.83-1.53 3.91-3.5 7.59-5.47 11.3-0.657 1.24-0.657 1.24-1.33 2.51-5.49 10.2-11.8 19.8-18.6 29.3-1.16 1.65-2.26 3.33-3.35 5.03-7.91 11.4-17.6 21.7-27.5 31.4-1.77 1.81-3.4 3.71-5.04 5.64-3.49 4.04-7.25 7.83-11.6 11h-2c-0.33 0.99-0.66 1.98-1 3-1.96 1.39-3.96 2.72-6 4-1.11 0.866-1.11 0.866-2.25 1.75-1.75 1.25-1.75 1.25-3.75 1.25-0.33 0.99-0.66 1.98-1 3-1.34 0.961-2.69 1.91-4.09 2.78-2.22 1.41-4.34 2.94-6.48 4.47-10.4 7.26-21.1 13.3-32.5 18.8-1.95 0.952-3.88 1.94-5.81 2.92-4.39 2.2-8.88 4.12-13.4 6.02-0.778 0.33-1.56 0.66-2.36 1-9.74 4.09-19.5 7.51-29.8 10.1-1.01 0.26-2.01 0.52-3.05 0.788-5.87 1.49-11.7 2.84-17.7 3.67-2.45 0.37-4.84 0.834-7.27 1.34-6.35 1.29-12.7 2.25-19.2 3.21-1.79 0.273-1.79 0.273-3.62 0.551-2.92 0.443-5.84 0.885-8.75 1.32 1.04 0.049 2.08 0.098 3.15 0.148 7.8 0.404 15.2 1.12 22.9 2.85 1.75 0.32 3.5 0.632 5.25 0.938 11.1 2.03 22 4.49 32.8 8.06 0.843 0.275 1.69 0.549 2.55 0.833 12.7 4.17 24.6 8.87 36.4 15.2 2.12 1.05 4.25 2.09 6.38 3.12 8.62 4.31 16.7 9.41 24.6 14.9 1.05 0.719 2.1 1.44 3.18 2.18 8.21 5.7 15.8 11.9 23.3 18.5 1.42 1.22 2.91 2.37 4.4 3.51l2.1 1.77v2l1.79 0.832c6.24 3.3 10.8 8.77 15.2 14.2 0.761 0.908 1.52 1.82 2.3 2.75 6.47 7.77 6.47 7.77 7.77 10.5 0.86 2.09 0.86 2.09 3.92 2.73 1.67 2.12 3.19 4.21 4.69 6.44 0.416 0.599 0.831 1.2 1.26 1.81 3.05 4.48 3.05 4.48 3.05 6.75h2c1.16 1.77 2.23 3.59 3.25 5.44 2.1 3.72 4.22 7.33 6.69 10.8 17.2 25.5 29.7 60.5 33.6 90.8 0.417 2.95 0.417 2.95 1.51 5.82 1.11 3.49 1.36 6.61 1.54 10.3 0.248 4.99 0.248 4.99 1.44 9.81 0.0981 2.22 0.134 4.45 0.139 6.68 0.00284 0.686 0.00568 1.37 0.00861 2.08 0.00837 2.31 0.00962 4.63 0.0109 6.94 0.00456 1.67 0.00956 3.34 0.015 5.01 0.0136 4.6 0.021 9.2 0.0274 13.8 0.00799 4.96 0.0217 9.91 0.0347 14.9 0.0218 8.59 0.0399 17.2 0.0556 25.8 0.0227 12.4 0.0508 24.8 0.0803 37.3 0.0477 20.1 0.091 40.3 0.131 60.4 0.0393 19.6 0.0808 39.1 0.125 58.7 0.00272 1.21 0.00545 2.41 0.00826 3.65 0.0137 6.05 0.0274 12.1 0.0411 18.1 0.114 50.2 0.221 100 0.323 151-0.622-0.787-1.24-1.57-1.89-2.38-1.83-2.27-3.69-4.23-5.8-6.24-3.95-3.9-7.42-8.06-10.9-12.4-6.56-8.12-13.4-16-20.4-23.7-8.78-9.69-17.3-19.6-25.5-29.8-3.3-4.08-6.78-7.93-10.4-11.8-4.11-4.37-7.92-8.86-11.6-13.6-5.31-6.94-11.2-13.3-17.2-19.6-2.89-3.07-5.65-6.26-8.38-9.47-0.84-0.985-1.68-1.97-2.55-2.98-5.18-6.09-10.3-12.2-15.3-18.4-2.8-3.37-5.74-6.6-8.71-9.8-1.43-1.78-1.43-1.78-1.43-3.78-0.574-0.227-1.15-0.454-1.74-0.688-2.89-1.68-4.4-3.68-6.45-6.31-3-3.78-6.06-7.44-9.31-11-3.99-4.38-7.76-8.9-11.5-13.5-1.66-2.05-3.36-4.05-5.08-6.05-1.94-2.44-1.94-2.44-1.94-4.44-0.99-0.33-1.98-0.66-3-1-1.4-1.55-2.72-3.17-4-4.81-3.36-4.22-6.82-8.25-10.5-12.2-4.31-4.63-8.35-9.42-12.3-14.4-2.16-2.62-4.39-5.14-6.68-7.65-3.96-4.34-7.68-8.84-11.4-13.4-2.95-3.61-6.03-7.11-9.12-10.6-4.91-5.57-9.75-11.2-14.6-16.9-2.75-3.21-5.51-6.41-8.29-9.59-0.525-0.599-1.05-1.2-1.59-1.82-1.09-1.24-2.19-2.48-3.29-3.71-0.833-0.946-0.833-0.946-1.68-1.91-0.494-0.554-0.987-1.11-1.5-1.68-1.07-1.45-1.07-1.45-1.07-3.45-0.99-0.33-1.98-0.66-3-1-1.84-2.01-1.84-2.01-3.94-4.69-3.61-4.53-7.29-8.98-11.1-13.4-0.511-0.595-1.02-1.19-1.55-1.8-3.02-3.51-6.09-6.96-9.2-10.4-2.86-3.14-5.56-6.35-8.19-9.69-4.42-5.61-9.23-10.8-14.1-16.1-4.02-4.42-7.82-9-11.6-13.7-6.22-7.73-12.7-15.1-19.4-22.3-5.7-6.34-11.2-12.9-16.7-19.4-0.918-1.09-1.84-2.17-2.78-3.24-3.55-4.12-3.55-4.12-3.55-6.34-0.99-0.33-1.98-0.66-3-1-1.68-1.89-1.68-1.89-3.44-4.25-0.615-0.815-1.23-1.63-1.86-2.47-0.561-0.753-1.12-1.51-1.7-2.28-1.97-2.55-3.91-4.91-6.19-7.19-6.17-6.17-11.8-12.7-17.1-19.6-4.68-6.07-9.72-11.7-15-17.3-4.75-5.06-9.24-10.3-13.5-15.7-3.69-4.66-7.65-9.03-11.7-13.4-2.43-2.7-4.73-5.46-7-8.29-3.05-3.78-6.21-7.42-9.5-11-4.11-4.46-7.96-9.07-11.8-13.8-2.95-3.58-6.06-7-9.19-10.4-3.54-3.97-6.41-7.85-8.99-12.5-1.7-2.87-3.78-5.42-5.86-8.02-4.47-5.7-8.4-11.6-12.2-17.8-0.789-1.25-1.58-2.5-2.37-3.75-22.2-35.1-40.7-73.2-53.4-113-0.29-0.904-0.58-1.81-0.879-2.74-1.53-4.87-2.8-9.71-3.85-14.7-0.625-2.73-1.56-5.34-2.46-8-0.873-3.26-1.66-6.53-2.44-9.81-0.219-0.92-0.438-1.84-0.663-2.79-1.97-8.42-3.52-16.9-4.9-25.4-0.255-1.5-0.255-1.5-0.516-3.04-0.542-3.32-1.02-6.64-1.48-9.96-0.119-0.832-0.238-1.66-0.36-2.52-0.406-2.85-0.805-5.69-1.2-8.54-0.139-0.967-0.277-1.93-0.42-2.93-0.657-4.73-1.07-9.23-1.02-14-0.162-1.08-0.324-2.15-0.49-3.26-0.476-3.49-0.637-6.77-0.639-10.3-0.00315-1.25-0.0063-2.51-0.00955-3.8 0.00179-1.35 0.00384-2.7 0.00613-4.05-6.74e-4 -1.4-0.00165-2.8-0.0029-4.19-0.00147-2.92 6.5e-4 -5.83 0.00534-8.75 0.00572-3.74 0.0024-7.48-0.00357-11.2-0.00361-2.88-0.00247-5.76 1.28e-4 -8.64 6.67e-4 -1.38-1.53e-4 -2.76-0.00248-4.14-0.00253-1.92 0.00201-3.84 0.0069-5.77 7.96e-4 -1.09 0.00159-2.19 0.00241-3.31 0.127-2.59 0.127-2.59 1.13-4.59h-2c0.159-0.577 0.318-1.15 0.482-1.75 0.494-2.15 0.701-4.09 0.799-6.29 0.0374-0.745 0.0748-1.49 0.113-2.26 0.0707-1.56 0.141-3.12 0.211-4.68 0.293-5.82 0.293-5.82 1.39-8.02 0.267-1.85 0.488-3.71 0.684-5.57 0.123-1.13 0.246-2.25 0.373-3.41 0.251-2.36 0.501-4.72 0.75-7.09 0.626-5.71 1.37-11.2 2.72-16.8 0.842-3.73 1.31-7.51 1.85-11.3 1.06-7.14 2.57-13.8 4.76-20.7 0.943-3.35 1.39-6.64 1.87-10.1 0.431-1.47 0.905-2.94 1.44-4.38 1.36-3.85 2.28-7.67 3.04-11.7 0.527-1.95 0.527-1.95 2.53-4.95 0.844-3.08 1.52-6.17 2.22-9.29 0.781-2.71 0.781-2.71 2.78-4.71 0.829-2.73 1.47-5.49 2.12-8.27 0.879-2.73 0.879-2.73 2.33-4.6 1.67-2.29 2.43-4.24 3.27-6.94 0.439-1.37 0.439-1.37 0.887-2.76 0.295-0.946 0.59-1.89 0.895-2.87 3.35-10.7 3.35-10.7 6.5-15.6 1.02-2.33 2.01-4.66 3-7 5.37-11.2 10.9-22.2 18.1-32.3 2.9-4.18 5.47-8.54 8.07-12.9 1.51-2.35 2.82-3.88 4.8-5.79 1.68-2.14 3.35-4.28 5-6.44 6.64-8.55 13.5-16.8 22-23.6 1.14-1.24 2.24-2.51 3.31-3.81 3.58-4.17 7.48-7.66 11.7-11.2 1.02-0.878 2.03-1.76 3.05-2.64 9.55-8.25 19.6-15.2 30.3-21.8 3.76-2.31 7.17-4.79 10.6-7.55 1.89-0.984 1.89-0.984 3.81-1.75 4.5-1.9 8.83-4.05 13.2-6.25 5.61-2.82 11.2-5.56 17-8 0.931-0.398 1.86-0.797 2.82-1.21 9.71-4.11 19.3-7.7 29.5-10.1 2.75-0.638 2.75-0.638 5.77-1.71 3.55-1.16 7.13-1.81 10.8-2.47 2.05-0.266 2.05-0.266 3.07-1.46 4.2-0.824 8.45-1.38 12.7-2 1.17-0.178 2.33-0.356 3.53-0.539 13.3-1.96 26.4-2.63 39.9-2.59z" fill="#51CBA4"/>
<path transform="translate(622 .312)" d="m0 0c0.679 0.0231 1.36 0.0462 2.06 0.07 12.5 0.45 12.5 0.45 16.9 2.62 1.83 0.247 3.67 0.472 5.5 0.688 21 3.11 41 13.2 59 24 0.668 0.4 1.34 0.801 2.02 1.21 0.482 0.373 0.964 0.746 1.46 1.13v2c0.563 0.266 1.13 0.531 1.71 0.805 17.4 9.06 32.7 26 43.3 42.2 0.999 1 2 2 3 3 0.86 1.08 1.69 2.19 2.5 3.31 0.402 0.553 0.804 1.11 1.22 1.68 1.64 2.57 2.92 5.28 4.28 8.01 1.07 1.76 2.16 3.51 3.25 5.25 4.61 7.84 7.68 16.2 10.8 24.8 0.415 1.14 0.83 2.29 1.26 3.47 1.88 5.41 3.33 10.7 4.25 16.4 0.385 2.16 0.385 2.16 1.48 3.89 10.9 24.2 3.82 70.3-4.98 94.3-0.332 0.949-0.332 0.949-0.671 1.92-5.46 15.6-12 31-22 44.2-1.39 1.87-2.4 3.74-3.38 5.85h-2c-0.247 0.742-0.495 1.48-0.75 2.25-1.36 3-2.87 4.51-5.25 6.75-0.536 0.742-1.07 1.48-1.62 2.25-0.681 0.866-0.681 0.866-1.38 1.75h-2c-0.224 0.55-0.449 1.1-0.68 1.67-2.95 5.21-8.02 9.21-12.3 13.3-0.641 0.623-1.28 1.25-1.94 1.89-10.6 9.77-23.4 17.3-36.1 24.1-0.723 0.397-1.45 0.794-2.19 1.2-15.3 8.03-32.9 13-49.8 15.8-1.24 0.206-2.49 0.412-3.77 0.625-17.9 2.67-36.3 2.08-54.3 0.0625-1.05-0.118-2.1-0.235-3.19-0.356-6.5-0.818-12.5-2.25-18.8-4.33l-2.33-0.764c-1.42-0.469-2.85-0.945-4.27-1.43-1.73-0.583-3.47-1.15-5.21-1.71-24.8-8.02-48.7-22.4-66.6-41.5-1.67-1.78-1.67-1.78-4.55-3.56v-2h-2c-1.24-1.7-2.47-3.41-3.66-5.15-1.39-2.02-1.39-2.02-3.66-4.1-13.6-13.9-23-32.8-29.9-50.8-0.646-1.68-1.32-3.35-2-5.02-11.2-28.6-16.9-73.2-4.77-102 0.468-2.01 0.903-4.04 1.31-6.06 1.51-6.7 3.84-12.7 6.69-18.9 0.75-1.66 0.75-1.66 1.52-3.36 2.71-5.94 5.46-11.9 8.48-17.6l1.07-2.1c4.84-9.13 11.3-17.1 17.6-25.3 0.677-0.874 0.677-0.874 1.37-1.77 4.2-5.34 8.88-9.9 14.1-14.2 1.45-1.28 2.85-2.63 4.21-4.01 7.78-7.73 16.3-13.9 25.6-19.6 1.83-1.21 3.67-2.42 5.5-3.62 5.29-3.36 10.7-5.94 16.5-8.38 0.923-0.41 1.85-0.82 2.8-1.24 11.5-5.02 23.2-8.85 35.7-10.4 2.47-0.226 2.47-0.226 4.48-1.36 14.9-2.03 30-2.22 45.1-1.69zm-193 145 1 2z" fill="#51CAA4"/>
<path transform="translate(905 362)" d="m0 0c1.16-0.00251 1.16-0.00251 2.35-0.00507 18.7-0.00239 37.3 1.29 55.6 5.26 0.722 0.15 1.44 0.299 2.19 0.453 19.3 4 37.6 9.54 55.4 18 5.06 2.4 10.2 4.55 15.4 6.53v4c0.915 0.447 1.83 0.895 2.77 1.36 1.2 0.61 2.4 1.22 3.6 1.83 0.905 0.438 0.905 0.438 1.83 0.885 3.04 1.57 4.62 2.59 6.21 5.67 0.193 0.746 0.387 1.49 0.586 2.26 1.49-0.495 1.49-0.495 3-1 2.04 1.27 4.04 2.61 6 4 0.99 0.33 1.98 0.66 3 1v2h-5c4.12 1.56 4.12 1.56 8.46 1.89 3.07 0.127 4.12 0.88 6.48 2.79 0.684 0.547 1.37 1.09 2.07 1.66 0.656 0.547 1.31 1.09 1.99 1.66 0.563 0.464 1.13 0.928 1.71 1.41 1.44 1.19 2.86 2.39 4.29 3.59 1.32 1.01 2.65 2.02 4 3-0.33 1.98-0.66 3.96-1 6h2c1.49 2.97 1.49 2.97 3 6h-2v4c0.99 0.33 1.98 0.66 3 1v2l-10 2v7c-3-1-3-1-5-4-0.99-0.33-1.98-0.66-3-1-2.13-4.1-3.42-7.36-3-12-0.763 0.0619-1.53 0.124-2.31 0.188-2.69-0.188-2.69-0.188-4.5-1.5-1.19-1.69-1.19-1.69-1.19-4.69-1.05 0.0412-2.1 0.0825-3.19 0.125-3.55-0.116-5.66-0.597-8.81-2.12v-2c-3.3-0.66-6.6-1.32-10-2-0.33-0.99-0.66-1.98-1-3h-2c-1.18-3.67-1.07-7.17-1-11h2v-2c-1.07 0.0412-2.14 0.0825-3.25 0.125-3.41-0.114-4.96-0.338-7.75-2.12v-4h-2c-0.33 2.31-0.66 4.62-1 7h-13v-2c-1.07-0.0909-1.07-0.0909-2.15-0.184-0.919-0.0838-1.84-0.168-2.79-0.254-0.917-0.0812-1.83-0.162-2.78-0.246-2.29-0.316-2.29-0.316-3.29-1.32-1.43-0.294-2.87-0.56-4.31-0.812-4.02-0.868-6.22-1.73-8.69-5.19-1.25-2.75-1.25-2.75-2-5-0.33 1.32-0.66 2.64-1 4h-13c-0.33-1.32-0.66-2.64-1-4h-4v2h2v3h-2c-0.33-0.66-0.66-1.32-1-2-2.53-0.656-2.53-0.656-5-1v-2h-17c-0.797-3.19-1.26-6-1.56-9.25-0.126-1.34-0.126-1.34-0.254-2.7-0.0606-0.675-0.121-1.35-0.184-2.05h-4v8c-3.35 2.03-5.87 2.22-9.75 2.12-1.48-0.0271-1.48-0.0271-2.98-0.0547-0.748-0.0232-1.5-0.0464-2.27-0.0703 0.33-2.64 0.66-5.28 1-8h2v-2c-0.701 0.392-1.4 0.784-2.12 1.19-2.88 0.812-2.88 0.812-6.06-0.438-2.81-1.75-2.81-1.75-4.81-3.75h-4c-1.86 3.14-2.28 5.36-2 9 0.33 0.99 0.66 1.98 1 3h4v2h4v2c-9.41 0.185-9.41 0.185-14-1v-2c-1.65-0.33-3.3-0.66-5-1-0.103 0.639-0.206 1.28-0.312 1.94-0.34 1.02-0.34 1.02-0.688 2.06-2.88 0.961-4.7 1.11-7.69 1.06-2.13-0.0309-2.13-0.0309-4.31-0.0625-0.66-3.3-1.32-6.6-2-10-1.98 0.495-1.98 0.495-4 1 0.66 0.33 1.32 0.66 2 1v7c-3.77 0.029-7.54 0.0468-11.3 0.0625-1.61 0.0126-1.61 0.0126-3.25 0.0254-1.03 0.00322-2.06 0.00645-3.12 0.00977-0.948 0.00524-1.9 0.0105-2.87 0.0159-2.45-0.114-2.45-0.114-5.45-1.11v-3h-10c-0.33 0.66-0.66 1.32-1 2-1.93 0.344-1.93 0.344-4.31 0.5-2.57 0.17-4.33 0.313-6.62 1.52-2.71 1.28-4.84 1.17-7.82 1.1-1.48-0.0271-1.48-0.0271-2.98-0.0547-0.748-0.0232-1.5-0.0464-2.27-0.0703-0.33 0.99-0.66 1.98-1 3-1.11 0.0825-2.23 0.165-3.38 0.25-3.68 0.329-3.68 0.329-5.06 2.81-0.186 0.639-0.371 1.28-0.562 1.94h-2c-0.33 0.99-0.66 1.98-1 3-4.94 2.35-9.66 2.21-15 2-0.33 1.98-0.66 3.96-1 6-3.98 1.33-7.85 1.07-12 1-0.33 1.98-0.66 3.96-1 6-3.47 0.495-3.47 0.495-7 1v2h-6c0.0412 0.763 0.0825 1.53 0.125 2.31-0.125 2.69-0.125 2.69-2.12 5.69-2.38 0.73-2.38 0.73-5.12 1.19-0.91 0.159-1.82 0.317-2.76 0.48-1.05 0.164-1.05 0.164-2.12 0.332-0.495 1.49-0.495 1.49-1 3-6.43 0.99-6.43 0.99-13 2-0.66 1.98-1.32 3.96-2 6-1.98 0.33-3.96 0.66-6 1v2h-3c-0.227 0.784-0.454 1.57-0.688 2.38-1.65 3.31-2.98 3.34-6.31 4.62-0.343 1.33-0.676 2.66-1 4-4.18 3-4.18 3-7 3-0.0206 1.09-0.0412 2.19-0.0625 3.31-0.464 1.83-0.464 1.83-0.938 3.69-3.25 1.56-3.25 1.56-5.16 2.18-2.2 0.984-3.05 2.08-4.46 4.01-2.38 2.81-2.38 2.81-5.19 3.19-1.08-0.186-1.08-0.186-2.19-0.375v6l-3 1c-0.33 0.99-0.66 1.98-1 3-3.56 1.19-3.56 1.19-7 2-0.33 1.32-0.66 2.64-1 4h-4l0.0352 2.08c0.00902 0.901 0.018 1.8 0.0273 2.73 0.0116 0.893 0.0232 1.79 0.0352 2.71-0.0977 2.48-0.0977 2.48-1.1 5.48h-3v3h-3v3h-2v2h-2v7h-2v5c-1.98 0.99-1.98 0.99-4 2 0 2.25 0.0344 4.5 0.188 6.75-0.24 4.17-1.62 7.43-3.19 11.2-0.33 0.99-0.66 1.98-1 3h-2c-1.36 3-2.05 5.38-2.44 8.69-0.186 1.09-0.371 2.19-0.562 3.31l-3 2 1 1c0.448 5.6-0.38 9.15-3 14-0.99 0.33-1.98 0.66-3 1-0.0909 1.28-0.0909 1.28-0.184 2.59-0.126 1.66-0.126 1.66-0.254 3.35-0.0812 1.1-0.162 2.2-0.246 3.34-0.316 2.72-0.316 2.72-1.32 3.72 0.0756 3.1 0.176 6.19 0.391 9.28 0.126 4-0.247 5.54-2.78 8.71-2.61 2.02-2.61 2.02-4.61 2.02 0.0412 0.784 0.0825 1.57 0.125 2.38-0.125 2.62-0.125 2.62-2.12 4.62h-4c-0.33-2.31-0.66-4.62-1-7h-2c0.108-1.25 0.108-1.25 0.219-2.52 0.0928-1.09 0.186-2.17 0.281-3.29 0.0928-1.08 0.186-2.16 0.281-3.27 0.256-2.93 0.256-2.93 0.219-5.92 1.81-0.688 1.81-0.688 4-1 1.62 1.44 1.62 1.44 3 3h2v-9c-1.32-0.33-2.64-0.66-4-1-1.2-3.53-0.795-6.13-0.0625-9.75 0.195-0.985 0.389-1.97 0.59-2.98 0.234-1.12 0.234-1.12 0.473-2.27h3c0.0427 1.67 0.0406 3.33 0 5l-1 1c0.66 0.33 1.32 0.66 2 1-0.0619-0.784-0.124-1.57-0.188-2.38 0.0619-0.866 0.124-1.73 0.188-2.62l3-2c0.79-1.95 0.79-1.95 1.19-4.12 0.268-1.28 0.536-2.56 0.812-3.88h2v-3c-0.66-0.33-1.32-0.66-2-1 1.31-2.5 1.31-2.5 3-5h3v-8c-1.32 0.99-2.64 1.98-4 3 0.66-3.96 1.32-7.92 2-12-0.66-0.33-1.32-0.66-2-1 0.66-2.31 1.32-4.62 2-7 1.32-0.33 2.64-0.66 4-1 0.33-1.32 0.66-2.64 1-4v2h2c-0.33-2.64-0.66-5.28-1-8 0.66-0.33 1.32-0.66 2-1 0.165-0.66 0.33-1.32 0.5-2 0.165-0.66 0.33-1.32 0.5-2 0.66-0.33 1.32-0.66 2-1 0.72-1.85 1.35-3.73 1.94-5.62 1.47-4.6 3.07-8.98 5.06-13.4h2c0.247-0.558 0.495-1.12 0.75-1.69 1.97-3.64 4.72-6.62 7.38-9.77 1.83-2.47 2.79-4.68 3.88-7.54 0.66-0.66 1.32-1.32 2-2-1.32-0.66-2.64-1.32-4-2 0.667-1.33 1.33-2.67 2-4 0.464-1.02 0.464-1.02 0.938-2.06 1.14-2.07 2.38-3.28 4.06-4.94 3.33-3.7 6.58-7.47 9.75-11.3 3.52-4.21 3.52-4.21 5.25-5.69h2c0.227-0.557 0.454-1.11 0.688-1.69 2.89-5.1 7.85-8.72 12.2-12.5 1.28-1.11 2.55-2.24 3.8-3.38 4.58-4.16 9.45-7.89 14.4-11.6 0.681-0.511 1.36-1.02 2.06-1.55 24.8-18.5 52.2-33.1 81.7-42.6 1.35-0.438 2.69-0.888 4.03-1.35 16.1-5.57 33-9.75 50-11.1 3.05-0.0875 3.05-0.0875 5.15-1.29 10.3-1.19 20.7-1.24 31.1-1.25z" fill="#55C9A4"/>
<path transform="translate(306 362)" d="m0 0c2.22 0.00534 4.45 2.58e-5 6.67-0.00635 7.59-0.00397 15.2 0.161 22.7 0.582 1.09 0.0581 1.09 0.0581 2.2 0.117 5.07 0.313 5.07 0.313 7.32 1.44 1.67 0.265 3.34 0.486 5.02 0.684 1 0.123 2.01 0.246 3.04 0.373 2.11 0.252 4.22 0.502 6.34 0.75 5.13 0.633 9.73 1.43 14.6 3.19 1.51 0.366 3.03 0.711 4.55 1.04 13.4 2.93 25.7 7.16 38.2 12.6 2.36 1 4.69 1.92 7.11 2.75 5.73 2.13 11.7 4.45 15.1 9.62 0.125 3.19 0.125 3.19 0 6 1.85 0.692 1.85 0.692 4 1 0.99-0.66 1.98-1.32 3-2 0.99 0.66 1.98 1.32 3 2v2c1.21 0.0928 1.21 0.0928 2.44 0.188 5.82 1.33 11.2 3.78 14.6 8.81 2.05 1.19 2.05 1.19 4 2v2c0.949 0.248 1.9 0.495 2.88 0.75 3.12 1.25 3.12 1.25 4.22 3.01 0.975 2.41 1.79 4.81 2.53 7.3 0.26 0.857 0.521 1.71 0.789 2.6 0.709 2.83 0.586 5.43 0.586 8.34-2.91 0.81-4.46 1.22-7.31 0.0625-0.557-0.351-1.11-0.701-1.69-1.06v2c-0.66 0.33-1.32 0.66-2 1v3c0.66 0.66 1.32 1.32 2 2h-4v-3h-4v-2h-6c-0.248-0.928-0.495-1.86-0.75-2.81-1.38-3.52-1.96-4.45-5.25-6.19-2.06-0.503-4.1-0.934-6.2-1.28-1.8-0.723-1.8-0.723-3.04-2.49-0.85-2.48-0.967-4.37-0.891-6.98 0.018-0.799 0.0361-1.6 0.0547-2.42 0.0348-0.905 0.0348-0.905 0.0703-1.83h-4v2h-6v-2h-4v-3h-16c-0.33-0.66-0.66-1.32-1-2-0.99-0.33-1.98-0.66-3-1v-2h-7v-2h-3c-0.66 0.66-1.32 1.32-2 2-2.6-0.242-2.6-0.242-5.62-0.875-1-0.204-2.01-0.407-3.04-0.617-1.16-0.251-1.16-0.251-2.34-0.508 1-1.5 1-1.5 3-3 2.72-0.273 5.26-0.135 8 0-3.29-0.531-6.58-1.05-9.88-1.56-0.937-0.151-1.87-0.303-2.84-0.459-0.896-0.139-1.79-0.277-2.71-0.42-0.827-0.131-1.65-0.262-2.51-0.397-2.13-0.345-2.13-0.345-4.06 0.838-1.38 0.0831-2.75 0.107-4.13 0.0977-0.806-0.00322-1.61-0.00645-2.44-0.00977-1.26-0.0126-1.26-0.0126-2.55-0.0254-1.27-0.00677-1.27-0.00677-2.57-0.0137-2.1-0.0118-4.2-0.0297-6.3-0.0488v-2h-4v-3h4v-2h-4v-3c-2.31-0.33-4.62-0.66-7-1v-3c-1.32-0.33-2.64-0.66-4-1 2.97-0.33 5.94-0.66 9-1v-8h-6v-2c-10.4 0.99-10.4 0.99-21 2v4c-1.98 0.495-1.98 0.495-4 1 0.99 0.33 1.98 0.66 3 1v2c-3.08 0.0582-6.17 0.0937-9.25 0.125-1.31 0.0251-1.31 0.0251-2.64 0.0508-0.844 0.00645-1.69 0.0129-2.56 0.0195-0.775 0.0105-1.55 0.0209-2.35 0.0317-2.46-0.254-4.07-1-6.2-2.23 0.165 1.11 0.33 2.23 0.5 3.38 0.5 3.62 0.5 3.62 0.5 5.62 0.99 0.33 1.98 0.66 3 1v2c-1.32-0.33-2.64-0.66-4-1-0.33 0.99-0.66 1.98-1 3h-6v-4h-4v4c-2.88 0.961-4.7 1.11-7.69 1.06-1.21-0.0135-1.21-0.0135-2.45-0.0273-0.615-0.0116-1.23-0.0232-1.86-0.0352-0.33-1.32-0.66-2.64-1-4h-3c-0.33-0.99-0.66-1.98-1-3h-6c-0.33 0.66-0.66 1.32-1 2h-24c-0.33 1.65-0.66 3.3-1 5h-3c-0.33 1.32-0.66 2.64-1 4-1.28 0.0619-2.56 0.124-3.88 0.188-1.08 0.0522-1.08 0.0522-2.18 0.105-0.642-0.0967-1.28-0.193-1.95-0.293-0.66-0.99-1.32-1.98-2-3-3.58-0.25-3.58-0.25-7 0v2h-4v4h-3v2h-9v4h-6v4h-3v2c-1.05 0.11-2.1 0.219-3.18 0.332-1.38 0.159-2.76 0.32-4.14 0.48-0.69 0.0703-1.38 0.141-2.09 0.213-2.89 0.349-5.12 0.632-7.51 2.36-1.27 1.74-1.27 1.74-2.08 4.61l-10 1v10c-3.46 0.495-3.46 0.495-7 1v2c-3.4 2.27-5.17 2.37-9.19 2.62-1.63 0.112-1.63 0.112-3.29 0.227-0.831 0.049-1.66 0.098-2.52 0.148v3c-1.62 0.671-3.25 1.34-4.88 2-0.905 0.371-1.81 0.742-2.74 1.12-2.38 0.875-2.38 0.875-4.38 0.875-0.33 2.31-0.66 4.62-1 7l-10 1v4c-2.97 0.495-2.97 0.495-6 1-0.33 2.31-0.66 4.62-1 7-3.46 0.495-3.46 0.495-7 1-0.0412 0.887-0.0825 1.77-0.125 2.69-1.18 4.48-3.02 5.84-6.88 8.31-3.37 0.312-3.37 0.312-6 0-0.66 3.3-1.32 6.6-2 10h-6l1 2c0.0402 2.33 0.0432 4.67 0 7-0.99 0.33-1.98 0.66-3 1v2h-2c-0.0825 0.784-0.165 1.57-0.25 2.38-0.75 2.62-0.75 2.62-2.81 3.94-0.959 0.34-0.959 0.34-1.94 0.688v6c-1.32 0.33-2.64 0.66-4 1-0.0825 0.681-0.165 1.36-0.25 2.06-0.973 3.81-2.71 6.58-4.75 9.94h-8v-6c-0.66-0.33-1.32-0.66-2-1h9c-0.309-0.722-0.619-1.44-0.938-2.19-0.988-2.62-1.59-5.06-2.06-7.81 0.66-0.33 1.32-0.66 2-1-0.33-1.32-0.66-2.64-1-4 1.32-0.33 2.64-0.66 4-1l0.688-3.12c0.977-3.44 2.56-5.58 4.98-8.24 1.47-1.81 2.41-3.62 3.46-5.7 3.93-7.41 9.96-14 15.9-19.9l2 1c-0.33-0.99-0.66-1.98-1-3 0.938-2.19 0.938-2.19 2-4h-2c-0.0825 0.619-0.165 1.24-0.25 1.88-0.75 2.12-0.75 2.12-2.62 3.38-2.12 0.75-2.12 0.75-5.12 0.75 1.51-5.33 5.07-8.62 8.81-12.5 0.617-0.651 1.23-1.3 1.87-1.97 5.47-5.75 11.1-11.2 17-16.5 1.6-1.45 3.16-2.94 4.68-4.48 10.8-10.7 23.1-19.2 36-27 3.76-2.31 7.17-4.79 10.6-7.55 1.89-0.984 1.89-0.984 3.81-1.75 4.5-1.9 8.83-4.05 13.2-6.25 5.61-2.82 11.2-5.56 17-8 0.931-0.398 1.86-0.797 2.82-1.21 9.71-4.11 19.3-7.7 29.5-10.1 2.75-0.638 2.75-0.638 5.77-1.71 3.55-1.16 7.13-1.81 10.8-2.47 2.05-0.266 2.05-0.266 3.07-1.46 4.2-0.824 8.45-1.38 12.7-2 1.17-0.178 2.33-0.356 3.53-0.539 13.3-1.96 26.4-2.63 39.9-2.59z" fill="#55C9A4"/>
<path transform="translate(622 .312)" d="m0 0c0.679 0.0231 1.36 0.0462 2.06 0.07 12.5 0.45 12.5 0.45 16.9 2.62 1.83 0.247 3.67 0.472 5.5 0.688 21 3.11 41 13.2 59 24 0.668 0.4 1.34 0.801 2.02 1.21 0.482 0.373 0.964 0.746 1.46 1.13v2c0.563 0.266 1.13 0.531 1.71 0.805 17.4 9.06 32.7 26 43.3 42.2 0.999 1 2 2 3 3 0.86 1.08 1.69 2.19 2.5 3.31 0.402 0.553 0.804 1.11 1.22 1.68 1.64 2.57 2.92 5.28 4.28 8.01 1.8 3.02 3.63 6.01 5.48 9 1.56 3.08 2.15 5.59 2.52 9h-2c-0.33 0.66-0.66 1.32-1 2-0.247-0.639-0.495-1.28-0.75-1.94-1.07-2.25-1.07-2.25-3.38-2.81-0.619-0.0825-1.24-0.165-1.88-0.25 0.0619-1.07 0.124-2.14 0.188-3.25-0.199-3.98-0.706-4.86-3.19-7.75v-3c-1.47-2.77-1.47-2.77-4-5-3.45-0.855-3.45-0.855-7.19-0.875-1.88-0.0889-1.88-0.0889-3.79-0.18-2.9-0.297-2.9-0.297-4.02 1.05-1.52 0.0718-3.04 0.0839-4.56 0.0625-1.24-0.0135-1.24-0.0135-2.5-0.0273-0.957-0.0174-0.957-0.0174-1.93-0.0352v3h6c0.124 0.639 0.247 1.28 0.375 1.94 0.309 1.02 0.309 1.02 0.625 2.06 0.66 0.33 1.32 0.66 2 1v2c1.98 0.33 3.96 0.66 6 1 2.01 5.78 2.22 10.9 2 17 1.98 0.66 3.96 1.32 6 2v10c-0.33-0.99-0.66-1.98-1-3h-4c-0.33-1.65-0.66-3.3-1-5h-9v-6c-1.32-0.33-2.64-0.66-4-1v-2h-5c-0.33-0.99-0.66-1.98-1-3h-3c-0.124-0.639-0.247-1.28-0.375-1.94-0.309-1.02-0.309-1.02-0.625-2.06-0.66-0.33-1.32-0.66-2-1-0.125-5.75-0.125-5.75 1-8-1.86 0.0928-1.86 0.0928-3.75 0.188-3.03 0.0161-4.07-0.081-6.75-1.69-0.743-0.742-0.743-0.742-1.5-1.5h8v-4l-3.12 0.125c-4.47-0.144-7.9-1.14-11.9-3.12v-3h2v-2h-2v-3h2v-2h3v-2h-2v-2c-4.95 0.495-4.95 0.495-10 1v-2c-0.606 0.0232-1.21 0.0464-1.84 0.0703-6.31 0.136-12-0.608-18.2-2.07v-5h-4v-8h2v2h3c0.33-0.99 0.66-1.98 1-3 1.01 0.371 2.02 0.742 3.06 1.12 4.22 1.24 6.87 0.37 10.9-1.12 0.33 1.32 0.66 2.64 1 4 0.66-0.33 1.32-0.66 2-1-0.33-0.66-0.66-1.32-1-2 1.49-0.495 1.49-0.495 3-1 0.33 1.65 0.66 3.3 1 5h5v2c1.32 0.33 2.64 0.66 4 1v3c0.557 0.0825 1.11 0.165 1.69 0.25 3.16 1.02 4.97 2.4 7.31 4.75 0.812 3.25 0.812 3.25 1 6 0.626-0.0116 1.25-0.0232 1.9-0.0352 0.817-0.00902 1.63-0.018 2.48-0.0273 0.812-0.0116 1.62-0.0232 2.46-0.0352 2.16 0.0977 2.16 0.0977 4.16 1.1v-2h4c0.66-0.66 1.32-1.32 2-2 2 1.37 2 1.37 4 3v2c-1.49 0.495-1.49 0.495-3 1 0.99 0.66 1.98 1.32 3 2 0.33-1.32 0.66-2.64 1-4 0.99 0.33 1.98 0.66 3 1-0.144-0.578-0.289-1.16-0.438-1.75-0.562-2.25-0.562-2.25-0.875-4.38-0.945-2.58-2.26-2.73-4.69-3.88-0.474-0.639-0.949-1.28-1.44-1.94-1.46-2.24-1.46-2.24-4.06-3.31-3.2-2.24-3.72-4.27-4.82-7.91-0.607-2.05-0.607-2.05-2.68-3.84-2.07-0.643-2.07-0.643-4-1v-2h-6c-0.33 0.66-0.66 1.32-1 2-3.47-1.48-3.47-1.48-7-3v2c-3-1-3-1-4-2 0.33 1.32 0.66 2.64 1 4h3v3c-2.64-0.66-5.28-1.32-8-2-0.33-1.32-0.66-2.64-1-4h-8v-3h3c0.33-0.66 0.66-1.32 1-2h-4v-3c1.65 0.33 3.3 0.66 5 1 0.0427-1.67 0.0406-3.33 0-5-0.33-0.33-0.66-0.66-1-1-0.0928-0.647-0.186-1.29-0.281-1.96-0.519-2.24-0.519-2.24-2.75-3.02-1.22-0.321-1.22-0.321-2.47-0.648-2.47-0.664-2.47-0.664-4.5-1.38-0.33-0.66-0.66-1.32-1-2-1.39 0.0619-1.39 0.0619-2.81 0.125-5.16 0.0212-10.1-1.1-15.2-2.12v-2h-5v2c-5.2 1.04-10.8 1.82-16 0.498-2.12-0.525-3.94-0.612-6.12-0.596-1.13 0.00483-1.13 0.00483-2.29 0.00977-0.777 0.00838-1.55 0.0168-2.36 0.0254-1.19 0.00677-1.19 0.00677-2.4 0.0137-1.95 0.0117-3.9 0.0297-5.85 0.0488-0.33 1.65-0.66 3.3-1 5h-5v4h2v3c1.99-0.0326 3.97-0.0651 5.96-0.0977 2.04 0.0977 2.04 0.0977 5.04 1.1 6.08 0.329 12 0.0647 18-1v2c-4.45 0.495-4.45 0.495-9 1 0.186 0.742 0.371 1.48 0.562 2.25 0.43 2.7 0.289 4.2-0.562 6.75h-7v-3h2v-2h-8v-3c-1.2-0.133-2.41-0.266-3.65-0.402-1.58-0.178-3.15-0.357-4.73-0.535-0.794-0.087-1.59-0.174-2.41-0.264-5.99-0.686-5.99-0.686-8.22-1.8v-3h-31c-0.33-1.65-0.66-3.3-1-5-0.33 1.32-0.66 2.64-1 4h-2v5c-3.34 1.01-6.37 1.12-9.86 1.1-1.12-0.00322-2.23-0.00645-3.38-0.00977-1.16-0.00838-2.32-0.0168-3.51-0.0254-1.17-0.00451-2.35-0.00902-3.56-0.0137-2.9-0.0118-5.79-0.0282-8.69-0.0488v-2c-4-0.0918-4-0.0918-8 0-0.33 0.33-0.66 0.66-1 1h8v6h6v9c-3.69 0.923-6.48 1.1-10.2 1.06-1.62-0.0135-1.62-0.0135-3.27-0.0273-0.82-0.0116-1.64-0.0232-2.48-0.0352v3c-0.696 0.0146-1.39 0.0292-2.11 0.0442-3.17 0.0748-6.34 0.171-9.52 0.268-1.64 0.0338-1.64 0.0338-3.32 0.0684-5.78 0.193-10 0.495-15.1 3.62h-2c-0.33 0.99-0.66 1.98-1 3h-6c-0.33 1.98-0.66 3.96-1 6-0.99 0.33-1.98 0.66-3 1v6c-1.27 0.674-2.54 1.34-3.81 2l-2.14 1.12c-2.04 0.875-2.04 0.875-5.04 0.875v2h-2c-0.11 0.584-0.219 1.17-0.332 1.77-1.15 3.85-3.68 6.62-6.67 9.23-3.38 0.938-3.38 0.938-6 1-0.33 1.98-0.66 3.96-1 6h-4c-0.049 0.638-0.098 1.28-0.148 1.93l-0.227 2.5c-0.0696 0.824-0.139 1.65-0.211 2.5-0.137 0.682-0.273 1.36-0.414 2.07l-2 1c-0.309 1.16-0.619 2.31-0.938 3.5l-1.06 3.5-3 1v6c-1.98 0.495-1.98 0.495-4 1v9h-2c-0.103 6.17 0.229 12.2 0.879 18.3 0.114 2.54-0.122 4.3-0.879 6.7-0.186 0.742-0.371 1.48-0.562 2.25-0.144 0.578-0.289 1.16-0.438 1.75h-3c0.309-0.928 0.309-0.928 0.625-1.88 0.124-0.701 0.248-1.4 0.375-2.12-0.66-0.66-1.32-1.32-2-2 0.66-0.99 1.32-1.98 2-3h-2c-0.33 3.3-0.66 6.6-1 10h-6c0.33-0.99 0.66-1.98 1-3h-2c-0.836-20-0.836-20 4-27 0.99-0.33 1.98-0.66 3-1v-2h2c-0.16-1.32-0.16-1.32-0.324-2.67-0.18-1.74-0.18-1.74-0.363-3.52l-0.387-3.48c0.084-3.77 0.956-5.28 3.07-8.33 0.33-1.07 0.66-2.14 1-3.25l1-2.75 3-1c0.33-0.66 0.66-1.32 1-2h3c-0.0348-0.82-0.0696-1.64-0.105-2.48-0.0271-1.08-0.0541-2.16-0.082-3.27-0.0522-1.6-0.0522-1.6-0.105-3.23 0.333-3.43 1.11-4.44 3.29-7.02 0.797-1.68 1.57-3.36 2.31-5.06 2.18-4.53 3.97-6.01 8.69-7.94 0.77-1.87 1-3.02 1-5l-2-1c0.33-0.66 0.66-1.32 1-2l-2-1c4.62-5.67 9.52-10.7 15.2-15.4 1.45-1.28 2.85-2.63 4.21-4.01 7.78-7.73 16.3-13.9 25.6-19.6 1.83-1.21 3.67-2.42 5.5-3.62 5.29-3.36 10.7-5.94 16.5-8.38 0.923-0.41 1.85-0.82 2.8-1.24 11.5-5.02 23.2-8.85 35.7-10.4 2.47-0.226 2.47-0.226 4.48-1.36 14.9-2.03 30-2.22 45.1-1.69z" fill="#55C9A4"/>
<path transform="translate(498,1049)" d="m0 0h4v8h4c0.33 2.31 0.66 4.62 1 7h9c0.33 0.99 0.66 1.98 1 3 0.66 0.33 1.32 0.66 2 1v4h2c0.33 0.99 0.66 1.98 1 3 1.32-0.33 2.64-0.66 4-1 0-4.68-0.996-5.62-4-9 0.33-0.66 0.66-1.32 1-2v-2-9c0.66 0.33 1.32 0.66 2 1v5h3v4h4c2.77 2.58 4.62 5.49 6 9-0.39 3.25-1.4 5.06-3 8h-3v-2h-2v2h-5c-0.33 2.64-0.66 5.28-1 8 0.66 0.33 1.32 0.66 2 1v2c2.64 0.33 5.28 0.66 8 1v2h2v-2h5c-0.33 1.65-0.66 3.3-1 5h-6c0.348 1.98 0.348 1.98 1 4 0.99 0.495 0.99 0.495 2 1 0.33-0.33 0.66-0.66 1-1 1.32 0.33 2.64 0.66 4 1v19c0.99 0.33 1.98 0.66 3 1v2c0.99 0.33 1.98 0.66 3 1 0.0816 4.16-0.0175 7.95-1 12h3c0.33 1.32 0.66 2.64 1 4h6c-0.33 2.97-0.66 5.94-1 9 0.99 0.495 0.99 0.495 2 1l-1 2c-0.04 2-0.0435 4 0 6 0.66 0.33 1.32 0.66 2 1v-8c4 4.62 4 4.62 4 8 1.64 1.64 3.78 1.6 6 2v3c1.98 0.495 1.98 0.495 4 1-0.0928 0.99-0.0928 0.99-0.188 2 0.211 3.38 1.14 5.84 2.43 8.94 2.12 5.79 2.18 11.9 2.5 18 0.0683 0.976 0.137 1.95 0.207 2.96 0.294 5.55 0.208 9.28-2.96 14.1h-1c0.0116-0.999 0.0232-2 0.0352-3.03 0.00902-1.29 0.018-2.58 0.0273-3.91 0.0116-1.29 0.0232-2.58 0.0352-3.9 0.268-3.02 0.268-3.02-1.1-4.16 0.0206 1.28 0.0412 2.56 0.0625 3.88 0.00809 5.09-0.472 10.1-1.06 15.1h-1c-0.495-2.47-0.495-2.47-1-5-0.33 5.28-0.66 10.6-1 16h2c0.33 0.99 0.66 1.98 1 3 0.66-0.66 1.32-1.32 2-2v3h3c1.15 5.47 1.12 10.8 1.09 16.3-0.00203 1.03-0.00405 2.07-0.00614 3.13-0.00485 2.25-0.0119 4.51-0.021 6.76-0.0245 6.24-0.0313 12.5-0.0411 18.7-0.00381 1.97-0.00381 1.97-0.0077 3.99-0.0253 13.8 0.0177 27.6 0.0702 41.5 0.00766 2.03 0.0151 4.07 0.0224 6.1 0.028 7.75 0.0571 15.5 0.0869 23.2 0.0288 7.49 0.0564 15 0.084 22.5 0.0491 13.3 0.0991 26.7 0.15 40 0.049 12.9 0.0975 25.8 0.146 38.7 0.00299 0.804 0.00597 1.61 0.00905 2.44 0.015 4.04 0.03 8.07 0.045 12.1 0.123 33.2 0.248 66.3 0.373 99.5-3.96-0.66-7.92-1.32-12-2-0.33 0.66-0.66 1.32-1 2-1.3-1.75-2.59-3.5-3.88-5.25-0.719-0.975-1.44-1.95-2.18-2.95-2.05-2.95-3.64-5.48-4.45-8.98-0.165-0.598-0.33-1.2-0.5-1.81-0.66-0.33-1.32-0.66-2-1-0.33 0.66-0.66 1.32-1 2-1.94-0.688-1.94-0.688-4-2-0.75-2.62-0.75-2.62-1-5-0.99-0.33-1.98-0.66-3-1v-6h4v-4h-2v3c-2.81 0.312-2.81 0.312-6 0-1.44-2.12-1.44-2.12-3-5-1.21-0.943-2.44-1.86-3.69-2.75-2.21-1.8-3.18-2.69-3.84-5.49-0.0686-4.18 0.47-7.08 2.52-10.8 2-0.0425 4-0.0408 6 0 0.33 0.33 0.66 0.66 1 1 2 0.0408 4 0.0425 6 0 0.33 1.65 0.66 3.3 1 5h2c0.23 4.71-0.35 8.57-2 13-0.99 0.33-1.98 0.66-3 1 1.36-0.0619 1.36-0.0619 2.75-0.125 3.56 0.0146 7.03 0.391 10.6 0.875 1.03 0.139 2.05 0.278 3.11 0.422 2.57 0.828 2.57 0.828 3.74 2.84 0.275 0.655 0.549 1.31 0.832 1.98 0.99 0.33 1.98 0.66 3 1 1.19 2.06 1.19 2.06 2 4v-8h-3c0.495 1.49 0.495 1.49 1 3h-2c-2.14-9.08-2.24-17.9-2.12-27.2 0.0101-1.44 0.0192-2.89 0.0273-4.33 0.0218-3.49 0.0561-6.99 0.0977-10.5h1c1.29 5.86 1.07 11.7 1 17.6-0.0256 2.05-0.0466 4.11-0.0625 6.16-0.0116 0.904-0.0232 1.81-0.0352 2.74 0.0926 2.34 0.309 4.26 1.1 6.47 0.66 0.33 1.32 0.66 2 1v-278c-2.58 2.58-2.25 4.32-2.28 7.83 0.00193 0.823 0.00387 1.65 0.00586 2.49-0.00579 0.872-0.0116 1.74-0.0176 2.64-0.0171 2.94-0.0199 5.87-0.0228 8.81-0.00929 2.1-0.0195 4.2-0.0304 6.3-0.0274 5.71-0.0425 11.4-0.0554 17.1-0.0156 5.96-0.0424 11.9-0.068 17.9-0.0469 11.3-0.0836 22.6-0.117 33.9-0.0382 12.9-0.0876 25.7-0.138 38.6-0.103 26.5-0.193 52.9-0.273 79.4h-1c-0.33-76.9-0.66-154-1-233h-8c-0.33-1.32-0.66-2.64-1-4-1.21 0.0309-1.21 0.0309-2.44 0.0625-2.56-0.0625-2.56-0.0625-3.56-1.06-0.0406-1.67-0.0427-3.33 0-5h-2c-0.495-8.91-0.495-8.91-1-18 0.99-0.33 1.98-0.66 3-1 0.33-2.97 0.66-5.94 1-9 1.65-0.33 3.3-0.66 5-1-0.0116-0.75-0.0232-1.5-0.0352-2.27-0.0586-6.65 0.217-13.1 1.04-19.7 0.99-0.33 1.98-0.66 3-1v-2h-2c-0.33-1.98-0.66-3.96-1-6h-8v-6h7c-0.705-5.64-2.54-7.82-7-11.4-3.36-2.53-3.36-2.53-7-4.62-1.28-3.85-1.07-6.95-1-11h-6v-7h4c-0.33-0.99-0.66-1.98-1-3-0.66-0.309-1.32-0.619-2-0.938-2-1.06-2-1.06-2.75-3.19-0.0825-0.619-0.165-1.24-0.25-1.88-1.7 0.0309-1.7 0.0309-3.44 0.0625-3.56-0.0625-3.56-0.0625-4.56-1.06-0.0409-2.33-0.0424-4.67 0-7 1.49-0.495 1.49-0.495 3-1v-5c-0.568-0.0142-1.14-0.0284-1.72-0.043-6.26-0.386-9.46-1.96-14.3-5.96 0.66-0.66 1.32-1.32 2-2h3v-2c-1.99 0.0651-3.97 0.13-5.96 0.195-2.04-0.195-2.04-0.195-5.04-2.2 0.66-1.32 1.32-2.64 2-4-0.66-0.33-1.32-0.66-2-1 0.5-1.81 0.5-1.81 2-4 2.59-1.26 5.25-2.16 8-3-1.32-0.66-2.64-1.32-4-2-0.33 0.33-0.66 0.66-1 1-5.28 0.42-10.2 0.547-15-2 0.495-4.45 0.495-4.45 1-9h2c0.33-2.31 0.66-4.62 1-7h2v-3h-2v-2z" fill="#55C9A4"/>
<path transform="translate(880,941)" d="m0 0c-0.33 0.99-0.66 1.98-1 3h5v2c0.928-0.351 1.86-0.701 2.81-1.06 3.19-0.938 3.19-0.938 6.19 0.0625v2c-3.48 1.16-5.46 0.708-9 0 0.33 0.66 0.66 1.32 1 2 2.64-0.33 5.28-0.66 8-1v3c-0.99 0.33-1.98 0.66-3 1 0.33 0.66 0.66 1.32 1 2h-4c0.348 1.98 0.348 1.98 1 4 0.66 0.33 1.32 0.66 2 1v6h-3c-0.33 0.99-0.66 1.98-1 3h-3v2c-5.94 0.33-11.9 0.66-18 1-0.33 0.66-0.66 1.32-1 2-3.96 0.942-7.85 1.28-11.8 0.312-0.722-0.103-1.44-0.206-2.19-0.312-2.08 1.71-3.63 3.53-5.29 5.63-2.35 1.89-3.92 1.67-6.89 1.56-0.901-0.0271-1.8-0.0541-2.73-0.082-0.687-0.0348-1.37-0.0696-2.08-0.105-0.33-1.65-0.66-3.3-1-5h-8c-0.33 1.65-0.66 3.3-1 5-9.41 2.3-9.41 2.3-14 2v3h-2v2c-2.1 0.504-4.21 1-6.31 1.5-1.17 0.278-2.34 0.557-3.55 0.844-3.14 0.656-3.14 0.656-6.14 0.656v2c-4.38 3-4.38 3-7 3v2h-6v7c-2.64 0.33-5.28 0.66-8 1v5c-1.96 0.335-3.92 0.668-5.88 1-1.09 0.186-2.18 0.371-3.3 0.562-2.82 0.438-2.82 0.438-4.82 0.438v4h-2v4c-1.49 0.495-1.49 0.495-3 1-0.495 1.49-0.495 1.49-1 3-4.67 2.43-8.73 3.46-14 4v2c-0.639 0.289-1.28 0.578-1.94 0.875-2.21 0.953-2.21 0.953-3.06 3.12h-3c-0.144 0.598-0.289 1.2-0.438 1.81-1.29 5.01-1.29 5.01-3.38 6.38-2.19 0.812-2.19 0.812-6.19 0.812v3c-3.86 2.15-6.55 3.39-11 3-0.0561 0.905-0.0561 0.905-0.113 1.83-0.676 8.22-0.676 8.22-3.89 11.2h-2c-0.247 0.598-0.495 1.2-0.75 1.81-1.47 2.56-2.72 3.67-5.25 5.19-2.75 0.688-2.75 0.688-5 1v6h-2v5c-0.99 0.33-1.98 0.66-3 1-1.12 2.34-1.12 2.34-2 5-0.652 1.34-1.31 2.68-2 4h-7l-1-2c-0.99-0.66-1.98-1.32-3-2 1.75-4.88 1.75-4.88 4-6 0.656-2.53 0.656-2.53 1-5h2c0.0477-0.666 0.0954-1.33 0.145-2.02 1.23-4.29 3.8-7.2 6.54-10.7 4.14-5.36 7.98-10.7 11.3-16.6 0.988-1.72 0.988-1.72 1.99-2.72-2.17 0.506-4 1-6 2 3.19-6.93 8.5-12.8 14-18 2.61-2.54 5.03-5.04 7.31-7.88 3.16-3.84 6.89-6.92 10.7-10.1 1.02-0.881 2.04-1.76 3.05-2.64 6.4-5.52 12.9-10.7 19.9-15.4 0.701-0.476 1.4-0.951 2.12-1.44 2.28-1.54 4.58-3.05 6.88-4.56 0.969-0.656 1.94-1.31 2.94-1.99 17.8-11.8 36.9-21 57.1-28 2.38-0.854 4.75-1.71 7.12-2.56 2.29-0.821 4.58-1.63 6.88-2.44 0.664-0.246 1.33-0.492 2.01-0.745 6.2-2.21 12.4-3.35 18.9-4.38 2.05-0.333 4.1-0.669 6.15-1.01 0.896-0.143 1.79-0.286 2.71-0.434 2.23-0.338 2.23-0.338 4.2-1.43 2.5-0.393 4.99-0.746 7.5-1.06 0.69-0.0909 1.38-0.182 2.09-0.275 5.11-0.662 5.11-0.662 7.41-0.662z" fill="#55C9A4"/>
<path transform="translate(33,578)" d="m0 0c0.99 0.33 1.98 0.66 3 1 2.21 0.105 2.21 0.105 5-1v2c0.99 0.33 1.98 0.66 3 1v3h-2c-0.904 5.14-0.98 9.86-0.562 15.1 1.34 19.5 1.34 19.5 0.0273 25.3-0.645 3.64-0.315 7.15-0.0273 10.8 0.103 1.43 0.206 2.86 0.309 4.29 0.0838 1.16 0.168 2.32 0.254 3.52v2h4v9c-1.32-0.66-2.64-1.32-4-2 0.00524 1.01 0.0105 2.03 0.0159 3.07 0.0181 3.76 0.0296 7.53 0.0391 11.3 0.00503 1.63 0.0119 3.26 0.0205 4.89 0.0121 2.34 0.0178 4.68 0.0222 7.02 0.00516 0.728 0.0103 1.46 0.0156 2.21 3.46e-4 3.12-0.119 5.54-1.11 8.52-2.06 0.688-2.06 0.688-4 1-0.874 3.5-0.869 5.56 0 9 0.0915 1.55 0.131 3.1 0.133 4.64 0.0029 1.45 0.0029 1.45 0.00586 2.92-0.00451 1.07-0.00902 2.14-0.0137 3.24-0.00193 1.13-0.00387 2.26-0.00586 3.42-0.0928 19.9-0.649 39.8-1.12 59.8-1.32 0.33-2.64 0.66-4 1 0.0619-1.09 0.124-2.19 0.188-3.31 0.146-3.56 0.146-3.56-1.5-5.56-1.81-1.31-1.81-1.31-4.69-2.12 0.33-0.66 0.66-1.32 1-2 0.66 0.33 1.32 0.66 2 1v-3c-2.64 0.99-5.28 1.98-8 3v-2c-3.12 1.31-3.12 1.31-5 4-0.0689 1.37-0.0847 2.75-0.0625 4.12 0.0206 1.28 0.0412 2.56 0.0625 3.88h3c2.44 6.61 2.23 13 2.12 19.9-0.00902 1.16-0.018 2.32-0.0273 3.52-0.0234 2.85-0.0563 5.7-0.0977 8.54h2c0.844-3.98 1.45-7.97 2-12h1v19h3c-0.33-0.99-0.66-1.98-1-3-0.128-2.67-0.0439-5.32 0-8 0.66-0.33 1.32-0.66 2-1 0.33 1.98 0.66 3.96 1 6v-9h5v8h5c-0.0206 1.11-0.0412 2.23-0.0625 3.38-0.00773 3.09 0.204 6.05 0.59 9.11 0.64 6.16 0.39 12.2 0.0977 18.4-0.0438 1.11-0.0877 2.23-0.133 3.38-0.387 8.92-0.387 8.92-1.49 12.8h-2v6h-3c-0.33-1.65-0.66-3.3-1-5-0.722 0.0825-1.44 0.165-2.19 0.25-3.68-0.327-5.2-1.71-7.81-4.25v-2c-0.99-0.33-1.98-0.66-3-1-0.66 0.66-1.32 1.32-2 2-1-7.62-1-7.62-1-11h2c0.66 1.65 1.32 3.3 2 5-0.0116-0.603-0.0232-1.21-0.0352-1.83l-0.0273-2.42c-0.0116-0.789-0.0232-1.58-0.0352-2.39 0.0938-2.27 0.465-4.19 1.1-6.36-2.51 1.26-2.87 2.5-4 5-0.268-1.07-0.536-2.14-0.812-3.25-0.924-3.65-0.924-3.65-2.81-5.88-1.76-2.4-1.62-3.96-1.38-6.88l4-2c-0.33-2.31-0.66-4.62-1-7-1.32-0.33-2.64-0.66-4-1v-3c-0.99 0.99-0.99 0.99-2 2-0.33-1.65-0.66-3.3-1-5h-2c0.0206-0.804 0.0412-1.61 0.0625-2.44 0.234-2.5 0.234-2.5-1.06-3.56-0.0474-1.52-0.0371-3.04 0-4.56 0.037-3.25-0.0398-6.35-0.5-9.56-0.745-5.77-1.31-10.6 1.5-15.9v-2.94c0-3.21 0.645-5.18 2-8.06-0.66 0.33-1.32 0.66-2 1-0.858-5.7-1.06-11-0.688-16.8 0.0706-1.17 0.0706-1.17 0.143-2.37 0.516-7.75 1.59-15.4 3.54-22.9-0.99-0.33-1.98-0.66-3-1v-26c0.99-0.495 0.99-0.495 2-1 0.359-1.66 0.689-3.33 1-5 1.06-2.31 1.06-2.31 2-4 0.66 0.33 1.32 0.66 2 1-0.309 0.866-0.619 1.73-0.938 2.62-0.987 3.14-1.6 6.13-2.06 9.38l1-1 3-1v-14h-2c-0.369-14.8-0.369-14.8 2-21h1v5h3c0.33-1.32 0.66-2.64 1-4 0.66 0.99 1.32 1.98 2 3h3c0.169-2.23 0.335-4.46 0.5-6.69 0.0928-1.24 0.186-2.48 0.281-3.76 0.177-2.87 0.263-5.68 0.219-8.55-3.34-0.0743-5.8-0.0655-9 1-0.853-5.83-1.48-10.4 1-16h2v2c2.85-0.702 2.85-0.702 4-2 0.0724-2.02 0.0838-4.04 0.0625-6.06-0.00902-1.1-0.018-2.21-0.0273-3.35-0.0116-0.855-0.0232-1.71-0.0352-2.59-0.99-0.33-1.98-0.66-3-1v-3h2v-11h-3c0.66-1.65 1.32-3.3 2-5 1.32 0.66 2.64 1.32 4 2-0.33 0.66-0.66 1.32-1 2h4c-0.0413-0.701-0.0825-1.4-0.125-2.12 0.143-3.28 1.03-5.79 2.12-8.88 0.361-1.66 0.705-3.33 1-5z" fill="#55C9A4"/>
<path transform="translate(338,942)" d="m0 0c4.66-0.245 8.79 0.47 13.3 1.43 2.64 0.556 5.28 1.04 7.94 1.5 11.1 2.03 22 4.49 32.8 8.06 0.843 0.275 1.69 0.549 2.55 0.833 12.7 4.17 24.6 8.87 36.4 15.2 2.12 1.05 4.25 2.09 6.38 3.12 15.4 7.73 15.4 7.73 19.6 13.9 3.62 3.8 6.99 7.04 11.8 9.31 0.742 0.557 1.48 1.11 2.25 1.69 0.125 2.88 0.125 2.88 0 6 1.3 2.67 2.59 4.59 4.69 6.69l1.31 1.31v2h-3c-0.66-1.32-1.32-2.64-2-4v4c-4.45 0.495-4.45 0.495-9 1l1 1c0.99-0.33 1.98-0.66 3-1v2c1.32-0.66 2.64-1.32 4-2 0.33 1.32 0.66 2.64 1 4-1.32 0.33-2.64 0.66-4 1 0.351 0.928 0.701 1.86 1.06 2.81 0.938 3.19 0.938 3.19-0.0625 6.19-2.67-1.33-5.33-2.67-8-4-0.66 0.99-1.32 1.98-2 3-3.63 0.188-3.63 0.188-7 0-1.91-3.21-2.22-5.54-2.12-9.25 0.018-0.892 0.0361-1.78 0.0547-2.7 0.0232-0.675 0.0464-1.35 0.0703-2.05h-5v-5c-2.97-0.33-5.94-0.66-9-1-0.495-1.98-0.495-1.98-1-4h-2v-4h-7v4h-6v-10h-2v-3c-0.552 0.164-1.1 0.327-1.67 0.496-2.59 0.562-4.93 0.601-7.58 0.566-0.892-0.00902-1.78-0.018-2.7-0.0273-0.675-0.0116-1.35-0.0232-2.05-0.0352-0.33-0.99-0.66-1.98-1-3-3.02-1.04-3.02-1.04-6.56-1.69-1.8-0.377-1.8-0.377-3.63-0.762-0.927-0.182-1.85-0.364-2.81-0.551v-2l-4-1v-2h-2v-2h-5c-0.33-0.99-0.66-1.98-1-3h-2v-4c1.65-0.33 3.3-0.66 5-1v-5c-2.51 1.26-2.87 2.5-4 5h-5v5c-0.928-0.278-0.928-0.278-1.88-0.562-2.17-0.674-2.17-0.674-4.12 0.562-2.01-0.281-4.01-0.611-6-1 0.278-0.897 0.278-0.897 0.562-1.81 0.658-2.35 0.658-2.35-0.562-5.19 1.25-1.5 1.25-1.5 3-3h4v-3h2v-2c-0.722 0.186-1.44 0.371-2.19 0.562-2.96 0.461-4.94 0.234-7.81-0.562-0.33-0.33-0.66-0.66-1-1-1.64-0.0167-3.28 0.037-4.91 0.121-0.989 0.0483-1.98 0.0967-3 0.146-1.04 0.0561-2.08 0.112-3.15 0.17-1.57 0.0783-1.57 0.0783-3.17 0.158-2.59 0.13-5.18 0.265-7.77 0.404v3 4c2.97 0.33 5.94 0.66 9 1 1 8.75 1 8.75 1 11h-7l2-4c-1.98-0.66-3.96-1.32-6-2 0.186 0.639 0.371 1.28 0.562 1.94 0.144 0.681 0.289 1.36 0.438 2.06-1 1-1 1-3.56 1.06-0.804-0.0206-1.61-0.0412-2.44-0.0625v-2c-0.897-0.0928-0.897-0.0928-1.81-0.188-3.06-1.14-3.65-3.02-5.19-5.81-0.66-0.33-1.32-0.66-2-1-0.135-2.1-0.232-4.21-0.312-6.31-0.058-1.17-0.116-2.34-0.176-3.55 0.488-3.14 0.488-3.14 3.01-5.05 1.23-0.536 1.23-0.536 2.48-1.08-1.32-0.33-2.64-0.66-4-1v-2h2v-5c2.08 0.31 4.17 0.623 6.25 0.938 1.16 0.174 2.32 0.348 3.52 0.527 2.47 0.408 4.83 0.874 7.23 1.54-0.99-1.65-1.98-3.3-3-5z" fill="#55C8A4"/>
<path transform="translate(640,1223)" d="m0 0h5c1.56 3.12 1.23 6.46 1.3 9.9 0.0193 0.838 0.0385 1.68 0.0584 2.54 0.0634 2.87 0.118 5.73 0.172 8.6 0.0204 1.02 0.0408 2.03 0.0619 3.08 0.602 30.3 0.749 60.5 0.928 90.8 0.0349 5.88 0.0716 11.8 0.109 17.6 0.352 55.5 0.514 111 0.373 166 0.99 0.33 1.98 0.66 3 1h-2c0.33 3.63 0.66 7.26 1 11 1.32-0.66 2.64-1.32 4-2 3.42 0 6.78 0.25 10.2 0.5 1.27 0.0928 2.54 0.186 3.86 0.281 0.976 0.0722 1.95 0.144 2.96 0.219-1.81 1.56-1.81 1.56-4 3-0.99-0.33-1.98-0.66-3-1-2.35 0.598-4.69 1.26-7 2 4.62 0.33 9.24 0.66 14 1-4 3-4 3-6.75 2.69-1.11-0.34-1.11-0.34-2.25-0.688-0.33 0.66-0.66 1.32-1 2-0.99 0.66-1.98 1.32-3 2 1.65-0.33 3.3-0.66 5-1-0.25 1.88-0.25 1.88-1 4-2.58 1.72-3.85 2-7 2-0.33 1.98-0.66 3.96-1 6-1.32-0.33-2.64-0.66-4-1 0.33-1.32 0.66-2.64 1-4h-1c-0.33 1.65-0.66 3.3-1 5h-2c-0.195 1.62-0.381 3.25-0.562 4.88-0.104 0.905-0.209 1.81-0.316 2.74-0.318 2.4-0.318 2.4 0.879 4.38-0.99 0.99-1.98 1.98-3 3-0.66-1.32-1.32-2.64-2-4-2.31 0.33-4.62 0.66-7 1v-3c1.32 0.33 2.64 0.66 4 1 0.0545-1.42 0.093-2.83 0.125-4.25 0.0232-0.789 0.0464-1.58 0.0703-2.39-0.216-2.61-0.803-4.16-2.2-6.36-0.66-0.33-1.32-0.66-2-1v-3h-2v-2h2c-0.66-1.65-1.32-3.3-2-5h2c0.33-4.62 0.66-9.24 1-14 0.66 0.33 1.32 0.66 2 1-0.33 4.29-0.66 8.58-1 13h2c-0.00115-1.18-0.00229-2.36-0.00347-3.58-0.03-34.5 0.0617-69 0.197-103 0.0287-7.34 0.0564-14.7 0.084-22 0.0492-13.1 0.0992-26.1 0.15-39.2 0.049-12.7 0.0975-25.3 0.146-38 0.00299-0.787 0.00597-1.57 0.00905-2.39 0.015-3.95 0.03-7.9 0.045-11.9 0.123-32.5 0.248-65 0.373-97.5z" fill="#55C9A4"/>
<path transform="translate(1198,735)" d="m0 0h1v16c0.33-2.64 0.66-5.28 1-8 0.99-0.33 1.98-0.66 3-1 0.33-0.66 0.66-1.32 1-2-0.0116 0.701-0.0232 1.4-0.0352 2.12-0.0427 4.48-0.0619 8.82 0.66 13.2 0.38 3.68 0.0837 5.41-1.62 8.62-0.99-0.99-1.98-1.98-3-3-0.33 2.97-0.66 5.94-1 9 0.99-0.99 1.98-1.98 3-3-0.242 6.04-0.994 11.3-3.06 17-2.44 7.31-2.22 14.2-1.98 21.8 0.0853 3.24-0.251 6.01-0.957 9.19-0.261 2.77-0.411 5.54-0.562 8.31-0.0648 1.11-0.0648 1.11-0.131 2.24-0.105 1.81-0.206 3.63-0.307 5.44-0.99 0.33-1.98 0.66-3 1 0.0262 0.984 0.0524 1.97 0.0793 2.98 0.0905 3.65 0.148 7.3 0.195 11 0.0251 1.58 0.0593 3.16 0.103 4.74 0.0607 2.27 0.089 4.54 0.111 6.81 0.0258 0.706 0.0516 1.41 0.0782 2.14 0.00114 2 0.00114 2-0.566 5.37-2.48 1.74-2.48 1.74-5 3-0.896 3.6-0.896 3.6-1 7-1.32 0.33-2.64 0.66-4 1v2h-6c-0.268 0.722-0.536 1.44-0.812 2.19-1.19 2.81-1.19 2.81-2.75 5.19-1.75 3.2-2.08 6.02-2.44 9.62h-1c-0.33-2.64-0.66-5.28-1-8-1.32 0.99-2.64 1.98-4 3-0.33-2.64-0.66-5.28-1-8-2.97-0.33-5.94-0.66-9-1-0.33-0.99-0.66-1.98-1-3-0.99-0.33-1.98-0.66-3-1-2-3-2-3-2-6h-4v-2h2v-3h-2v-2h2v-5c3.3 0.33 6.6 0.66 10 1 0.33 0.99 0.66 1.98 1 3h2v-4c1.48-0.495 1.48-0.495 3-1 0.33-1.65 0.66-3.3 1-5h7v-2h6c0.33 0.99 0.66 1.98 1 3 0.99 0.495 0.99 0.495 2 1 0.33-9.24 0.66-18.5 1-28 0.66-0.33 1.32-0.66 2-1 0.155-1.21 0.155-1.21 0.312-2.44 0.227-0.846 0.454-1.69 0.688-2.56 2.47-0.99 2.47-0.99 5-2v-13h-2v-3h2v-7h-4c-0.029-3.12-0.0468-6.25-0.0625-9.38-0.00838-0.889-0.0168-1.78-0.0254-2.7-0.00322-0.851-0.00645-1.7-0.00977-2.58-0.00524-0.786-0.0105-1.57-0.0159-2.38 0.114-1.97 0.114-1.97 1.11-3.97 0.9-7.64 1.16-15.3 1-23 2.33-0.0424 4.67-0.0409 7 0 1 1 1 1 1.1 3.47-0.0116 1-0.0232 2-0.0352 3.03-0.00902 1-0.018 2-0.0273 3.03-0.0116 0.815-0.0232 1.63-0.0352 2.47v1c1.72-2.77 1.72-2.77 3-6-0.299-0.547-0.598-1.09-0.906-1.66-1.69-3.61-1.3-7.16-1.22-11.1 0.00902-0.793 0.018-1.59 0.0273-2.4 0.0235-1.95 0.0594-3.9 0.0977-5.85 0.99-0.33 1.98-0.66 3-1v-2z" fill="#55C9A4"/>
<path transform="translate(1122,588)" d="m0 0h2c0.61 15.6 1.08 31.1 0.98 46.7-0.0391 10.5 0.433 20.9 1.02 31.3 0.66 0.33 1.32 0.66 2 1h-2c-0.0496 4.59-0.0858 9.18-0.11 13.8-0.01 1.56-0.0236 3.12-0.041 4.68-0.0244 2.25-0.0356 4.5-0.0444 6.75-0.0103 0.691-0.0206 1.38-0.0313 2.09-9.89e-4 4.32 0.778 7.67 2.23 11.7 2.07 13.5 1.11 27.7 1.06 41.4-0.00502 2.49-0.00959 4.98-0.0137 7.47-0.0109 6.05-0.0276 12.1-0.0488 18.2-1.32 0.33-2.64 0.66-4 1 0.33 3.3 0.66 6.6 1 10h2c0.33 1.98 0.66 3.96 1 6-0.99 0.33-1.98 0.66-3 1-0.495 6.43-0.495 6.43-1 13h3v4h-2c-0.33 5.28-0.66 10.6-1 16h3v3h-2c-0.66 16.5-1.32 33-2 50h-2c-0.0376-0.913-0.0376-0.913-0.0759-1.84-0.118-2.82-0.239-5.65-0.362-8.47-0.0437-1.01-0.0873-2.01-0.132-3.05-0.273-5.99-0.643-11.9-1.34-17.9-0.0425-0.857-0.0425-0.857-0.0859-1.73 0.33-0.33 0.66-0.66 1-1-0.09-2.02-0.246-4.05-0.438-6.06-0.102-1.1-0.204-2.21-0.309-3.35-0.0838-0.855-0.168-1.71-0.254-2.59h-3v-4h3c0.33-4.29 0.66-8.58 1-13h-2c-0.143-7.43-0.143-7.43 1-11h2c-0.327-1.19-0.653-2.38-0.99-3.61-1.44-6.52-1.24-13-1.17-19.6 0.00664-1.39 0.0122-2.78 0.0169-4.17 0.0113-2.93 0.0281-5.87 0.0495-8.8 0.0546-7.58 0.072-15.2 0.0898-22.7 0.00204-0.744 0.00409-1.49 0.00619-2.25 0.0321-12.5-0.108-25-0.502-37.5-0.0241-0.767-0.0482-1.53-0.073-2.32-0.129-4-0.27-7.99-0.427-12h-2v-6c0.99-0.495 0.99-0.495 2-1 0.658-3.03 0.658-3.03 1-6h-3v-13h3c-0.0838-1.04-0.168-2.08-0.254-3.15-0.103-1.41-0.206-2.82-0.309-4.23-0.0561-0.679-0.112-1.36-0.17-2.06-0.327-4.66-0.0698-9.03 0.459-13.7 0.58-6.16 0.656-12.4 0.836-18.5 0.0433-1.4 0.0869-2.8 0.131-4.2 0.105-3.39 0.207-6.78 0.307-10.2h2c-0.33-6.6-0.66-13.2-1-20z" fill="#52CCA5"/>
<path transform="translate(681,53)" d="m0 0c0.58 0.168 1.16 0.335 1.76 0.508 5.09 1.33 8.28 1.78 13.2-0.508 0.33 1.32 0.66 2.64 1 4 0.66-0.33 1.32-0.66 2-1-0.33-0.66-0.66-1.32-1-2 0.99-0.33 1.98-0.66 3-1 0.33 1.65 0.66 3.3 1 5h5v2c1.32 0.33 2.64 0.66 4 1v3c0.835 0.124 0.835 0.124 1.69 0.25 3.16 1.02 4.97 2.4 7.31 4.75 0.812 3.25 0.812 3.25 1 6 0.626-0.0116 1.25-0.0232 1.9-0.0352 0.817-0.00902 1.63-0.018 2.48-0.0273 0.812-0.0116 1.62-0.0232 2.46-0.0352 2.16 0.0977 2.16 0.0977 4.16 1.1v-2h4c0.66-0.66 1.32-1.32 2-2 2 1.37 2 1.37 4 3v2c-1.49 0.495-1.49 0.495-3 1 0.99 0.66 1.98 1.32 3 2 0.33-1.32 0.66-2.64 1-4 1.49 0.495 1.49 0.495 3 1 0.99-1.48 0.99-1.48 2-3 2.5 2.06 2.5 2.06 5 5 0.312 3.81 0.312 3.81 0 7-0.71-0.0116-1.42-0.0232-2.15-0.0352-0.919-0.00902-1.84-0.018-2.79-0.0273-0.917-0.0116-1.83-0.0232-2.78-0.0352-2.25-0.162-2.25-0.162-3.29 1.1-1.52 0.0718-3.04 0.0839-4.56 0.0625-0.826-0.00902-1.65-0.018-2.5-0.0273-0.638-0.0116-1.28-0.0232-1.93-0.0352v3h6c0.124 0.639 0.247 1.28 0.375 1.94 0.206 0.681 0.413 1.36 0.625 2.06 0.66 0.33 1.32 0.66 2 1v2c1.98 0.33 3.96 0.66 6 1 2.01 5.78 2.22 10.9 2 17 1.98 0.66 3.96 1.32 6 2v10c-0.33-0.99-0.66-1.98-1-3h-4c-0.33-1.65-0.66-3.3-1-5h-9v-6c-1.32-0.33-2.64-0.66-4-1v-2h-5c-0.33-0.99-0.66-1.98-1-3h-3c-0.124-0.639-0.247-1.28-0.375-1.94-0.206-0.681-0.413-1.36-0.625-2.06l-2-1c-0.125-5.75-0.125-5.75 1-8-1.24 0.0619-2.48 0.124-3.75 0.188-3.03 0.0161-4.07-0.081-6.75-1.69l-1.5-1.5h8v-4c-1.03 0.0412-2.06 0.0825-3.12 0.125-4.47-0.144-7.9-1.14-11.9-3.12v-3h2v-2h-2v-3h2v-2h3v-2h-2v-2c-4.95 0.495-4.95 0.495-10 1v-2c-0.606 0.0232-1.21 0.0464-1.84 0.0703-6.31 0.136-12-0.608-18.2-2.07v-5h-4v-8h2v2h3v-3z" fill="#55C9A4"/>
<path transform="translate(1126,509)" d="m0 0c2 3 2 3 2 6 0.99-1.98 1.98-3.96 3-6 2 3 2 3 2 6 1.42 0.155 1.42 0.155 2.88 0.312 3.12 0.688 3.12 0.688 5.12 3.69 0.125 2.69 0.125 2.69 0 5h-4v5h5c0.33 2.97 0.66 5.94 1 9 0.66-1.32 1.32-2.64 2-4h2c0.33 6.93 0.66 13.9 1 21 0.66-2.97 1.32-5.94 2-9 2.76 2.76 2.58 5.21 3 9 0.66-2.97 1.32-5.94 2-9 2.76 2.76 2.52 5.21 3 9 0.33 0.33 0.66 0.66 1 1 0.0406 1.67 0.0427 3.33 0 5h2c0.049 1.29 0.098 2.58 0.148 3.91 0.0751 1.72 0.151 3.43 0.227 5.15 0.0309 0.848 0.0619 1.7 0.0938 2.57 0.237 5.11 0.912 9.52 2.53 14.4h3v2h4c0.121 0.797 0.242 1.59 0.367 2.41 0.853 5.39 1.8 10.4 3.63 15.6 0.724 2.99 1.37 5.99 2 9h2c2 3 2 3 2 6h5c1.46 2.65 2 3.89 2 7 0.508 5.28 1.77 9.26 4 14-0.66 0.66-1.32 1.32-2 2-3.3-0.99-6.6-1.98-10-3-0.33-5.28-0.66-10.6-1-16h-2v3c-2.71 1.35-5.01 1.07-8 1-1.35-2.71-1.07-5.01-1-8h-2v-6h2v-9h-2v-6h-5c-0.049-0.699-0.098-1.4-0.148-2.12-0.0748-0.91-0.15-1.82-0.227-2.76-0.104-1.36-0.104-1.36-0.211-2.74-0.21-2.56-0.21-2.56-2.41-4.38v-3h-2c0.0206-0.928 0.0412-1.86 0.0625-2.81 0.0952-3.21 0.0952-3.21-1.06-6.19h-5c-0.33-2.64-0.66-5.28-1-8h-3v-8h-6c-0.33-2.64-0.66-5.28-1-8h-2v-10h2v-6h-3c-0.307-1.68-0.307-1.68-0.621-3.39-0.272-1.47-0.544-2.95-0.816-4.42-0.135-0.738-0.269-1.48-0.408-2.24-0.568-3.06-1.17-5.99-2.15-8.95h-6c-1.12-2.81-1.12-2.81-2-6 0.66-0.99 1.32-1.98 2-3z" fill="#55C9A4"/>
<path transform="translate(558,659)" d="m0 0h6c1 3.88 1 3.88 1 5 2.48 0.495 2.48 0.495 5 1-0.506 2.17-1 4-2 6h-2c0.33 1.65 0.66 3.3 1 5 2.97 0.33 5.94 0.66 9 1-0.99 2.48-0.99 2.48-2 5 0.66 0.33 1.32 0.66 2 1v4h3c-0.165 0.577-0.33 1.15-0.5 1.75-0.645 2.52-0.645 2.52-0.5 6.25-1 2.25-1 2.25-2 4 0.66 0.33 1.32 0.66 2 1v-4h2c1.93 15.2 1.93 15.2 0 22-3.47 0.495-3.47 0.495-7 1 0.33 0.99 0.66 1.98 1 3 0.273 4.83-0.241 8.49-2 13-1.65-0.33-3.3-0.66-5-1v-4c-1.65-0.33-3.3-0.66-5-1v-19c-2.97 0.495-2.97 0.495-6 1-2.68 0.112-5.32 0.0463-8 0v-7h12v-4c-0.897-0.186-0.897-0.186-1.81-0.375-2.19-0.625-2.19-0.625-5.19-2.62v-2h-5v-11c2.58-0.195 5.17-0.381 7.75-0.562 0.73-0.0561 1.46-0.112 2.21-0.17 3.59-0.245 6.59-0.264 10 0.732v-4h-4v-3c-2.12-1.12-2.12-1.12-5-2-2.86-3.71-3.48-6.37-3-11 1-2.88 1-2.88 2-5z" fill="#55C9A4"/>
<path transform="translate(764 181)" d="m0 0c1.37 0.0174 1.37 0.0174 2.78 0.0352 0.919 0.00902 1.84 0.018 2.79 0.0273 0.71 0.0116 1.42 0.0232 2.15 0.0352 1.06 1.81 1.06 1.81 2 4-0.33 0.99-0.66 1.98-1 3h-2c0.114 1.48 0.241 2.96 0.375 4.44 0.0696 0.824 0.139 1.65 0.211 2.5 0.137 0.682 0.273 1.36 0.414 2.07 0.66 0.33 1.32 0.66 2 1-0.99 7.92-1.98 15.8-3 24h-2v2c-1.49 0.495-1.49 0.495-3 1v3c-0.308 1.9-0.644 3.8-1 5.69-0.186 0.994-0.371 1.99-0.562 3.01-0.144 0.759-0.289 1.52-0.438 2.3h-3v-5h-5c-0.205-0.927-0.41-1.85-0.621-2.81-0.404-1.8-0.404-1.8-0.816-3.63-0.267-1.19-0.534-2.39-0.809-3.62-0.455-2.81-0.455-2.81-1.75-3.94-0.0406-1.67-0.0427-3.33 0-5h-6v-7h3c0.495-4.45 0.495-4.45 1-9h-2c-0.0545-1.42-0.093-2.83-0.125-4.25-0.0232-0.789-0.0464-1.58-0.0703-2.39 0.212-2.57 0.909-4.15 2.2-6.36h3c0.33-1.32 0.66-2.64 1-4 1.13 0.0206 2.27 0.0412 3.44 0.0625 3.74-0.0656 3.6-1.02 6.85-1.16z" fill="#55C9A4"/>
<path transform="translate(1188,653)" d="m0 0h4c0.33 1.65 0.66 3.3 1 5h5c0.33 0.99 0.66 1.98 1 3h4c0.228 1.99 0.456 3.97 0.684 5.96 0.288 2.24 0.288 2.24 1.32 5.04 0.128 2.67 0.0439 5.32 0 8-2.31 0.99-4.62 1.98-7 3-1.09 7.87-1.12 15.6-1.06 23.6 0.00451 1.29 0.00902 2.59 0.0137 3.92 0.0117 3.17 0.0281 6.34 0.0488 9.51h-5v-5h-6v-2h-2c-1.26-11.4-1.4-21.8 0.785-33.1 1.68-8.89 2.42-17.9 3.21-26.9z" fill="#55C9A4"/>
<path transform="translate(573,1248)" d="m0 0c2.13 3.2 2.25 3.98 2.25 7.65 0.00398 0.96 0.00796 1.92 0.0121 2.91-0.00583 1.06-0.0117 2.11-0.0177 3.2 0.00171 1.12 0.00342 2.24 0.00518 3.4 0.00331 3.78-0.00773 7.55-0.0186 11.3-0.00168 2.7-3.36e-4 5.4 8.85e-4 8.1 0.00105 5.82-0.00524 11.6-0.0165 17.5-0.0162 8.42-0.0215 16.8-0.024 25.3-0.00438 13.7-0.0177 27.3-0.0366 41-0.0184 13.3-0.0325 26.5-0.041 39.8-5.25e-4 0.818-0.00105 1.64-0.00159 2.48-0.00261 4.1-0.00514 8.2-0.00762 12.3-0.0207 34-0.056 68.1-0.101 102-0.66 0.33-1.32 0.66-2 1-0.151-31.7-0.296-63.3-0.433-95-0.0163-3.75-0.0326-7.5-0.0489-11.3-0.00325-0.747-0.00651-1.49-0.00986-2.26-0.0525-12-0.109-24.1-0.167-36.1-0.0595-12.4-0.115-24.8-0.166-37.1-0.0317-7.62-0.0667-15.2-0.106-22.9-0.0299-5.88-0.0538-11.8-0.0757-17.6-0.00977-2.39-0.0214-4.77-0.0351-7.16-0.0921-16.2 0.29-32.4 1.04-48.6z" fill="#51CAA4"/>
<path transform="translate(495,284)" d="m0 0h13v2c3.47-0.458 6.67-0.891 10-2v10h5c0.33 2.97 0.66 5.94 1 9 2.48 0.99 2.48 0.99 5 2v2c1.32 0.33 2.64 0.66 4 1v2c0.87-0.126 0.87-0.126 1.76-0.254 4.67-0.608 8.6-0.818 13.2 0.254 0.125 7.75 0.125 7.75-1 10-3.06 0.625-3.06 0.625-6 1-0.178-0.616-0.356-1.23-0.539-1.87-2.19-3.2-5.24-3.47-8.84-4.26-8.23-1.91-8.23-1.91-11.6-3.88v-2h-3v-2c-0.784-0.124-1.57-0.248-2.38-0.375-2.62-0.625-2.62-0.625-4.62-2.62-1.37-3.62-2.33-7.19-3-11h-2c-0.186-0.598-0.371-1.2-0.562-1.81-2.1-3.2-4.96-3.79-8.44-5.19-0.33-0.66-0.66-1.32-1-2z" fill="#52CCA5"/>
<path transform="translate(630,327)" d="m0 0h10v2h2v3h-2v2h2v2c2.31 0.33 4.62 0.66 7 1l-2 1v4l2 1h-2v5l-2 1v-2c-1.42 0.495-1.42 0.495-2.88 1-3.12 1-3.12 1-5.12 1v7h-10c0-3 0-3 1-4-0.99-0.66-1.98-1.32-3-2 0.474-0.557 0.949-1.11 1.44-1.69 1.69-2.5 2.15-4.36 2.56-7.31h-2c-0.33 0.66-0.66 1.32-1 2h-13c-1.07-3.2-1.07-5.66-1-9 1.62-0.195 3.25-0.381 4.88-0.562 0.905-0.104 1.81-0.209 2.74-0.316 2.38-0.121 2.38-0.121 4.38 0.879v3c-0.99 0.495-0.99 0.495-2 1l4 2c-0.0619-1.89-0.0619-1.89-0.125-3.81-0.114-3.48 0.0657-4.1 2.12-7.19h2v-2z" fill="#55C9A4"/>
<path transform="translate(664,1469)" d="m0 0h6c2.74 6.84 2.43 12.9 1 20h-5v7h-4v16h4v6h-10c-0.905-5.38-1.13-10.5-1.1-16 0.00141-0.834 0.00283-1.67 0.00429-2.53 0.00556-2.64 0.0181-5.28 0.0309-7.92 0.00502-1.8 0.00958-3.6 0.0137-5.4 0.011-4.39 0.0282-8.78 0.0488-13.2h7v4h2v-8z" fill="#56C9A5"/>
<path transform="translate(556,581)" d="m0 0h6v2h2v5h4c0.33 1.65 0.66 3.3 1 5 2.97 0.495 2.97 0.495 6 1 0.66-1.65 1.32-3.3 2-5 0.99 0.99 1.98 1.98 3 3 0.99-0.99 1.98-1.98 3-3 4.02 4.85 3.28 10 3 16-0.99 0.33-1.98 0.66-3 1-0.33-0.66-0.66-1.32-1-2l-5 5c-1.65-0.66-3.3-1.32-5-2-0.33 0.66-0.66 1.32-1 2v-4c-0.33-0.66-0.66-1.32-1-2-2.32-0.652-2.32-0.652-5-1.06-4.91-0.843-4.91-0.843-6-1.94-0.0718-1.52-0.0839-3.04-0.0625-4.56 0.00902-0.826 0.018-1.65 0.0273-2.5 0.0116-0.638 0.0232-1.28 0.0352-1.93-2.31-0.33-4.62-0.66-7-1v-6h4v-3z" fill="#55C9A4"/>
<path transform="translate(669,1088)" d="m0 0c0.33 1.32 0.66 2.64 1 4h4c1.16 3.47 1.07 6.36 1 10h-3v7c-1.65 0.66-3.3 1.32-5 2 0.33 0.99 0.66 1.98 1 3 0.128 2.67 0.0439 5.32 0 8-0.99 0.495-0.99 0.495-2 1-0.23 1.97-0.458 3.95-0.66 5.92-0.472 2.89-1.51 4.82-3.34 7.08h-3c0.0206 0.969 0.0412 1.94 0.0625 2.94-0.0625 3.06-0.0625 3.06-1.06 4.06-3.66 0.136-6.51 0.165-10-1 0.25-1.88 0.25-1.88 1-4 0.66-0.309 1.32-0.619 2-0.938 0.66-0.351 1.32-0.701 2-1.06 0.737-2.52 0.737-2.52 1-5 0.495-0.495 0.495-0.495 1-1 0.235-2.35 0.414-4.71 0.562-7.06 0.0838-1.29 0.168-2.58 0.254-3.91 0.0606-0.999 0.121-2 0.184-3.03 1.32 0.33 2.64 0.66 4 1-0.186 0.866-0.371 1.73-0.562 2.62-0.445 3.43-0.0515 6 0.562 9.38-0.33 0.66-0.66 1.32-1 2h2c-0.0116-1.07-0.0232-2.14-0.0352-3.25-0.00938-1.4-0.0185-2.79-0.0273-4.19-0.0126-1.06-0.0126-1.06-0.0254-2.14-0.00865-1.81 0.0357-3.61 0.0879-5.42 0.33-0.33 0.66-0.66 1-1 0.245-3.3 0.384-6.59 0.523-9.9 0.509-3.31 1.01-4.03 3.48-6.1-0.186-0.578-0.371-1.15-0.562-1.75-0.73-3.76 1.57-6.11 3.56-9.25z" fill="#55C9A4"/>
<path transform="translate(514,491)" d="m0 0h10c2 4 2 4 2 7-1.32-0.33-2.64-0.66-4-1-0.33 0.99-0.66 1.98-1 3h4v5h6v4h9v11h-6c0.33-1.32 0.66-2.64 1-4-0.782-0.182-1.56-0.364-2.37-0.551-1.01-0.251-2.02-0.503-3.07-0.762-1.01-0.244-2.02-0.487-3.06-0.738-0.826-0.313-1.65-0.626-2.5-0.949-0.33-0.99-0.66-1.98-1-3h-2c-0.33-1.65-0.66-3.3-1-5-1.09-0.309-2.19-0.619-3.31-0.938-2.24-0.646-4.47-1.32-6.69-2.06v-7h3c0.33-1.32 0.66-2.64 1-4z" fill="#55C9A4"/>
<path transform="translate(380,1316)" d="m0 0h7c0.33 1.98 0.66 3.96 1 6h6v-2c3.96-1.37 5.33-0.778 10 0v26h5c2.15 3.23 2.2 4.28 2 8-3.47-1.22-5.44-2.44-8-5-0.804-0.227-1.61-0.454-2.44-0.688-3.9-2-4.93-5.39-6.56-9.31 3.46-0.495 3.46-0.495 7-1-0.66-2.64-1.32-5.28-2-8-2.97-0.495-2.97-0.495-6-1v-5c-2.97-0.33-5.94-0.66-9-1v3h-2c-1.6-3.51-2.22-6.14-2-10z" fill="#52CCA5"/>
<path transform="translate(349,408)" d="m0 0h2v3c0.565 0.0251 1.13 0.0501 1.71 0.0759 2.55 0.116 5.11 0.239 7.66 0.362 0.889 0.0393 1.78 0.0786 2.7 0.119 1.28 0.0628 1.28 0.0628 2.58 0.127 0.786 0.0367 1.57 0.0733 2.38 0.111 1.97 0.205 1.97 0.205 3.97 1.21v2h-19v-2c-4.34 0.185-4.34 0.185-8 2-2.21 0.0943-4.42 0.117-6.63 0.114-0.693 1.46e-4 -1.39 2.92e-4 -2.1 4.43e-4 -2.3-6.99e-4 -4.6-0.00849-6.9-0.0163-1.59-0.00186-3.18-0.00329-4.77-0.00429-4.19-0.00383-8.39-0.0137-12.6-0.0247-4.28-0.0102-8.55-0.0148-12.8-0.0198-8.4-0.0107-16.8-0.0278-25.2-0.0488 0.33-0.99 0.66-1.98 1-3 0.729 0.00524 1.46 0.0105 2.21 0.0159 16.6 0.18 16.6 0.18 33.1-0.516 12.9-0.924 25.8-0.582 38.7-0.5v-3z" fill="#52CCA5"/>
<path transform="translate(290,1231)" d="m0 0c2.12-0.0539 4.25-0.0927 6.38-0.125 1.18-0.0232 2.37-0.0464 3.59-0.0703 3.04 0.195 3.04 0.195 5.04 2.2h-4c0.33 2.97 0.66 5.94 1 9h2v2h2v3h5v8c-1.11-0.0412-2.23-0.0825-3.38-0.125-3.67-0.286-3.67-0.286-5.62 2.12-3-3.62-3-3.62-3-7-0.598-0.0412-1.2-0.0825-1.81-0.125-3.29-1.31-3.76-3.76-5.19-6.88-0.66-0.33-1.32-0.66-2-1-1.27-7.18-1.27-7.18 0-11z" fill="#55C9A4"/>
<path transform="translate(1140,867)" d="m0 0h2v9h3v-4h2v12h5v2h4v9h-3v2h-13c-1.99-9.93-0.821-20 0-30z" fill="#56C9A5"/>
<path transform="translate(55,524)" d="m0 0h1v11h5v6h-3c0.0116 0.592 0.0232 1.18 0.0352 1.79 0.0135 1.19 0.0135 1.19 0.0273 2.39 0.0116 0.777 0.0232 1.55 0.0352 2.36-0.0977 2.46-0.0977 2.46-0.566 4.64-0.79 4.18-0.901 8.38-1.09 12.6-0.0432 0.884-0.0864 1.77-0.131 2.68-0.106 2.17-0.207 4.34-0.307 6.51h-4v-6h-2v2h-3c-0.575-3.73-1-7.21-1-11 2.48-0.495 2.48-0.495 5-1v-4h2c-0.0838-0.652-0.168-1.3-0.254-1.98-0.579-4.97-0.692-9.08 0.254-14 0-1.52-0.0225-3.04-0.0625-4.56-0.0546-3.59 0.386-6.19 2.06-9.44z" fill="#55C9A4"/>
<path transform="translate(450,1364)" d="m0 0c0.33 0.99 0.66 1.98 1 3h30c-1.32 0.33-2.64 0.66-4 1v2c-3.67 1.18-7.17 1.07-11 1v3h-4v3h-2c0.186 1.09 0.371 2.19 0.562 3.31 0.438 3.69 0.438 3.69-0.562 6.69h-2c0.33 2.31 0.66 4.62 1 7-3.3-0.99-6.6-1.98-10-3-0.124-0.969-0.248-1.94-0.375-2.94-0.309-1.52-0.309-1.52-0.625-3.06-0.66-0.33-1.32-0.66-2-1 4.33-0.928 7.67-0.928 12 0v-7h-4c-0.33-1.98-0.66-3.96-1-6h-3v-7z" fill="#52CCA5"/>
<path transform="translate(647,1147)" d="m0 0h8c0.832 5.72 1.12 11.2 1 17h-2c-0.103 0.619-0.206 1.24-0.312 1.88-0.688 2.12-0.688 2.12-3.69 4.12h-3v4h-5c-0.506-15.7-0.506-15.7 3.34-20.8 2.7-1.99 5.43-1.41 8.66-1.22v-2c-1.98 0.33-3.96 0.66-6 1-0.33-1.32-0.66-2.64-1-4z" fill="#55C9A4"/>
<path transform="translate(166,1034)" d="m0 0v8h-3c-0.33-0.66-0.66-1.32-1-2-2.97-0.495-2.97-0.495-6-1v19h9c0.33 0.66 0.66 1.32 1 2h-5v2c-5.35-0.324-8.28-3.5-12-7 1.75-3.88 1.75-3.88 4-5 0.658-3.03 0.658-3.03 1-6h-2v-2h-9c-0.33 0.66-0.66 1.32-1 2-0.33-2.97-0.66-5.94-1-9 3.42-0.168 6.83-0.334 10.2-0.5 0.968-0.0477 1.94-0.0954 2.93-0.145 1.4-0.0677 1.4-0.0677 2.83-0.137 0.859-0.0419 1.72-0.0838 2.6-0.127 2.13-0.0819 4.25-0.0918 6.38-0.0918z" fill="#52CCA5"/>
<path transform="translate(476,1035)" d="m0 0c1.63 0.141 3.25 0.288 4.88 0.438 0.905 0.0812 1.81 0.162 2.74 0.246 2.38 0.316 2.38 0.316 4.38 1.32v2h2c0.33 1.65 0.66 3.3 1 5h2v3c2.48 0.495 2.48 0.495 5 1-0.33 2.31-0.66 4.62-1 7h-2v-4c-0.743-0.144-1.49-0.289-2.25-0.438-2.27-0.464-4.51-0.981-6.75-1.56v-2h-2v2h-9c-0.0272-1.58-0.0465-3.17-0.0625-4.75-0.0116-0.882-0.0232-1.76-0.0352-2.67 0.0894-2.36 0.429-4.32 1.1-6.58z" fill="#55C9A4"/>
<path transform="translate(763,143)" d="m0 0h2c0.33 2.31 0.66 4.62 1 7 0.66-0.33 1.32-0.66 2-1v-2c1.65-0.33 3.3-0.66 5-1v4c-0.99 0.33-1.98 0.66-3 1v3c0.99-0.99 1.98-1.98 3-3 0.33 0.66 0.66 1.32 1 2 1.07-3.2 1.07-5.66 1-9h3c0.0809 1.79 0.139 3.58 0.188 5.38 0.0348 0.998 0.0696 2 0.105 3.02-0.0967 0.859-0.193 1.72-0.293 2.6-0.99 0.66-1.98 1.32-3 2v2.75c0 3.83-1.12 5.96-3 9.25-0.33-0.99-0.66-1.98-1-3-3.07 0.776-3.07 0.776-5 3v-3c-0.66-0.33-1.32-0.66-2-1 0.0116-0.987 0.0232-1.97 0.0352-2.99 0.00902-1.28 0.018-2.56 0.0273-3.88 0.0116-1.28 0.0232-2.55 0.0352-3.87 0.134-3.14 0.134-3.14-1.1-5.26-0.04-2-0.0435-4 0-6z" fill="#55C9A4"/>
<path transform="translate(725,812)" d="m0 0h5v2h3c0.33 2.31 0.66 4.62 1 7-3.3 0.33-6.6 0.66-10 1v14c-0.99 0.33-1.98 0.66-3 1-2-1-2-1-3.25-4-1.47-3.32-1.47-3.32-4.94-3.88-1.39-0.0619-1.39-0.0619-2.81-0.125v-11h4c-0.33 2.97-0.66 5.94-1 9h7c-0.0116-0.699-0.0232-1.4-0.0352-2.12-0.00902-0.91-0.018-1.82-0.0273-2.76-0.0116-0.905-0.0232-1.81-0.0352-2.74 0.0977-2.38 0.0977-2.38 1.1-4.38 0.99-0.33 1.98-0.66 3-1 0.33-0.66 0.66-1.32 1-2z" fill="#52CCA5"/>
<path transform="translate(697,37)" d="m0 0c2 1 2 1 5 3v2c0.557-0.289 1.11-0.578 1.69-0.875 0.763-0.371 1.53-0.742 2.31-1.12 1.21-0.619 1.21-0.619 2.44-1.25 2.56-0.75 2.56-0.75 4.94-0.25 3.59 2.05 6.68 4.59 9.62 7.5v1h-6c-0.33 0.66-0.66 1.32-1 2-2.31-0.99-4.62-1.98-7-3v2c-3-1-3-1-4-2 0.33 1.32 0.66 2.64 1 4h3v3c-2.64-0.66-5.28-1.32-8-2-0.33-1.32-0.66-2.64-1-4h-8v-3h3c0.33-0.66 0.66-1.32 1-2h-4v-3c2.48 0.495 2.48 0.495 5 1v-3z" fill="#55C9A4"/>
<path transform="translate(1e3 378)" d="m0 0c7.58 1.87 14.4 4.9 21.4 8.28 3.49 1.68 7.04 3.21 10.6 4.72-0.33 0.99-0.66 1.98-1 3-0.969-0.33-1.94-0.66-2.94-1-3.55-1.26-3.55-1.26-7.06 0-2.72 0.232-5.25 0.131-8 0-0.66-0.66-1.32-1.32-2-2 3-1 3-1 6 0v-2c-1.98-0.66-3.96-1.32-6-2v-2c-0.99 0.66-1.98 1.32-3 2 0.33 0.66 0.66 1.32 1 2-2.64-0.33-5.28-0.66-8-1-0.33-1.32-0.66-2.64-1-4-1.65-0.33-3.3-0.66-5-1 0.66-0.99 1.32-1.98 2-3h2c0.33-0.66 0.66-1.32 1-2z" fill="#52CAA4"/>
<path transform="translate(403,378)" d="m0 0c5.86 1.66 11.4 3.52 17 6 1.35 0.484 2.71 0.963 4.06 1.44 3.77 1.4 6.79 3.04 9.94 5.56v3c-1.09-0.495-2.19-0.99-3.31-1.5-3.49-1.69-3.49-1.69-6.69-1.5-0.825-0.516-1.65-1.03-2.5-1.56-1.24-0.712-1.24-0.712-2.5-1.44-0.99 0.33-1.98 0.66-3 1l2 2c-1.42-0.115-2.83-0.243-4.25-0.375-1.18-0.104-1.18-0.104-2.39-0.211-3.97-0.697-6.78-2.32-9.36-5.41v-2c-1.32-0.33-2.64-0.66-4-1l2-2h3v-2z" fill="#51C9A4"/>
<path transform="translate(919 412)" d="m0 0c0.761 0.0477 1.52 0.0954 2.31 0.145 1.84 0.115 3.67 0.235 5.51 0.355v2h8v1h-71c0.99-0.33 1.98-0.66 3-1v-2c4.36-0.145 8.71-0.287 13.1-0.427 1.48-0.0479 2.95-0.0964 4.43-0.146 11.6-0.385 23.1-0.696 34.7 0.0728z" fill="#52CCA5"/>
<path transform="translate(1100 985)" d="m0 0c1.1 0.00902 2.19 0.018 3.32 0.0273 0.843 0.0116 1.69 0.0232 2.55 0.0352v9c-1.32 0.33-2.64 0.66-4 1-0.33 1.32-0.66 2.64-1 4h-9v-2h-2v-8h2v-3c2.76-1.38 5.05-1.1 8.12-1.06z" fill="#56C9A5"/>
<path transform="translate(1170,579)" d="m0 0h2v2h6c1.14 4.27 2 7.56 2 12h3c0.0606 0.797 0.121 1.59 0.184 2.41 0.613 7.83 0.613 7.83 1.82 15.6h-5c0.33-3.63 0.66-7.26 1-11-1.65-0.33-3.3-0.66-5-1v-2c-1.32-0.33-2.64-0.66-4-1-0.0606-0.808-0.121-1.62-0.184-2.45-0.0838-1.07-0.168-2.14-0.254-3.24-0.0812-1.06-0.162-2.11-0.246-3.2-0.281-2.76-0.718-5.4-1.32-8.11z" fill="#52CCA5"/>
<path transform="translate(887,374)" d="m0 0h10c-1.32 0.33-2.64 0.66-4 1v2h5c0.91 3.07 1.25 5.8 1 9-0.66 0.66-1.32 1.32-2 2-0.648 2.57-0.648 2.57-1 5-0.247-0.619-0.495-1.24-0.75-1.88-1.46-2.48-2.63-3.08-5.25-4.12-0.33 0.66-0.66 1.32-1 2-2-1-2-1-4-3-0.5-5.25-0.397-7.21 2-12z" fill="#51CAA4"/>
<path transform="translate(277,374)" d="m0 0h7v2c0.99 0.33 1.98 0.66 3 1 2 2 2 2 2 5 0.743-0.351 1.49-0.701 2.25-1.06 2.88-0.983 3.96-0.97 6.75 0.0625-0.33 1.32-0.66 2.64-1 4-1.03 0.144-2.06 0.289-3.12 0.438-2.36 0.342-4.71 0.711-7.06 1.12-2.81 0.438-2.81 0.438-6.81 0.438-0.33-0.66-0.66-1.32-1-2-2.02-0.652-2.02-0.652-4-1 0.66-1.32 1.32-2.64 2-4h-2c0.506-2.17 1-4 2-6z" fill="#51C9A4"/>
<path transform="translate(306,1180)" d="m0 0h4c0.33 0.66 0.66 1.32 1 2 2.02 1.13 2.02 1.13 4 2h-5v5c-3.3 0.33-6.6 0.66-10 1v3h-3v-3c-1.65-0.33-3.3-0.66-5-1v-6c-0.66-0.33-1.32-0.66-2-1 3.75-1.12 3.75-1.12 6 0 1.71 0.07 3.42 0.0844 5.12 0.0625 0.91-0.00902 1.82-0.018 2.76-0.0273 1.05-0.0174 1.05-0.0174 2.12-0.0352v-2z" fill="#52CCA5"/>
<path transform="translate(586,67)" d="m0 0h8v2h6v-2h8c0.66 1.65 1.32 3.3 2 5-1 1-1 1-4.51 1.11-1.56-1.59e-4 -3.12-0.00585-4.68-0.0159-0.82-0.00141-1.64-0.00283-2.48-0.00429-2.63-0.00562-5.26-0.0182-7.89-0.0309-1.78-0.00501-3.56-0.00958-5.33-0.0137-4.37-0.011-8.74-0.0283-13.1-0.0488v-1h12v-3h2v-2z" fill="#52CCA5"/>
<path transform="translate(574,613)" d="m0 0h9v3h3v4c-0.99-0.33-1.98-0.66-3-1-0.33-0.66-0.66-1.32-1-2-0.33 0.99-0.66 1.98-1 3h-5c0.33 0.66 0.66 1.32 1 2 1.32-0.33 2.64-0.66 4-1v9c-0.33-1.32-0.66-2.64-1-4h-4c-0.33 1.32-0.66 2.64-1 4v-4h-4v-11h3v-2z" fill="#55C9A4"/>
<path transform="translate(376 370)" d="m0 0c6.08 0.871 12.4 1.8 18.1 4.18 0.33 0.99 0.66 1.98 1 3l2 2c-7.93 0.286-16.4 0.382-24-2-1.37-2.08-1.37-2.08-2-4 2.44-2.95 2.44-2.95 4.88-3.18z" fill="#51C9A4"/>
<path transform="translate(488,1429)" d="m0 0c1.32 0.33 2.64 0.66 4 1v9c1.28-0.0206 2.56-0.0412 3.88-0.0625 3.88-0.0625 3.88-0.0625 6.12 1.06v6c-1.98 0.33-3.96 0.66-6 1v-2h-3v-2h-7l-1-4h-2v-2c-0.66-0.33-1.32-0.66-2-1h7v-7z" fill="#52CCA5"/>
<path transform="translate(636,1468)" d="m0 0h3c0.0507 7.05 0.0857 14.1 0.11 21.1 0.0101 2.4 0.0237 4.8 0.041 7.19 0.0242 3.45 0.0356 6.89 0.0444 10.3 0.0103 1.07 0.0206 2.15 0.0313 3.25 1.51e-4 1 3.02e-4 2 4.58e-4 3.03 0.00444 0.879 0.00888 1.76 0.0135 2.66-0.258 2.55-0.954 4.18-2.24 6.38-1-1-1-1-1.12-3.13 0.00222-0.939 0.00444-1.88 0.00673-2.85 7.55e-5 -1.06 1.51e-4 -2.12 2.29e-4 -3.22 0.00516-1.15 0.0103-2.31 0.0156-3.5 0.00141-1.17 0.00283-2.35 0.00429-3.56 0.00562-3.77 0.0182-7.54 0.0309-11.3 0.00501-2.55 0.00958-5.1 0.0137-7.65 0.0111-6.26 0.0278-12.5 0.0488-18.8z" fill="#56C9A5"/>
<path transform="translate(558,18)" d="m0 0c1.48 0.114 2.96 0.241 4.44 0.375 0.824 0.0696 1.65 0.139 2.5 0.211 1.02 0.205 1.02 0.205 2.07 0.414 1 2 1 2 0 6 3.3 0.33 6.6 0.66 10 1v2h-3c-0.33 1.32-0.66 2.64-1 4-0.33-1.32-0.66-2.64-1-4h-3v3h-5v2c-1.32-0.33-2.64-0.66-4-1 0.66-0.33 1.32-0.66 2-1-0.33-1.65-0.66-3.3-1-5h-3v-2h3v-3h-3v-3z" fill="#52C9A4"/>
<path transform="translate(507,1477)" d="m0 0h7v17h-6c-0.217-1.39-0.217-1.39-0.438-2.81-0.484-3.19-0.484-3.19-1.56-6.19-0.125-3.62-0.125-3.62 0-7 0.33-0.33 0.66-0.66 1-1z" fill="#56C9A5"/>
<path transform="translate(361,1283)" d="m0 0h3v13h6v3h2v3c-1.46 0.195-2.92 0.381-4.38 0.562-0.812 0.104-1.62 0.209-2.46 0.316-2.16 0.121-2.16 0.121-4.16-0.879-0.598-2.21-0.598-2.21-1.06-4.94-0.606-3.65-0.606-3.65-1.94-7.06h3v-7z" fill="#52CCA5"/>
<path transform="translate(1140,905)" d="m0 0h6v16h-6c-1-1-1-1-1.13-3.87 0.00258-1.18 0.00516-2.35 0.00781-3.57-0.00258-1.17-0.00516-2.35-0.00781-3.56 0.133-3 0.133-3 1.13-5z" fill="#56C9A5"/>
<path transform="translate(492,1468)" d="m0 0h6v4h4v6h-2c0.33 1.65 0.66 3.3 1 5-3.29-0.274-4.79-0.818-7.31-3-2.29-4.07-2.05-7.43-1.69-12z" fill="#55C9A4"/>
<path transform="translate(820,903)" d="m0 0c6.62-0.125 6.62-0.125 10 1v12c-2.64-0.33-5.28-0.66-8-1 0.66-1.32 1.32-2.64 2-4-1.65-0.33-3.3-0.66-5-1 0.33-2.31 0.66-4.62 1-7z" fill="#56C9A5"/>
<path transform="translate(520,42)" d="m0 0c2.31 0.33 4.62 0.66 7 1 0.33 0.99 0.66 1.98 1 3 2.02 0.733 2.02 0.733 4 1v5c-3.56 1.19-6.44 1.1-10.2 1.06-1.27-0.00902-2.54-0.018-3.86-0.0273-1.46-0.0174-1.46-0.0174-2.96-0.0352 0.33-0.99 0.66-1.98 1-3 1.32 0.66 2.64 1.32 4 2-0.33-0.99-0.66-1.98-1-3-2.02-0.733-2.02-0.733-4-1v-2h10v-2h-5v-2z" fill="#51CAA4"/>
<path transform="translate(1161,770)" d="m0 0h6v17h-6v-17z" fill="#56C9A5"/>
<path transform="translate(563,720)" d="m0 0c0.928 0.526 0.928 0.526 1.88 1.06 0.701 0.309 1.4 0.619 2.12 0.938 0.66-0.33 1.32-0.66 2-1 0.66 0.33 1.32 0.66 2 1 0.414 1.93 0.414 1.93 0.625 4.31 0.0748 0.78 0.15 1.56 0.227 2.36 0.134 2.1 0.148 4.22 0.148 6.32-1.65-0.33-3.3-0.66-5-1v-4c-1.65-0.33-3.3-0.66-5-1-0.125-6.75-0.125-6.75 1-9z" fill="#55C9A4"/>
<path transform="translate(481,444)" d="m0 0h2c0.33 0.66 0.66 1.32 1 2 0.99 0.33 1.98 0.66 3 1 0.33 1.98 0.66 3.96 1 6 1.32 0.33 2.64 0.66 4 1v3h2v2h5v3c0.99 0.33 1.98 0.66 3 1 0.33 2.64 0.66 5.28 1 8h-2c-0.33-2.31-0.66-4.62-1-7-2.97-0.66-5.94-1.32-9-2-0.33-2.31-0.66-4.62-1-7h-5c-0.289-1.07-0.577-2.14-0.875-3.25-0.853-2.84-1.69-5.19-3.12-7.75z" fill="#52CCA5"/>
<path transform="translate(658,12)" d="m0 0h5v2c1.55-0.124 1.55-0.124 3.12-0.25 4.5 0.29 6.29 1.64 9.88 4.25h3c4.57 4.13 4.57 4.13 6 7-5.19 0.212-9.13-0.409-14-2 0.66-0.66 1.32-1.32 2-2-4.58-4.58-9.89-5.59-16-7 0.33-0.66 0.66-1.32 1-2z" fill="#55C9A4"/>
<path transform="translate(533,26)" d="m0 0c0.598 0.186 1.2 0.371 1.81 0.562 2.35 0.658 2.35 0.658 5.19-0.562 1.67-0.0387 3.33-0.045 5 0v2h-2c1.64 3.21 1.64 3.21 4.38 3.51 0.905 0.058 1.81 0.116 2.74 0.176 1.37 0.0986 1.37 0.0986 2.76 0.199 0.699 0.0374 1.4 0.0748 2.12 0.113v1c-3.55 0.803-6.86 1.16-10.5 1.19-1.38 0.0213-1.38 0.0213-2.78 0.043-2.91-0.247-5.07-1.02-7.72-2.23 0.33-1.32 0.66-2.64 1-4h-2v-2z" fill="#51C9A4"/>
<path transform="translate(117,1011)" d="m0 0h6c0.33 0.99 0.66 1.98 1 3h17v1h-6v3h-9v-2h-6c-0.33 0.66-0.66 1.32-1 2-2-3-2-3-2-7z" fill="#52CCA5"/>
<path transform="translate(1160,629)" d="m0 0v11c-2.88 0.188-2.88 0.188-6 0-2.43-3.64-2.16-5.71-2-10 2.71-1.35 5.01-1.07 8-1z" fill="#56C9A5"/>
<path transform="translate(296,1200)" d="m0 0h10v2c1.32 0.33 2.64 0.66 4 1l-4 2v-2h-6c-0.33 1.65-0.66 3.3-1 5-2.62 0-4.51-0.313-7-1v-2c-1.32-0.66-2.64-1.32-4-2h8v-3z" fill="#52CCA5"/>
<path transform="translate(411,381)" d="m0 0c3.01 0.981 6 1.98 9 3 0.715 0.24 1.43 0.48 2.17 0.727 4.44 1.56 8.14 3.32 11.8 6.27v3c-1.09-0.495-2.19-0.99-3.31-1.5-3.49-1.69-3.49-1.69-6.69-1.5-1.34-0.992-2.67-1.99-4-3-2.08-1.02-4.18-1.99-6.29-2.94-1.71-1.06-1.71-1.06-2.71-4.06z" fill="#52CBA4"/>
<path transform="translate(392,954)" d="m0 0c5.11 1.07 10.1 2.23 15 4v2c-0.866 0.144-1.73 0.289-2.62 0.438-2.2 0.367-4.39 0.802-6.56 1.31-2.81 0.25-2.81 0.25-4.69-1.19-0.557-0.773-0.557-0.773-1.12-1.56-0.33 0.66-0.66 1.32-1 2-1.32-0.99-2.64-1.98-4-3 0.639-0.289 1.28-0.577 1.94-0.875 2.21-0.953 2.21-0.953 3.06-3.12z" fill="#51CAA4"/>
<path transform="translate(70,824)" d="m0 0h3c0.33 1.65 0.66 3.3 1 5h8v1h-8v3h-6v-3h-4v-3c-0.99-0.33-1.98-0.66-3-1h9v-2z" fill="#52CCA5"/>
<path transform="translate(629,629)" d="m0 0c1.65 0.33 3.3 0.66 5 1-0.33 4.62-0.66 9.24-1 14h-5c-0.103-5.13-0.0359-9.95 1-15z" fill="#56C9A5"/>
<path transform="translate(328,922)" d="m0 0 2 4c-1.98 0.33-3.96 0.66-6 1l1 2c-5.94 0.495-5.94 0.495-12 1 1-4 1-4 2.81-5.69 4.05-2.43 7.5-2.42 12.2-2.31z" fill="#56C9A5"/>
<path transform="translate(50,914)" d="m0 0h7v2h2v6c-2.73 1.37-4.98 1.13-8 1-1-1-1-1-1.1-2.85 0.0326-2.05 0.0651-4.1 0.0977-6.15z" fill="#56C9A5"/>
<path transform="translate(548,555)" d="m0 0c0.99 0.33 1.98 0.66 3 1v9h2c-0.186-1.28-0.371-2.56-0.562-3.88-0.562-3.88-0.562-3.88 0.562-6.12 0.99 0.33 1.98 0.66 3 1v9h-2v2h-6v-12z" fill="#56C9A5"/>
<path transform="translate(43,862)" d="m0 0c1.65 0.33 3.3 0.66 5 1 0.235 4.82-0.548 8.46-2 13-0.99-0.33-1.98-0.66-3-1v-2c-0.66-0.33-1.32-0.66-2-1 0.33-0.33 0.66-0.66 1-1h-1v-7h2v-2z" fill="#51CAA4"/>
<path transform="translate(325 394)" d="m0 0c2.07 0.687 2.07 0.687 4.12-0.125 0.639-0.124 1.28-0.248 1.94-0.375 1.75 1.44 1.75 1.44 3 3-1 1-1 1-3.13 1.11-0.916-0.00524-1.83-0.0105-2.78-0.0159-0.989-0.00322-1.98-0.00645-3-0.00977-1.04-0.00838-2.08-0.0168-3.15-0.0254-1.04-0.00451-2.09-0.00902-3.17-0.0137-2.59-0.0118-5.18-0.0283-7.77-0.0488-0.33-0.99-0.66-1.98-1-3 0.687 0.0116 1.37 0.0232 2.08 0.0352 1.35 0.0135 1.35 0.0135 2.73 0.0273 1.34 0.0174 1.34 0.0174 2.71 0.0352 2.76-0.109 4.74-1.29 7.42-0.598z" fill="#56C9A5"/>
<path transform="translate(1e3 378)" d="m0 0c2 1 2 1 3.88 2.94 1.99 1.93 3.6 2.98 6.12 4.06-0.66 0.66-1.32 1.32-2 2 0.33 0.66 0.66 1.32 1 2-2.64-0.33-5.28-0.66-8-1-0.33-1.32-0.66-2.64-1-4-1.65-0.33-3.3-0.66-5-1 0.66-0.99 1.32-1.98 2-3h2c0.33-0.66 0.66-1.32 1-2z" fill="#4FC7A1"/>
<path transform="translate(602,334)" d="m0 0h8v9h-7c-0.33-2.97-0.66-5.94-1-9z" fill="#56C9A5"/>
<path transform="translate(576,1208)" d="m0 0h1c-0.0348 1.25-0.0348 1.25-0.0703 2.52-0.018 1.09-0.0361 2.17-0.0547 3.29-0.0232 1.08-0.0464 2.16-0.0703 3.27-0.0349 3.11-0.0349 3.11 2.2 5.92 0.227 2.73 0.227 2.73 0.195 5.98-0.00967 1.75-0.00967 1.75-0.0195 3.53-0.0168 1.21-0.0335 2.43-0.0508 3.68-0.00902 1.23-0.018 2.45-0.0273 3.72-0.0236 3.03-0.0565 6.06-0.0977 9.1h-1c-0.169-2.52-0.336-5.04-0.5-7.56-0.0477-0.704-0.0954-1.41-0.145-2.13-0.287-4.44-0.367-8.85-0.355-13.3-0.276-2.29-0.276-2.29-1-4-0.66-0.33-1.32-0.66-2-1-0.0545-1.42-0.093-2.83-0.125-4.25-0.0232-0.789-0.0464-1.58-0.0703-2.39 0.212-2.57 0.909-4.15 2.2-6.36z" fill="#52CCA5"/>
<path transform="translate(379,895)" d="m0 0h11v6h-11v-6z" fill="#56C9A5"/>
<path transform="translate(11,697)" d="m0 0h2v15h2c1.26 3.79 0.676 6.26 0.0625 10.2-0.195 1.27-0.389 2.54-0.59 3.86-0.234 1.46-0.234 1.46-0.473 2.96-2-2-2-2-2.12-5.05 0.083-2.46 0.166-4.92 0.25-7.38-0.126-3.62-0.973-6.18-2.12-9.58 0.0234-2.77 0.0234-2.77 0.375-5.38 0.111-0.874 0.222-1.75 0.336-2.65 0.0954-0.652 0.191-1.3 0.289-1.98z" fill="#51CAA4"/>
<path transform="translate(430,969)" d="m0 0c6.23 2.64 12.1 5.62 18 9l-4 2c-0.928-0.681-1.86-1.36-2.81-2.06-1.05-0.639-2.1-1.28-3.19-1.94-0.99 0.33-1.98 0.66-3 1-2.19-0.438-2.19-0.438-4-1v-5c-0.66-0.33-1.32-0.66-2-1 0.33-0.33 0.66-0.66 1-1z" fill="#51CBA4"/>
<path transform="translate(1,775)" d="m0 0c2.41 0.766 2.41 0.766 5 2 1.87 5.11 2.34 8.65 1 14h-3c-1.65-3.66-2.34-6.81-2.62-10.8-0.0748-0.976-0.15-1.95-0.227-2.96-0.049-0.736-0.098-1.47-0.148-2.23z" fill="#51C9A4"/>
<path transform="translate(566,46)" d="m0 0h10v6h-10v-6z" fill="#56C9A5"/>
<path transform="translate(561,1204)" d="m0 0h2v20h-1c-0.66-3.3-1.32-6.6-2-10-1.65-0.33-3.3-0.66-5-1v-3h6v-6z" fill="#51CAA4"/>
<path transform="translate(846,921)" d="m0 0c2.4-0.0543 4.79-0.0938 7.19-0.125 1.01-0.0251 1.01-0.0251 2.04-0.0508 4.06-0.0396 7.12 0.376 10.8 2.18-0.99 0.495-0.99 0.495-2 1-0.33 0.66-0.66 1.32-1 2-0.99-0.33-1.98-0.66-3-1-2.02-0.0443-4.04-0.0393-6.06 0-5.72 0.111-5.72 0.111-7.94-1v-3z" fill="#52CCA5"/>
<path transform="translate(750,128)" d="m0 0c0.33 0.99 0.66 1.98 1 3h3c0.66-0.99 1.32-1.98 2-3v3c2.97 0.33 5.94 0.66 9 1 0.33 1.32 0.66 2.64 1 4-2.48-0.99-2.48-0.99-5-2-0.33 0.66-0.66 1.32-1 2-7.75-0.75-7.75-0.75-10-3-0.125-2.62-0.125-2.62 0-5z" fill="#56C9A5"/>
<path transform="translate(876,939)" d="m0 0h11v3h4v2c0.99 0.33 1.98 0.66 3 1-0.99 0.33-1.98 0.66-3 1-0.66-0.33-1.32-0.66-2-1-0.722 0.186-1.44 0.371-2.19 0.562-3.68 0.573-6.32-0.398-9.81-1.56 1.32-0.99 2.64-1.98 4-3-1.65-0.33-3.3-0.66-5-1v-1zm9 1c-0.33 0.66-0.66 1.32-1 2h2c-0.33-0.66-0.66-1.32-1-2z" fill="#4BB896"/>
<path transform="translate(240,381)" d="m0 0c2.47 0.99 2.47 0.99 5 2 0.33-0.66 0.66-1.32 1-2 1.26 2.52 0.919 3.85 0.562 6.62-0.102 0.817-0.204 1.63-0.309 2.48-0.0838 0.626-0.168 1.25-0.254 1.9h-6v-11z" fill="#51C9A4"/>
<path transform="translate(1188,682)" d="m0 0h3c-0.747 5.72-1.83 11.3-3 17-2.67-2.31-2.98-2.69-3.25-6.44 0.476-6.79 0.476-6.79 3.25-9.56v-1z" fill="#51CAA4"/>
<path transform="translate(633,72)" d="m0 0c0.33 1.32 0.66 2.64 1 4h-19c-0.33-0.66-0.66-1.32-1-2 3.85-1.18 7.76-1.33 11.8-1.56 1.05-0.0648 1.05-0.0648 2.11-0.131 1.71-0.106 3.42-0.207 5.14-0.307z" fill="#52CCA5"/>
<path transform="translate(380,1300)" d="m0 0h8c0.33 0.99 0.66 1.98 1 3h-5v3h-8v-3c-0.66-0.33-1.32-0.66-2-1h6v-2z" fill="#52CCA5"/>
<path transform="translate(496,1024)" d="m0 0h1v5c0.99-0.33 1.98-0.66 3-1 0.651 1.25 1.3 2.5 1.94 3.75 0.36 0.696 0.719 1.39 1.09 2.11 0.928 2.04 1.5 3.95 1.97 6.14-1.32-0.33-2.64-0.66-4-1l-1-4c-1.32-0.33-2.64-0.66-4-1v-10z" fill="#55C9A4"/>
<path transform="translate(1107,973)" d="m0 0h7v8h-6c-1.35-2.71-1.07-5.01-1-8z" fill="#56C9A5"/>
<path transform="translate(588,5)" d="m0 0c2.54 0.0909 5.04 0.237 7.56 0.438 1.07 0.0783 1.07 0.0783 2.15 0.158 1.76 0.13 3.52 0.267 5.28 0.404v2h-11c-0.33 1.65-0.66 3.3-1 5h-2v-2h-2c-0.0427-1.67-0.0406-3.33 0-5 0.33-0.33 0.66-0.66 1-1z" fill="#52C9A4"/>
<path transform="translate(342,959)" d="m0 0h13c-0.66 0.66-1.32 1.32-2 2h-3c0.33 2.31 0.66 4.62 1 7-1.98-0.66-3.96-1.32-6-2-0.124-0.969-0.248-1.94-0.375-2.94-0.206-1.01-0.413-2.02-0.625-3.06-0.66-0.33-1.32-0.66-2-1z" fill="#52CCA5"/>
<path transform="translate(558,524)" d="m0 0c0.99 0.33 1.98 0.66 3 1 0.66 3.3 1.32 6.6 2 10h-7c-0.33 0.66-0.66 1.32-1 2l-3-3c1.65-0.33 3.3-0.66 5-1 0.33-2.97 0.66-5.94 1-9z" fill="#52CCA5"/>
<path transform="translate(557,1124)" d="m0 0h2c0.481 1.42 0.96 2.83 1.44 4.25 0.4 1.18 0.4 1.18 0.809 2.39 0.673 2.11 1.25 4.21 1.75 6.36-0.99 0.495-0.99 0.495-2 1-0.99-0.33-1.98-0.66-3-1-1.57-4.72-2.52-8.14-1-13z" fill="#52CCA5"/>
<path transform="translate(1198,683)" d="m0 0h3c0.33 5.28 0.66 10.6 1 16-1.32-0.33-2.64-0.66-4-1v-15z" fill="#52CCA5"/>
<path transform="translate(731,61)" d="m0 0c5.46 1.16 7.87 2.36 11 7 0.66 0.66 1.32 1.32 2 2h-7c-0.33-0.99-0.66-1.98-1-3-0.99 0.33-1.98 0.66-3 1-2-3-2-3-2-7z" fill="#55C9A4"/>
<path transform="translate(632,1581)" d="m0 0c0.33 0.66 0.66 1.32 1 2h2c0.33-0.66 0.66-1.32 1-2h3v2h2c-1.44 3.37-3.33 5.51-6 8-0.289-0.804-0.577-1.61-0.875-2.44-0.858-2.7-0.858-2.7-3.12-3.56 0.33-1.32 0.66-2.64 1-4z" fill="#53C9A4"/>
<path transform="translate(640,557)" d="m0 0h3c-0.485 4.77-1.09 8.58-3 13-0.165 0.908-0.33 1.82-0.5 2.75-0.165 0.742-0.33 1.49-0.5 2.25-0.66 0.33-1.32 0.66-2 1v2h-2c0.514-4.37 1.36-7.95 3-12 0.742-2.98 1.38-5.99 2-9z" fill="#55C9A4"/>
<path transform="translate(544,503)" d="m0 0c4.65 1.55 7.21 5.07 10 9 0.938 3.5 0.938 3.5 1 6h-5c-0.247-1.03-0.495-2.06-0.75-3.12-1.07-3.81-2.99-6.64-5.25-9.88v-2z" fill="#52CCA5"/>
<path transform="translate(887,871)" d="m0 0c0.33 0.99 0.66 1.98 1 3h3v4h3v3h-8c-0.0269-1.48-0.0463-2.96-0.0625-4.44-0.0116-0.824-0.0232-1.65-0.0352-2.5 0.0977-2.07 0.0977-2.07 1.1-3.07z" fill="#52CCA5"/>
<path transform="translate(988 373)" d="m0 0c0.808 0.102 1.62 0.204 2.45 0.309 0.615 0.0838 1.23 0.168 1.86 0.254v2c1.46 1.63 1.46 1.63 3 3-7.43 0.143-7.43 0.143-11-1v-2h-4v-2c3.09-1.03 4.53-0.975 7.69-0.562z" fill="#51CAA4"/>
<path transform="translate(549,1511)" d="m0 0h6v8h-6v-8z" fill="#56C9A5"/>
<path transform="translate(631,1206)" d="m0 0h4c-0.66 6.6-1.32 13.2-2 20h-1c-0.33-3.63-0.66-7.26-1-11h-1c-0.0977-6.15-0.0977-6.15 0-8 0.33-0.33 0.66-0.66 1-1z" fill="#52CBA5"/>
<path transform="translate(1161,638)" d="m0 0h6v8h-6v-8z" fill="#56C9A5"/>
<path transform="translate(539,487)" d="m0 0c2.04 1.62 4.04 3.29 6 5v2h-6c0.33 1.65 0.66 3.3 1 5h-3c0.0412-0.908 0.0825-1.81 0.125-2.75-0.12-3.13-0.516-4.64-2.12-7.25h4v-2z" fill="#54CAA5"/>
<path transform="translate(616,1)" d="m0 0v1c-3.57 0.819-6.86 1.12-10.5 1.1-1.02-0.00322-2.04-0.00645-3.1-0.00977-1.06-0.00838-2.11-0.0168-3.2-0.0254-1.07-0.00451-2.15-0.00902-3.26-0.0137-2.64-0.0118-5.29-0.0282-7.93-0.0488 0.33-0.66 0.66-1.32 1-2 2.49-0.349 4.87-0.565 7.38-0.688 1.08-0.0608 1.08-0.0608 2.18-0.123 5.88-0.279 11.6 0.00631 17.4 0.81z" fill="#56C9A5"/>
<path transform="translate(549,1101)" d="m0 0c4.08 3.52 5.11 7.83 6 13h-4v5h-1c-0.0606-0.831-0.121-1.66-0.184-2.52-0.0838-1.09-0.168-2.17-0.254-3.29-0.0812-1.08-0.162-2.16-0.246-3.27-0.219-2.98-0.219-2.98-1.32-5.92 0.33-0.99 0.66-1.98 1-3z" fill="#52CCA5"/>
<path transform="translate(566,1209)" d="m0 0h2v20h-1c-1.43-4.67-2.4-9.13-3-14h2v-6z" fill="#51CAA4"/>
<path transform="translate(877,377)" d="m0 0h4v9c-2.31-0.33-4.62-0.66-7-1v-2h2c0.33-1.98 0.66-3.96 1-6z" fill="#51CAA4"/>
<path transform="translate(696,29)" d="m0 0h5c2.22 5.42 2.22 5.42 1.12 8.38-0.371 0.536-0.742 1.07-1.12 1.62-5-5-5-5-6-8 0.33-0.66 0.66-1.32 1-2z" fill="#55C9A5"/>
<path transform="translate(902,894)" d="m0 0h6v7c-1.98 0.33-3.96 0.66-6 1v-8z" fill="#52CCA5"/>
<path transform="translate(666,1498)" d="m0 0h6v7h-6v-7z" fill="#56C9A5"/>
<path transform="translate(656,1437)" d="m0 0h6v7h-6v-7z" fill="#56C9A5"/>
<path transform="translate(498,1423)" d="m0 0h2v3h2v3h-10v-4h6v-2z" fill="#52CCA5"/>
<path transform="translate(364,992)" d="m0 0c3.31-0.25 3.31-0.25 7 0 1.94 1.88 1.94 1.88 3 4v2c0.99 0.33 1.98 0.66 3 1-3.33-0.667-6.67-1.33-10-2v-2h-3v-3z" fill="#52CCA5"/>
<path transform="translate(483,460)" d="m0 0h2c0.33 2.31 0.66 4.62 1 7h2v-7h2c1.12 6.62 1.12 6.62 0 10h-6c-0.33-3.3-0.66-6.6-1-10z" fill="#56C9A5"/>
<path transform="translate(773,209)" d="m0 0h4c0.185 12.7 0.185 12.7-1 18-0.66-0.33-1.32-0.66-2-1-0.286-7.43-0.286-7.43 2-11-0.99-0.33-1.98-0.66-3-1v-5z" fill="#56C9A5"/>
<path transform="translate(426,1354)" d="m0 0h2c-0.33 4.29-0.66 8.58-1 13h-6v-4c1.65-0.33 3.3-0.66 5-1v-8z" fill="#52CCA5"/>
<path transform="translate(297,971)" d="m0 0h6v2c2.31 0.33 4.62 0.66 7 1v3h-7v-3h-5c-0.33-0.99-0.66-1.98-1-3z" fill="#52CCA5"/>
<path transform="translate(316,968)" d="m0 0c1.32 0.66 2.64 1.32 4 2v4c0.66 0.33 1.32 0.66 2 1-3.3-0.33-6.6-0.66-10-1 0.33-1.32 0.66-2.64 1-4h3v-2z" fill="#52CCA5"/>
<path transform="translate(15,675)" d="m0 0h2c-0.0872 1.94-0.195 3.88-0.312 5.81-0.058 1.08-0.116 2.16-0.176 3.27-0.542 3.09-1.06 4.05-3.51 5.92-0.66-0.33-1.32-0.66-2-1 0.99-4.84 1.96-9.48 4-14z" fill="#51C9A4"/>
<path transform="translate(343,364)" d="m0 0c1.79 0.06 3.58 0.149 5.38 0.25 1.5 0.0696 1.5 0.0696 3.02 0.141 2.6 0.609 2.6 0.609 3.95 2.66 0.214 0.645 0.428 1.29 0.648 1.95-3 0.998-4.17 1.01-7.19 0.562-1.26-0.186-2.52-0.371-3.81-0.562-0.66-1.65-1.32-3.3-2-5z" fill="#51C9A4"/>
<path transform="translate(501,314)" d="m0 0c2.64 0.99 5.28 1.98 8 3v2c1.65 0.33 3.3 0.66 5 1-0.33 0.99-0.66 1.98-1 3-4.5-1.69-8.73-3.82-13-6 0.33-0.99 0.66-1.98 1-3z" fill="#52CCA5"/>
<path transform="translate(645,78)" d="m0 0h2c-0.33 1.65-0.66 3.3-1 5-3.22 1-5.79 0.994-9.12 0.625-0.869-0.0902-1.74-0.18-2.63-0.273-2.24-0.352-2.24-0.352-4.24-1.35v-2h8v1c2.31 0.33 4.62 0.66 7 1v-4z" fill="#52CCA5"/>
<path transform="translate(448,979)" d="m0 0c4.68 1.48 4.68 1.48 6.31 4.12 0.227 0.619 0.454 1.24 0.688 1.88h-4c-0.33 0.99-0.66 1.98-1 3v-3h-2c0.33 0.99 0.66 1.98 1 3h-2c-0.0889-3.2 0.0894-5.93 1-9z" fill="#51CBA4"/>
<path transform="translate(573,1531)" d="m0 0c2.35 2.35 2.28 2.93 2.41 6.13 0.0387 0.806 0.0773 1.61 0.117 2.44 0.0309 0.842 0.0619 1.68 0.0938 2.55 0.0387 0.849 0.0773 1.7 0.117 2.57 0.0944 2.1 0.177 4.2 0.258 6.3-1.87-1.57-2.9-2.46-3.34-4.9 0.0157-0.696 0.0314-1.39 0.0476-2.11 0.00967-0.757 0.0193-1.51 0.0293-2.29 0.0251-0.786 0.0503-1.57 0.0762-2.38 0.0135-0.797 0.0271-1.59 0.041-2.42 0.0353-1.97 0.0891-3.93 0.146-5.9z" fill="#51CAA4"/>
<path transform="translate(587,626)" d="m0 0h2c0.33 5.28 0.66 10.6 1 16-0.66-1.32-1.32-2.64-2-4-0.66-0.33-1.32-0.66-2-1-1.42-7.36-1.42-7.36 1-11z" fill="#52CCA5"/>
<path transform="translate(438,115)" d="m0 0c2.48 0.99 2.48 0.99 5 2 0.0427 1.67 0.0406 3.33 0 5-1 1-1 1-3.56 1.06-0.804-0.0206-1.61-0.0413-2.44-0.0625-0.125-5.75-0.125-5.75 1-8z" fill="#52CCA5"/>
<path transform="translate(759,90)" d="m0 0c1.38 1.29 2.71 2.63 4 4v2c0.351 0.578 0.701 1.16 1.06 1.75 1.26 3.03 0.652 5.1-0.0625 8.25h-1v-8h-2c-0.33 0.99-0.66 1.98-1 3-1-1-1-1-1.1-3.29 0.0116-0.917 0.0232-1.83 0.0352-2.78 0.00902-0.919 0.018-1.84 0.0273-2.79 0.0116-0.71 0.0232-1.42 0.0352-2.15z" fill="#56C9A5"/>
<path transform="translate(859,1313)" d="m0 0c0.99 0.33 1.98 0.66 3 1-0.495 0.578-0.99 1.15-1.5 1.75-1.87 2.35-1.87 2.35-1.5 6.25-1.98 0.99-1.98 0.99-4 2-1.11-3.33-0.845-5.62 0-9h4v-2z" fill="#52CCA5"/>
<path transform="translate(304,388)" d="m0 0h13v3c-1.79 0.027-3.58 0.0464-5.38 0.0625-0.998 0.0116-2 0.0232-3.02 0.0352-2.6-0.0977-2.6-0.0977-4.6-1.1v-2z" fill="#56C9A5"/>
<path transform="translate(334 382)" d="m0 0c1.21 0.0309 1.21 0.0309 2.44 0.0625-0.33 2.97-0.66 5.94-1 9-1.32-0.33-2.64-0.66-4-1-0.381-2.33-0.713-4.66-1-7 1-1 1-1 3.56-1.06z" fill="#52CCA5"/>
<path transform="translate(1085,1032)" d="m0 0h6v6h-6v-6z" fill="#56C9A5"/>
<path transform="translate(918,1006)" d="m0 0h6v6h-6v-6z" fill="#51CAA4"/>
<path transform="translate(1153,846)" d="m0 0h6v6h-6v-6z" fill="#56C9A5"/>
<path transform="translate(516,793)" d="m0 0h6v6h-6v-6z" fill="#56C9A5"/>
<path transform="translate(75,758)" d="m0 0h6v6h-6v-6z" fill="#51CAA4"/>
<path transform="translate(556,46)" d="m0 0h6v6h-6v-6z" fill="#56C9A5"/>
<path transform="translate(395,978)" d="m0 0h6c0.0427 1.67 0.0406 3.33 0 5-1 1-1 1-3.56 1.06-1.21-0.0309-1.21-0.0309-2.44-0.0625v-6z" fill="#51CAA4"/>
<path transform="translate(351,969)" d="m0 0h2v2h2v3c0.66 0.33 1.32 0.66 2 1-3.88 1.19-6.92 2-11 2v-2c1.65-0.33 3.3-0.66 5-1v-5z" fill="#52CCA5"/>
<path transform="translate(574,568)" d="m0 0c0.103 0.598 0.206 1.2 0.312 1.81 0.781 2.49 1.84 3.42 3.69 5.19v2c-4.33 0.263-7.88-0.708-12-2 0.33-1.32 0.66-2.64 1-4v3h6c-0.0206-0.804-0.0412-1.61-0.0625-2.44 0.0625-2.56 0.0625-2.56 1.06-3.56z" fill="#52CCA5"/>
<path transform="translate(511,33)" d="m0 0c0.33 0.66 0.66 1.32 1 2h-2c-0.33 2.64-0.66 5.28-1 8h-5c0.33-0.763 0.66-1.53 1-2.31 1.17-2.68 1.17-2.68 1-5.69 1.65-0.66 3.3-1.32 5-2z" fill="#51CAA4"/>
<path transform="translate(707 1468)" d="m0 0c1.45 0.0309 1.45 0.0309 2.94 0.0625-0.33 0.99-0.66 1.98-1 3h-2v3l-4 2c-0.0424-2.33-0.0409-4.67 0-7 1-1 1-1 4.06-1.06z" fill="#56C9A5"/>
<path transform="translate(636,725)" d="m0 0h6v6h-4c-0.33 0.66-0.66 1.32-1 2-0.33-0.99-0.66-1.98-1-3h2c-0.66-1.65-1.32-3.3-2-5z" fill="#56C9A5"/>
<path transform="translate(525,267)" d="m0 0h3v3c3.63 0.33 7.26 0.66 11 1v1c-4.05 0.982-7.84 1.08-12 1-0.66-1.98-1.32-3.96-2-6z" fill="#52CCA5"/>
<path transform="translate(490,1015)" d="m0 0h2c1.29 1.53 1.29 1.53 2.62 3.5 0.446 0.65 0.892 1.3 1.35 1.97 0.338 0.505 0.675 1.01 1.02 1.53-2.31 0.33-4.62 0.66-7 1-0.8-3.29-1.1-4.71 0-8z" fill="#55C9A4"/>
<path transform="translate(852,892)" d="m0 0h14v2c-5.94 0.495-5.94 0.495-12 1-0.66-0.99-1.32-1.98-2-3z" fill="#52CCA5"/>
<path transform="translate(1190,810)" d="m0 0c0.99 0.33 1.98 0.66 3 1 0.977 6.05 0.977 6.05 1 8-0.66 0.66-1.32 1.32-2 2-0.66 1.32-1.32 2.64-2 4v-15z" fill="#51CAA4"/>
<path transform="translate(646,1155)" d="m0 0h6c-0.66 0.66-1.32 1.32-2 2-1.92 3.1-2.2 5.38-2 9h-3c-0.143-7.43-0.143-7.43 1-11z" fill="#51CAA4"/>
<path transform="translate(1161,800)" d="m0 0h6v6h-6v-6z" fill="#56C9A5"/>
<path transform="translate(452,405)" d="m0 0c3.69 0.498 5.6 1.1 8 4-0.66 1.32-1.32 2.64-2 4-0.99-0.33-1.98-0.66-3-1-0.33-0.99-0.66-1.98-1-3-0.66-0.33-1.32-0.66-2-1v-3z" fill="#52C9A4"/>
<path transform="translate(1197,710)" d="m0 0h5v8c-0.33-0.66-0.66-1.32-1-2h-4v-6z" fill="#52CCA5"/>
<path transform="translate(853,1205)" d="m0 0h2c0.33 1.98 0.66 3.96 1 6-2.31 0.33-4.62 0.66-7 1v-4h4v-3z" fill="#52CCA5"/>
<path transform="translate(926,397)" d="m0 0h12c-4.5 3.38-4.5 3.38-8.75 3.19-0.799-0.0271-1.6-0.0541-2.42-0.082-0.603-0.0348-1.21-0.0696-1.83-0.105 0.33-0.99 0.66-1.98 1-3z" fill="#56C9A5"/>
<path transform="translate(950,367)" d="m0 0c4.57 0.345 7.58 0.857 11 4-3.19 0.75-3.19 0.75-7 1-2.94-1.94-2.94-1.94-5-4 0.33-0.33 0.66-0.66 1-1z" fill="#51CAA4"/>
<path transform="translate(905,364)" d="m0 0c1.96-0.0808 3.92-0.139 5.88-0.188 1.64-0.0522 1.64-0.0522 3.3-0.105 0.931 0.0967 1.86 0.193 2.82 0.293 0.66 0.99 1.32 1.98 2 3-9.41 0.369-9.41 0.369-14-2v-1z" fill="#51CAA4"/>
<path transform="translate(438,147)" d="m0 0c0.99 0.33 1.98 0.66 3 1-0.153 0.562-0.307 1.12-0.465 1.7-0.549 2.36-0.85 4.64-1.1 7.05-0.126 1.2-0.126 1.2-0.254 2.42-0.0606 0.603-0.121 1.21-0.184 1.83-0.66-0.33-1.32-0.66-2-1-0.0269-1.98-0.0463-3.96-0.0625-5.94-0.0116-1.1-0.0232-2.2-0.0352-3.34 0.0977-2.72 0.0977-2.72 1.1-3.72z" fill="#51CAA4"/>
<path transform="translate(490,744)" d="m0 0h3v2c0.99 0.33 1.98 0.66 3 1-0.99 0.33-1.98 0.66-3 1-0.33 1.65-0.66 3.3-1 5h-3c0.33-2.97 0.66-5.94 1-9z" fill="#52CCA5"/>
<path transform="translate(1098,467)" d="m0 0h3c0.33 0.99 0.66 1.98 1 3 3.34 0.0743 5.8 0.0655 9-1v3c-1.79 0.027-3.58 0.0464-5.38 0.0625-0.998 0.0116-2 0.0232-3.02 0.0352-2.6-0.0977-2.6-0.0977-4.6-1.1v-4z" fill="#52CCA5"/>
<path transform="translate(629,16)" d="m0 0h15v3c-5.53 0.194-9.76-0.252-15-2v-1z" fill="#51CBA4"/>
<path transform="translate(548,1550)" d="m0 0c2.31 0.562 2.31 0.562 5 2 1.35 2.28 2.11 4.48 3 7-3.47-1.16-3.89-2.18-6-5-0.99-0.33-1.98-0.66-3-1 0.33-0.99 0.66-1.98 1-3z" fill="#52CCA5"/>
<path transform="translate(66,847)" d="m0 0h7c-0.33 1.98-0.66 3.96-1 6h-2v-3h-4v-3z" fill="#52CCA5"/>
<path transform="translate(389,411)" d="m0 0h1v6c-3.67 1.18-7.17 1.07-11 1-0.33-0.99-0.66-1.98-1-3h10c0.33-1.32 0.66-2.64 1-4z" fill="#52CCA5"/>
<path transform="translate(601,88)" d="m0 0c0.382 1.66 0.714 3.32 1 5-1 1-1 1-3.56 1.06-1.21-0.0309-1.21-0.0309-2.44-0.0625v-5c2-1 2-1 5-1z" fill="#51CAA4"/>
<path transform="translate(466,1419)" d="m0 0c5.75-0.125 5.75-0.125 8 1v3h2v3c-0.99-0.33-1.98-0.66-3-1-0.33-0.66-0.66-1.32-1-2-1.98-1.05-3.97-2.05-6-3v-1z" fill="#52CCA5"/>
<path transform="translate(309,364)" d="m0 0c2.12-0.0808 4.25-0.139 6.38-0.188 1.18-0.0348 2.37-0.0696 3.59-0.105 1.5 0.145 1.5 0.145 3.04 0.293 0.66 0.99 1.32 1.98 2 3-10.6-0.964-10.6-0.964-15-2v-1z" fill="#51CAA4"/>
<path transform="translate(766,120)" d="m0 0c0.66 0.33 1.32 0.66 2 1v2h3v4h-6c0.33-2.31 0.66-4.62 1-7z" fill="#52CCA5"/>
<path transform="translate(506,1030)" d="m0 0c1.9 2.85 2.46 4.42 3.12 7.69 0.168 0.808 0.335 1.62 0.508 2.45 0.121 0.615 0.242 1.23 0.367 1.86-3.91-1.76-3.91-1.76-4.75-3.94-0.374-3.09-0.242-5.09 0.75-8.06z" fill="#56C9A5"/>
<path transform="translate(1187,778)" d="m0 0h4c-0.66 2.97-1.32 5.94-2 9-0.66-0.33-1.32-0.66-2-1-0.688-3.5-0.688-3.5-1-7 0.33-0.33 0.66-0.66 1-1z" fill="#51CAA4"/>
<path transform="translate(539,495)" d="m0 0c2.31 0.66 4.62 1.32 7 2 0.33 1.65 0.66 3.3 1 5-2.38-0.312-2.38-0.312-5-1-2-3-2-3-3-6z" fill="#52CBA5"/>
<path transform="translate(518,463)" d="m0 0c0.33 0.66 0.66 1.32 1 2h2c0.66 1.65 1.32 3.3 2 5-3.37-0.547-5.08-1.05-8-3 0.33-0.99 0.66-1.98 1-3 0.33 0.33 0.66 0.66 1 1 0.33-0.66 0.66-1.32 1-2z" fill="#52CCA5"/>
<path transform="translate(0,767)" d="m0 0h1v6h-1v-6z" fill="#52CCA5"/>
<path transform="translate(1,690)" d="m0 0h1v6h-1v-6z" fill="#51CBA4"/>
<path transform="translate(1212,785)" d="m0 0h1v5h-1v-5z" fill="#000102"/>
<path transform="translate(1,781)" d="m0 0 1 4z" fill="#52C9A4"/>
<path transform="translate(1212,686)" d="m0 0 1 4z" fill="#000102"/>
<path transform="translate(596,681)" d="m0 0 1 4z" fill="#000102"/>
<path transform="translate(577,1)" d="m0 0 4 1z" fill="#51CAA4"/>
</svg>
