<svg width="32" height="32" viewBox="0 0 32 32" fill="none" xmlns="http://www.w3.org/2000/svg">
<path fill-rule="evenodd" clip-rule="evenodd" d="M18.7489 25.8093C22.464 25.8093 26.1791 25.8061 29.894 25.8117C31.6384 25.8143 31.228 24.7492 31.228 21.6205L31.2291 7.71459C31.2346 6.57305 31.0796 6.19697 29.8941 6.19812C26.1792 6.20199 22.464 6.20055 18.7489 6.20055C18.7489 5.51672 18.7469 4.83288 18.7501 4.14919C18.7597 2.12489 18.0329 2.55853 14.6929 3.21602L4.2629 5.16914C3.65855 5.28887 3.08885 5.26237 2.82191 5.78094C2.56427 6.28161 2.70576 14.9878 2.70576 16.005C2.70576 16.9765 2.59047 25.6944 2.79312 26.1697C3.03271 26.732 3.55902 26.7058 4.18686 26.8272C5.93147 27.1646 17.6273 29.4436 18.0811 29.3306C19.0362 29.0928 18.7489 27.2726 18.7489 25.8093ZM18.7489 9.7661C20.3944 9.7661 22.3029 9.43342 22.3037 10.657C22.3046 11.8826 20.388 11.5477 18.7495 11.5477L18.7489 13.3315C20.3828 13.3315 22.3029 12.9967 22.3037 14.2224C22.3046 15.448 20.388 15.1131 18.7495 15.1131L18.7489 16.8969C20.3828 16.8969 22.3029 16.5621 22.3037 17.7878C22.3046 19.0156 20.3767 18.6785 18.7273 18.6785L18.7489 20.4623C20.3828 20.4623 22.3029 20.1275 22.3037 21.3532C22.3046 22.5788 20.388 22.2439 18.7495 22.2439L18.7489 24.0277H29.5349L29.4464 7.98211H18.7495L18.7489 9.76596V9.7661ZM10.9575 14.3611L10.193 13.5061C9.29867 12.4621 8.23532 10.8852 7.3865 11.8626C6.69106 12.6634 7.87041 13.543 8.21283 13.973C8.72811 14.62 9.31113 15.1914 9.79432 15.8267C8.96513 17.4108 6.55745 19.1021 7.34382 20.1C8.2588 21.2614 9.34922 19.3987 10.1701 18.2997C10.4464 17.9299 10.7613 17.6029 10.9533 17.2231C11.3475 17.3976 12.4844 18.8752 12.7797 19.2138C13.2946 19.8035 14.1676 21.0625 14.9601 20.148C15.3852 19.6575 15.1464 19.2235 14.8365 18.8499L12.1648 15.8159C12.3886 15.3581 14.1885 13.1226 14.7313 12.4314C15.0037 12.0844 15.4522 11.5929 15.0025 11.0181C14.1114 9.87895 13.1282 11.6049 12.759 12.0642C12.1325 12.8434 11.5934 13.6539 10.9573 14.3611H10.9575Z" fill="#57C9A7"/>
</svg>
