<svg width="12" height="15" viewBox="0 0 12 15" fill="none" xmlns="http://www.w3.org/2000/svg">
<path d="M10.7465 1.60905C10.5966 1.41422 10.4185 1.26009 10.2226 1.15556C10.0267 1.05103 9.81682 0.998179 9.60517 1.00005C9.39352 1.00192 9.18425 1.05847 8.98944 1.16645C8.79464 1.27443 8.61817 1.43169 8.47022 1.62915L2.08596 9.95771L1.30664 13.9238L4.34687 12.9066L10.7311 4.57804C10.8825 4.38512 11.0031 4.15497 11.0859 3.90088C11.1687 3.6468 11.2121 3.37382 11.2135 3.09773C11.215 2.82165 11.1744 2.54793 11.0943 2.29241C11.0141 2.03688 10.8959 1.80462 10.7465 1.60905V1.60905Z" stroke="white" stroke-width="1.3" stroke-linecap="round" stroke-linejoin="round"/>
</svg>
