<svg width="34" height="34" viewBox="0 0 34 34" fill="none" xmlns="http://www.w3.org/2000/svg">
<rect width="33.5494" height="33.5494" rx="10" fill="#57C9A7"/>
<path d="M23.0997 18.7788C22.8402 19.0383 22.4287 19.0383 22.1782 18.7788C21.9188 18.5194 21.9188 18.1078 22.1782 17.8573C23.9675 16.068 23.9675 13.1604 22.1782 11.38C20.3889 9.59968 17.4813 9.59074 15.7009 11.38C13.9206 13.1693 13.9116 16.077 15.7009 17.8573C15.9604 18.1168 15.9604 18.5283 15.7009 18.7788C15.4415 19.0383 15.0299 19.0383 14.7794 18.7788C12.4802 16.4796 12.4802 12.7399 14.7794 10.4496C17.0787 8.1593 20.8183 8.15035 23.1086 10.4496C25.3989 12.7489 25.3989 16.4796 23.0997 18.7788Z" fill="white"/>
<path d="M10.4493 14.7708C10.7088 14.5113 11.1203 14.5113 11.3708 14.7708C11.6303 15.0302 11.6303 15.4417 11.3708 15.6922C9.58153 17.4816 9.58153 20.3892 11.3708 22.1695C13.1601 23.9499 16.0678 23.9588 17.8481 22.1695C19.6285 20.3802 19.6374 17.4726 17.8481 15.6922C17.5887 15.4328 17.5887 15.0213 17.8481 14.7708C18.1076 14.5113 18.5191 14.5113 18.7696 14.7708C21.0689 17.07 21.0689 20.8097 18.7696 23.1C16.4703 25.3903 12.7307 25.3992 10.4404 23.1C8.15009 20.8007 8.15009 17.07 10.4493 14.7708Z" fill="white"/>
</svg>
