<svg width="16" height="16" viewBox="0 0 16 16" fill="none" xmlns="http://www.w3.org/2000/svg">
<path d="M14 3.98665C11.78 3.76665 9.54667 3.65332 7.32 3.65332C6 3.65332 4.68 3.71999 3.36 3.85332L2 3.98665" stroke="white" stroke-linecap="round" stroke-linejoin="round"/>
<path d="M5.66699 3.31301L5.81366 2.43967C5.92033 1.80634 6.00033 1.33301 7.12699 1.33301H8.87366C10.0003 1.33301 10.087 1.83301 10.187 2.44634L10.3337 3.31301" stroke="white" stroke-linecap="round" stroke-linejoin="round"/>
<path d="M12.5669 6.09277L12.1336 12.8061C12.0603 13.8528 12.0003 14.6661 10.1403 14.6661H5.86026C4.00026 14.6661 3.94026 13.8528 3.86693 12.8061L3.43359 6.09277" stroke="white" stroke-linecap="round" stroke-linejoin="round"/>
<path d="M6.88672 11H9.10672" stroke="white" stroke-linecap="round" stroke-linejoin="round"/>
<path d="M6.33301 8.33301H9.66634" stroke="white" stroke-linecap="round" stroke-linejoin="round"/>
</svg>
