<svg width="34" height="27" viewBox="0 0 34 27" fill="none" xmlns="http://www.w3.org/2000/svg">
<path d="M0 2.08534C0 0.947999 0.947173 0.0395877 2.08352 0.087082L17 0.710526L31.9165 0.0870821C33.0528 0.0395878 34 0.948 34 2.08534V24.9147C34 26.052 33.0528 26.9604 31.9165 26.9129L17 26.2895L2.08352 26.9129C0.947174 26.9604 0 26.052 0 24.9147V2.08534Z" fill="#036346"/>
<path d="M2 3.05626C2 2.48249 2.48177 2.02638 3.05468 2.05776L15.0547 2.7149C15.5849 2.74394 16 3.18236 16 3.7134V23.2866C16 23.8176 15.5849 24.2561 15.0547 24.2851L3.05468 24.9422C2.48177 24.9736 2 24.5175 2 23.9437V3.05626Z" fill="#033828"/>
</svg>
