<svg width="32" height="32" viewBox="0 0 32 32" fill="none" xmlns="http://www.w3.org/2000/svg">
<path d="M11.9997 13.3333C13.4724 13.3333 14.6663 12.1394 14.6663 10.6667C14.6663 9.19391 13.4724 8 11.9997 8C10.5269 8 9.33301 9.19391 9.33301 10.6667C9.33301 12.1394 10.5269 13.3333 11.9997 13.3333Z" stroke="white" stroke-width="2" stroke-linecap="round" stroke-linejoin="round"/>
<path d="M17.3337 2.66602H12.0003C5.33366 2.66602 2.66699 5.33268 2.66699 11.9993V19.9993C2.66699 26.666 5.33366 29.3327 12.0003 29.3327H20.0003C26.667 29.3327 29.3337 26.666 29.3337 19.9993V13.3327" stroke="white" stroke-width="2" stroke-linecap="round" stroke-linejoin="round"/>
<path d="M25.5195 3.45288L20.6795 8.29288C20.4929 8.47955 20.3062 8.83955 20.2795 9.10622L20.0129 10.9595C19.9195 11.6262 20.3862 12.0929 21.0529 11.9995L22.9062 11.7329C23.1595 11.6929 23.5329 11.5195 23.7195 11.3329L28.5595 6.49288C29.3995 5.65288 29.7862 4.69288 28.5595 3.46622C27.3195 2.21288 26.3595 2.61288 25.5195 3.45288Z" stroke="white" stroke-width="2" stroke-miterlimit="10" stroke-linecap="round" stroke-linejoin="round"/>
<path d="M24.8271 4.14648C25.2405 5.61315 26.3871 6.75982 27.8538 7.17315" stroke="white" stroke-miterlimit="10" stroke-linecap="round" stroke-linejoin="round"/>
<path d="M3.55957 25.2661L10.1329 20.8528C11.1862 20.1461 12.7062 20.2261 13.6529 21.0394L14.0929 21.4261C15.1329 22.3194 16.8129 22.3194 17.8529 21.4261L23.3996 16.6661C24.4396 15.7728 26.1196 15.7728 27.1596 16.6661L29.3329 18.5328" stroke="white" stroke-linecap="round" stroke-linejoin="round"/>
</svg>
