<svg width="24" height="24" viewBox="0 0 24 24" fill="none" xmlns="http://www.w3.org/2000/svg">
<path d="M20.0937 7.34489L8.68035 1.63823C1.01369 -2.20177 -2.13298 0.944893 1.70702 8.61156L2.86702 10.9316C3.20035 11.6116 3.20035 12.3982 2.86702 13.0782L1.70702 15.3849C-2.13298 23.0516 1.00035 26.1982 8.68035 22.3582L20.0937 16.6516C25.2137 14.0916 25.2137 9.90489 20.0937 7.34489ZM15.787 12.9982H8.58702C8.04035 12.9982 7.58702 12.5449 7.58702 11.9982C7.58702 11.4516 8.04035 10.9982 8.58702 10.9982H15.787C16.3337 10.9982 16.787 11.4516 16.787 11.9982C16.787 12.5449 16.3337 12.9982 15.787 12.9982Z" fill="white"/>
</svg>
