<svg width="35" height="34" viewBox="0 0 35 34" fill="none" xmlns="http://www.w3.org/2000/svg">
<rect x="0.982422" width="33.5494" height="33.5494" rx="10" fill="#57C9A7"/>
<path d="M26.6852 16.2472C26.381 11.0582 21.6662 7.05913 16.2357 7.95378C12.496 8.57109 9.49894 11.6039 8.91742 15.3436C8.57745 17.5086 9.0248 19.5574 9.99997 21.2483L9.20372 24.2096C9.02478 24.8806 9.64208 25.4889 10.3041 25.3011L13.2207 24.4959C14.5448 25.2742 16.0925 25.7215 17.7476 25.7215C22.7935 25.7215 26.9804 21.2751 26.6852 16.2472ZM22.1225 20.1031C22.042 20.2642 21.9435 20.4163 21.8183 20.5594C21.5946 20.801 21.3531 20.9799 21.0847 21.0873C20.8163 21.2036 20.521 21.2572 20.2079 21.2572C19.7516 21.2572 19.2596 21.1499 18.7496 20.9262C18.2307 20.7026 17.7208 20.4073 17.2109 20.0405C16.692 19.6648 16.2088 19.2443 15.7436 18.788C15.2784 18.3228 14.8668 17.8307 14.4911 17.3208C14.1243 16.8108 13.8291 16.3009 13.6143 15.7909C13.3996 15.281 13.2923 14.7889 13.2923 14.3237C13.2923 14.0195 13.346 13.7243 13.4533 13.4559C13.5607 13.1785 13.7307 12.928 13.9722 12.7044C14.2585 12.4181 14.5716 12.2839 14.9026 12.2839C15.0279 12.2839 15.1531 12.3107 15.2694 12.3644C15.3857 12.4181 15.4931 12.4986 15.5736 12.6149L16.6114 14.0821C16.6919 14.1984 16.7546 14.2968 16.7903 14.3953C16.8351 14.4937 16.853 14.5831 16.853 14.6726C16.853 14.78 16.8172 14.8873 16.7546 14.9947C16.692 15.102 16.6114 15.2094 16.504 15.3167L16.1641 15.6746C16.1104 15.7283 16.0925 15.782 16.0925 15.8535C16.0925 15.8893 16.1015 15.9251 16.1104 15.9609C16.1283 15.9967 16.1373 16.0235 16.1462 16.0504C16.2267 16.2025 16.3699 16.3903 16.5667 16.6229C16.7725 16.8555 16.9872 17.0971 17.2198 17.3297C17.4614 17.5713 17.694 17.786 17.9355 17.9917C18.1681 18.1886 18.3649 18.3228 18.517 18.4033C18.5439 18.4123 18.5707 18.4301 18.5976 18.4391C18.6333 18.457 18.6691 18.457 18.7139 18.457C18.7944 18.457 18.8481 18.4301 18.9018 18.3765L19.2417 18.0365C19.358 17.9202 19.4654 17.8397 19.5638 17.786C19.6712 17.7234 19.7696 17.6876 19.8859 17.6876C19.9753 17.6876 20.0648 17.7055 20.1632 17.7502C20.2616 17.7949 20.3689 17.8486 20.4763 17.9291L21.9615 18.9848C22.0778 19.0653 22.1583 19.1638 22.2119 19.2711C22.2567 19.3874 22.2835 19.4948 22.2835 19.62C22.2298 19.7721 22.1941 19.9421 22.1225 20.1031Z" fill="white"/>
</svg>
