<svg width="35" height="34" viewBox="0 0 35 34" fill="none" xmlns="http://www.w3.org/2000/svg">
<rect x="0.963867" width="33.5494" height="33.5494" rx="10" fill="#57C9A7"/>
<path d="M26.6856 20.5252C26.6856 23.7817 24.7442 25.7231 21.4877 25.7231H20.423C19.931 25.7231 19.5284 25.3205 19.5284 24.8285V19.6663C19.5284 19.4248 19.7252 19.219 19.9667 19.219L21.5413 19.1922C21.6666 19.1832 21.774 19.0938 21.8008 18.9685L22.1139 17.2597C22.1408 17.0987 22.0155 16.9466 21.8455 16.9466L19.9399 16.9734C19.6894 16.9734 19.4926 16.7766 19.4837 16.535L19.4479 14.3431C19.4479 14.2 19.5642 14.0748 19.7162 14.0748L21.8634 14.039C22.0155 14.039 22.1318 13.9227 22.1318 13.7706L22.096 11.6234C22.096 11.4713 21.9797 11.355 21.8276 11.355L19.4121 11.3908C17.9269 11.4176 16.746 12.6344 16.7729 14.1195L16.8176 16.5798C16.8265 16.8303 16.6297 17.0271 16.3792 17.0361L15.3056 17.0539C15.1535 17.0539 15.0372 17.1702 15.0372 17.3223L15.0641 19.0222C15.0641 19.1743 15.1804 19.2906 15.3325 19.2906L16.4061 19.2727C16.6566 19.2727 16.8534 19.4695 16.8623 19.7111L16.9428 24.8106C16.9518 25.3116 16.5492 25.7231 16.0482 25.7231H13.9905C10.7339 25.7231 8.79256 23.7817 8.79256 20.5162V13.028C8.79256 9.77147 10.7339 7.83008 13.9905 7.83008H21.4877C24.7442 7.83008 26.6856 9.77147 26.6856 13.028V20.5252Z" fill="white"/>
</svg>
