<svg width="32" height="32" viewBox="0 0 32 32" fill="none" xmlns="http://www.w3.org/2000/svg">
<path d="M13.1765 29.1765C13.1765 30.7353 14.4412 32 16 32C17.5588 32 18.8235 30.7353 18.8235 29.1765V18.8235H29.1765C30.7353 18.8235 32 17.5588 32 16C32 14.4412 30.7353 13.1765 29.1765 13.1765H18.8235V2.82353C18.8235 1.26471 17.5588 0 16 0C14.4412 0 13.1765 1.26471 13.1765 2.82353V13.1765H2.82353C1.26471 13.1765 0 14.4412 0 16C0 17.5588 1.26471 18.8235 2.82353 18.8235H13.1765V29.1765Z" fill="white"/>
</svg>
