<svg width="32" height="32" viewBox="0 0 32 32" fill="none" xmlns="http://www.w3.org/2000/svg">
<path d="M18.8399 15.1207C19.3599 12.934 17.4533 11.0274 15.2666 11.5474C14.2399 11.8007 13.3999 12.6407 13.1466 13.6674C12.6266 15.854 14.5333 17.7607 16.7199 17.2407C17.7599 16.9874 18.5999 16.1474 18.8399 15.1207Z" fill="white"/>
<path d="M8.02657 23.9593C7.78657 23.9593 7.53324 23.866 7.34657 23.6927C4.75991 21.2927 3.27991 17.906 3.27991 14.386C3.27991 7.37268 8.98657 1.66602 15.9999 1.66602C23.0132 1.66602 28.7199 7.37268 28.7199 14.386C28.7199 17.9327 27.2932 21.2127 24.7066 23.6527C24.3066 24.026 23.6666 24.0127 23.2932 23.6127C22.9199 23.2127 22.9332 22.5727 23.3332 22.1993C25.5199 20.146 26.7199 17.386 26.7199 14.3993C26.7199 8.49268 21.9066 3.67935 15.9999 3.67935C10.0932 3.67935 5.27991 8.49268 5.27991 14.3993C5.27991 17.4127 6.49324 20.186 8.70657 22.2393C9.10657 22.6127 9.13324 23.2527 8.75991 23.6527C8.55991 23.8527 8.29324 23.9593 8.02657 23.9593Z" fill="white"/>
<path d="M21.3334 20.4001C21.0934 20.4001 20.84 20.3067 20.6534 20.1334C20.2534 19.7601 20.2267 19.1201 20.6134 18.7201C21.72 17.5467 22.3334 16.0001 22.3334 14.4001C22.3334 10.9067 19.4934 8.08008 16.0134 8.08008C12.5334 8.08008 9.69336 10.9201 9.69336 14.4001C9.69336 16.0134 10.3067 17.5467 11.4134 18.7201C11.7867 19.1201 11.7734 19.7601 11.3734 20.1334C10.9734 20.5201 10.3334 20.4934 9.96003 20.0934C8.50669 18.5467 7.69336 16.5201 7.69336 14.4001C7.69336 9.81341 11.4267 6.08008 16.0134 6.08008C20.6 6.08008 24.3334 9.81341 24.3334 14.4001C24.3334 16.5201 23.5334 18.5467 22.0667 20.0934C21.8667 20.2934 21.6 20.4001 21.3334 20.4001Z" fill="white"/>
<path d="M13.7332 22.2133L11.8132 24.6C10.2932 26.5067 11.6532 29.3333 14.0799 29.3333H17.9066C20.3466 29.3333 21.7066 26.5067 20.1732 24.6133L18.2532 22.2267C17.1066 20.76 14.8932 20.76 13.7332 22.2133Z" fill="white"/>
</svg>
