<svg width="24" height="24" viewBox="0 0 32 32" fill="none" xmlns="http://www.w3.org/2000/svg">
<path d="M29.3333 28.334H2.66663C2.11996 28.334 1.66663 28.7873 1.66663 29.334C1.66663 29.8807 2.11996 30.334 2.66663 30.334H29.3333C29.88 30.334 30.3333 29.8807 30.3333 29.334C30.3333 28.7873 29.88 28.334 29.3333 28.334Z" fill="white"/>
<path d="M22.6667 2.66602H9.33333C5.33333 2.66602 4 5.05268 4 7.99935V29.3327H12V21.2527C12 20.5593 12.56 19.9993 13.2533 19.9993H18.76C19.44 19.9993 20.0133 20.5593 20.0133 21.2527V29.3327H28.0133V7.99935C28 5.05268 26.6667 2.66602 22.6667 2.66602ZM19.3333 12.3327H17V14.666C17 15.2127 16.5467 15.666 16 15.666C15.4533 15.666 15 15.2127 15 14.666V12.3327H12.6667C12.12 12.3327 11.6667 11.8793 11.6667 11.3327C11.6667 10.786 12.12 10.3327 12.6667 10.3327H15V7.99935C15 7.45268 15.4533 6.99935 16 6.99935C16.5467 6.99935 17 7.45268 17 7.99935V10.3327H19.3333C19.88 10.3327 20.3333 10.786 20.3333 11.3327C20.3333 11.8793 19.88 12.3327 19.3333 12.3327Z" fill="white"/>
</svg>
