<svg width="32" height="32" viewBox="0 0 32 32" fill="none" xmlns="http://www.w3.org/2000/svg">
<path d="M23.3734 10.3593C23.2801 10.346 23.1867 10.346 23.0934 10.3593C21.0267 10.2927 19.3867 8.59935 19.3867 6.51935C19.3867 4.39935 21.1067 2.66602 23.2401 2.66602C25.3601 2.66602 27.0934 4.38602 27.0934 6.51935C27.0801 8.59935 25.4401 10.2927 23.3734 10.3593Z" fill="white"/>
<path d="M27.7201 19.6005C26.2268 20.6005 24.1334 20.9739 22.2001 20.7205C22.7068 19.6272 22.9734 18.4139 22.9868 17.1339C22.9868 15.8005 22.6934 14.5339 22.1334 13.4272C24.1068 13.1605 26.2001 13.5339 27.7068 14.5339C29.8134 15.9205 29.8134 18.2005 27.7201 19.6005Z" fill="white"/>
<path d="M8.58655 10.3593C8.67988 10.346 8.77322 10.346 8.86655 10.3593C10.9332 10.2927 12.5732 8.59935 12.5732 6.51935C12.5732 4.38602 10.8532 2.66602 8.71988 2.66602C6.59988 2.66602 4.87988 4.38602 4.87988 6.51935C4.87988 8.59935 6.51988 10.2927 8.58655 10.3593Z" fill="white"/>
<path d="M8.73349 17.1341C8.73349 18.4275 9.01349 19.6541 9.52016 20.7608C7.64016 20.9608 5.68016 20.5608 4.24016 19.6141C2.13349 18.2141 2.13349 15.9341 4.24016 14.5341C5.66682 13.5741 7.68016 13.1875 9.57349 13.4008C9.02682 14.5208 8.73349 15.7875 8.73349 17.1341Z" fill="white"/>
<path d="M16.16 21.16C16.0534 21.1467 15.9334 21.1467 15.8134 21.16C13.36 21.08 11.4 19.0667 11.4 16.5867C11.4134 14.0533 13.4534 12 16 12C18.5334 12 20.5867 14.0533 20.5867 16.5867C20.5734 19.0667 18.6267 21.08 16.16 21.16Z" fill="white"/>
<path d="M11.8268 23.9195C9.81344 25.2662 9.81344 27.4795 11.8268 28.8129C14.1201 30.3462 17.8801 30.3462 20.1734 28.8129C22.1868 27.4662 22.1868 25.2529 20.1734 23.9195C17.8934 22.3862 14.1334 22.3862 11.8268 23.9195Z" fill="white"/>
</svg>
